M48
; DRILL file {KiCad (7.0.0)} date Sat Aug 19 19:02:44 2023
; FORMAT={-:-/ absolute / metric / decimal}
; #@! TF.CreationDate,2023-08-19T19:02:44+01:00
; #@! TF.GenerationSoftware,Kicad,Pcbnew,(7.0.0)
; #@! TF.FileFunction,MixedPlating,1,4
FMAT,2
METRIC
; #@! TA.AperFunction,Plated,PTH,ViaDrill
T1C0.300
; #@! TA.AperFunction,Plated,PTH,ViaDrill
T2C0.400
; #@! TA.AperFunction,Plated,PTH,ComponentDrill
T3C0.600
; #@! TA.AperFunction,Plated,PTH,ComponentDrill
T4C1.100
; #@! TA.AperFunction,Plated,PTH,ComponentDrill
T5C2.000
; #@! TA.AperFunction,NonPlated,NPTH,ComponentDrill
T6C0.650
; #@! TA.AperFunction,NonPlated,NPTH,ComponentDrill
T7C3.200
%
G90
G05
T1
X127.3Y-98.6
X128.5Y-76.8
X129.7Y-66.5
X130.9Y-78.5
X131.7Y-81.7
X132.0Y-75.0
X132.2Y-66.5
X132.217Y-90.806
X132.75Y-102.45
X132.75Y-103.5
X134.0Y-94.1
X134.2Y-95.8
X134.24Y-81.7
X134.5Y-84.2
X134.7Y-66.5
X135.5Y-75.0
X135.6Y-99.5
X135.6Y-100.4
X136.0Y-66.5
X136.4Y-102.4
X136.4Y-103.35
X136.6Y-95.7
X137.6Y-95.7
X137.6Y-102.3
X137.6Y-103.35
X138.75Y-100.05
X138.767Y-101.017
X138.8Y-89.05
X139.0Y-78.1
X139.4Y-90.85
X139.67Y-108.797
X139.8Y-70.35
X139.8Y-89.05
X140.5Y-90.85
X140.6Y-98.7
X140.9Y-73.42
X141.0Y-74.55
X141.0Y-77.65
X141.05Y-75.6
X141.05Y-76.85
X141.17Y-111.605
X142.1Y-103.5
X142.4Y-83.7
X142.4Y-95.05
X143.0Y-95.75
X143.25Y-80.1
X143.51Y-107.705
X143.51Y-109.605
X143.8Y-106.75
X144.6Y-74.54
X144.7Y-106.75
X144.75Y-104.45
X145.4Y-101.4
X145.71Y-113.905
X146.35Y-92.75
X146.4Y-100.1
X146.4Y-101.4
X146.4Y-102.4
X146.75Y-77.5
X146.75Y-85.8
X146.85Y-103.6
X146.9Y-76.65
X147.45Y-105.75
X147.5Y-71.0
X147.5Y-81.85
X147.61Y-109.205
X147.75Y-76.75
X148.05Y-75.6
X148.95Y-75.6
X148.95Y-78.5
X149.1Y-109.4
X150.1Y-79.0
X150.3Y-113.205
X150.5Y-77.5
X151.1Y-81.058
X153.56Y-104.255
X154.34Y-74.634
X155.2Y-86.05
X156.5Y-81.8
X157.1Y-85.7
X158.85Y-102.15
X159.0Y-79.3
X159.2Y-96.8
X159.45Y-92.55
X160.15Y-92.0
X160.85Y-90.1
X161.1Y-92.0
X161.7Y-78.3
X161.964Y-83.1
X162.3Y-79.7
X162.3Y-86.2
X162.5Y-89.9
X164.2Y-102.3
X165.2Y-100.4
X165.35Y-95.8
X166.4Y-100.4
X167.7Y-91.1
X168.05Y-91.85
X168.25Y-96.9
X169.2Y-96.9
X169.3Y-75.95
X169.3Y-90.0
T2
X122.5Y-67.5
X122.5Y-70.0
X122.5Y-72.5
X122.5Y-75.0
X122.5Y-77.5
X122.5Y-80.0
X122.5Y-82.5
X122.5Y-110.0
X122.5Y-112.5
X122.5Y-117.5
X122.5Y-120.0
X122.5Y-122.5
X125.0Y-67.5
X125.0Y-72.5
X125.0Y-75.0
X125.0Y-77.5
X125.0Y-80.0
X125.0Y-82.5
X125.0Y-85.0
X125.0Y-87.5
X125.0Y-92.5
X125.0Y-97.5
X125.0Y-100.0
X125.0Y-102.5
X125.0Y-105.0
X125.0Y-107.5
X125.0Y-110.0
X125.0Y-112.5
X125.0Y-117.5
X125.0Y-120.0
X125.0Y-122.5
X127.5Y-67.5
X127.5Y-70.0
X127.5Y-75.0
X127.5Y-77.5
X127.5Y-80.0
X127.5Y-82.5
X127.5Y-85.0
X127.5Y-92.5
X127.5Y-97.5
X127.5Y-100.0
X127.5Y-102.5
X127.5Y-105.0
X127.5Y-107.5
X127.5Y-110.0
X127.5Y-112.5
X127.5Y-115.0
X127.5Y-117.5
X127.5Y-120.0
X127.5Y-122.5
X130.0Y-85.0
X130.0Y-87.5
X130.0Y-92.5
X130.0Y-102.5
X130.0Y-105.0
X130.0Y-112.5
X130.0Y-115.0
X130.0Y-117.5
X130.0Y-120.0
X130.0Y-122.5
X132.5Y-85.0
X132.5Y-87.5
X132.5Y-105.0
X132.5Y-112.5
X132.5Y-115.0
X132.5Y-117.5
X132.5Y-120.0
X132.5Y-122.5
X135.0Y-105.0
X135.0Y-110.0
X135.0Y-112.5
X135.0Y-117.5
X135.0Y-120.0
X135.0Y-122.5
X137.5Y-105.0
X137.5Y-110.0
X137.5Y-120.0
X137.5Y-122.5
X140.0Y-112.5
X140.0Y-115.0
X140.0Y-117.5
X140.0Y-120.0
X140.0Y-122.5
X142.5Y-117.5
X142.5Y-120.0
X142.5Y-122.5
X145.0Y-117.5
X145.0Y-122.5
X147.5Y-115.0
X147.5Y-117.5
X147.5Y-120.0
X147.5Y-122.5
X150.0Y-115.0
X150.0Y-117.5
X150.0Y-120.0
X150.0Y-122.5
X152.5Y-97.5
X152.5Y-102.5
X152.5Y-105.0
X152.5Y-107.5
X152.5Y-110.0
X152.5Y-112.5
X152.5Y-120.0
X152.5Y-122.5
X155.0Y-97.5
X155.0Y-102.5
X155.0Y-105.0
X155.0Y-107.5
X155.0Y-110.0
X155.0Y-112.5
X155.0Y-120.0
X155.0Y-122.5
X157.5Y-105.0
X157.5Y-107.5
X157.5Y-110.0
X157.5Y-112.5
X157.5Y-115.0
X157.5Y-117.5
X157.5Y-120.0
X157.5Y-122.5
X160.0Y-67.5
X160.0Y-70.0
X160.0Y-112.5
X160.0Y-115.0
X160.0Y-117.5
X160.0Y-120.0
X160.0Y-122.5
X162.5Y-67.5
X162.5Y-70.0
X162.5Y-75.0
X162.5Y-105.0
X162.5Y-107.5
X162.5Y-112.5
X162.5Y-115.0
X165.0Y-67.5
X165.0Y-72.5
X165.0Y-75.0
X165.0Y-105.0
X165.0Y-107.5
X165.0Y-112.5
X167.5Y-67.5
X167.5Y-72.5
X167.5Y-75.0
X167.5Y-102.5
X167.5Y-105.0
X167.5Y-107.5
X167.5Y-110.0
X167.5Y-112.5
X167.5Y-115.0
T4
X130.0Y-110.02
X132.54Y-110.02
X160.0Y-110.02
X162.54Y-110.02
T5
X124.92Y-115.1
X135.08Y-115.1
X154.92Y-115.1
X165.08Y-115.1
T6
X165.29Y-80.08
X165.29Y-85.86
T7
X125.0Y-70.0
X145.0Y-120.0
X165.0Y-70.0
T3
G00X164.21Y-78.65
M15
G01X165.31Y-78.65
M16
G05
G00X164.21Y-87.29
M15
G01X165.31Y-87.29
M16
G05
G00X168.64Y-78.65
M15
G01X169.24Y-78.65
M16
G05
G00X168.64Y-87.29
M15
G01X169.24Y-87.29
M16
G05
T0
M30
