%TF.GenerationSoftware,KiCad,Pcbnew,(7.0.0)*%
%TF.CreationDate,2023-08-19T19:02:20+01:00*%
%TF.ProjectId,Nemesis-MixSigPCB,4e656d65-7369-4732-9d4d-697853696750,rev?*%
%TF.SameCoordinates,Original*%
%TF.FileFunction,Legend,Bot*%
%TF.FilePolarity,Positive*%
%FSLAX46Y46*%
G04 Gerber Fmt 4.6, Leading zero omitted, Abs format (unit mm)*
G04 Created by KiCad (PCBNEW (7.0.0)) date 2023-08-19 19:02:20*
%MOMM*%
%LPD*%
G01*
G04 APERTURE LIST*
%ADD10C,0.010583*%
%ADD11C,0.150000*%
G04 APERTURE END LIST*
D10*
G36*
X164853569Y-117247131D02*
G01*
X164890358Y-117247499D01*
X164923556Y-117248182D01*
X164953482Y-117249237D01*
X164980456Y-117250723D01*
X165004796Y-117252696D01*
X165026821Y-117255213D01*
X165046849Y-117258333D01*
X165065201Y-117262111D01*
X165082194Y-117266606D01*
X165098147Y-117271874D01*
X165113379Y-117277974D01*
X165128210Y-117284961D01*
X165142957Y-117292895D01*
X165157940Y-117301831D01*
X165173478Y-117311828D01*
X165184856Y-117319833D01*
X165196309Y-117328800D01*
X165207778Y-117338655D01*
X165219204Y-117349322D01*
X165230528Y-117360727D01*
X165241693Y-117372796D01*
X165252640Y-117385454D01*
X165263310Y-117398626D01*
X165273645Y-117412238D01*
X165283586Y-117426216D01*
X165293074Y-117440483D01*
X165302052Y-117454967D01*
X165310461Y-117469592D01*
X165318242Y-117484284D01*
X165325337Y-117498969D01*
X165331687Y-117513570D01*
X165354741Y-117569812D01*
X165360855Y-118977396D01*
X165364657Y-119732173D01*
X165366614Y-119983747D01*
X165368864Y-120167473D01*
X165371602Y-120295375D01*
X165373213Y-120342149D01*
X165375017Y-120379474D01*
X165377040Y-120408855D01*
X165379305Y-120431793D01*
X165381835Y-120449792D01*
X165384655Y-120464354D01*
X165391523Y-120495829D01*
X165397150Y-120522853D01*
X165399316Y-120533797D01*
X165400953Y-120542549D01*
X165401990Y-120548749D01*
X165402261Y-120550780D01*
X165402354Y-120552039D01*
X165402353Y-120552039D01*
X165401908Y-120553880D01*
X165400591Y-120554972D01*
X165398442Y-120555343D01*
X165395502Y-120555020D01*
X165387401Y-120552405D01*
X165376607Y-120547347D01*
X165363434Y-120540068D01*
X165348200Y-120530791D01*
X165312811Y-120507124D01*
X165272971Y-120478118D01*
X165231210Y-120445544D01*
X165190059Y-120411176D01*
X165170503Y-120393872D01*
X165152049Y-120376784D01*
X165116262Y-120341373D01*
X165081501Y-120304076D01*
X165047715Y-120264802D01*
X165014852Y-120223460D01*
X164982861Y-120179959D01*
X164951690Y-120134209D01*
X164921288Y-120086119D01*
X164891604Y-120035597D01*
X164862585Y-119982554D01*
X164834181Y-119926899D01*
X164806340Y-119868540D01*
X164779010Y-119807387D01*
X164752141Y-119743350D01*
X164725680Y-119676337D01*
X164699577Y-119606257D01*
X164673780Y-119533021D01*
X164613907Y-119358396D01*
X164611063Y-118302708D01*
X164608218Y-117247021D01*
X164812871Y-117247021D01*
X164853569Y-117247131D01*
G37*
X164853569Y-117247131D02*
X164890358Y-117247499D01*
X164923556Y-117248182D01*
X164953482Y-117249237D01*
X164980456Y-117250723D01*
X165004796Y-117252696D01*
X165026821Y-117255213D01*
X165046849Y-117258333D01*
X165065201Y-117262111D01*
X165082194Y-117266606D01*
X165098147Y-117271874D01*
X165113379Y-117277974D01*
X165128210Y-117284961D01*
X165142957Y-117292895D01*
X165157940Y-117301831D01*
X165173478Y-117311828D01*
X165184856Y-117319833D01*
X165196309Y-117328800D01*
X165207778Y-117338655D01*
X165219204Y-117349322D01*
X165230528Y-117360727D01*
X165241693Y-117372796D01*
X165252640Y-117385454D01*
X165263310Y-117398626D01*
X165273645Y-117412238D01*
X165283586Y-117426216D01*
X165293074Y-117440483D01*
X165302052Y-117454967D01*
X165310461Y-117469592D01*
X165318242Y-117484284D01*
X165325337Y-117498969D01*
X165331687Y-117513570D01*
X165354741Y-117569812D01*
X165360855Y-118977396D01*
X165364657Y-119732173D01*
X165366614Y-119983747D01*
X165368864Y-120167473D01*
X165371602Y-120295375D01*
X165373213Y-120342149D01*
X165375017Y-120379474D01*
X165377040Y-120408855D01*
X165379305Y-120431793D01*
X165381835Y-120449792D01*
X165384655Y-120464354D01*
X165391523Y-120495829D01*
X165397150Y-120522853D01*
X165399316Y-120533797D01*
X165400953Y-120542549D01*
X165401990Y-120548749D01*
X165402261Y-120550780D01*
X165402354Y-120552039D01*
X165402353Y-120552039D01*
X165401908Y-120553880D01*
X165400591Y-120554972D01*
X165398442Y-120555343D01*
X165395502Y-120555020D01*
X165387401Y-120552405D01*
X165376607Y-120547347D01*
X165363434Y-120540068D01*
X165348200Y-120530791D01*
X165312811Y-120507124D01*
X165272971Y-120478118D01*
X165231210Y-120445544D01*
X165190059Y-120411176D01*
X165170503Y-120393872D01*
X165152049Y-120376784D01*
X165116262Y-120341373D01*
X165081501Y-120304076D01*
X165047715Y-120264802D01*
X165014852Y-120223460D01*
X164982861Y-120179959D01*
X164951690Y-120134209D01*
X164921288Y-120086119D01*
X164891604Y-120035597D01*
X164862585Y-119982554D01*
X164834181Y-119926899D01*
X164806340Y-119868540D01*
X164779010Y-119807387D01*
X164752141Y-119743350D01*
X164725680Y-119676337D01*
X164699577Y-119606257D01*
X164673780Y-119533021D01*
X164613907Y-119358396D01*
X164611063Y-118302708D01*
X164608218Y-117247021D01*
X164812871Y-117247021D01*
X164853569Y-117247131D01*
G36*
X162736512Y-117138236D02*
G01*
X162846842Y-117145402D01*
X162900554Y-117150624D01*
X162952900Y-117156937D01*
X163003578Y-117164339D01*
X163052291Y-117172828D01*
X163082940Y-117180376D01*
X163129198Y-117193802D01*
X163185129Y-117211148D01*
X163244797Y-117230456D01*
X163302266Y-117249770D01*
X163351600Y-117267133D01*
X163386861Y-117280586D01*
X163397361Y-117285235D01*
X163402116Y-117288173D01*
X163403135Y-117289074D01*
X163405069Y-117290423D01*
X163411478Y-117294357D01*
X163420940Y-117299759D01*
X163433056Y-117306411D01*
X163463638Y-117322594D01*
X163500012Y-117341169D01*
X163518614Y-117350655D01*
X163535968Y-117359774D01*
X163551695Y-117368309D01*
X163565414Y-117376039D01*
X163571401Y-117379535D01*
X163576745Y-117382747D01*
X163581397Y-117385649D01*
X163585309Y-117388213D01*
X163588435Y-117390412D01*
X163590726Y-117392219D01*
X163592136Y-117393605D01*
X163592495Y-117394133D01*
X163592616Y-117394545D01*
X163592685Y-117394937D01*
X163592889Y-117395405D01*
X163593692Y-117396560D01*
X163594996Y-117397989D01*
X163596775Y-117399674D01*
X163601649Y-117403731D01*
X163608099Y-117408575D01*
X163615907Y-117414049D01*
X163624858Y-117419997D01*
X163634735Y-117426262D01*
X163645323Y-117432688D01*
X163650693Y-117435912D01*
X163655915Y-117439117D01*
X163660960Y-117442284D01*
X163665804Y-117445393D01*
X163670417Y-117448424D01*
X163674773Y-117451358D01*
X163678846Y-117454175D01*
X163682607Y-117456855D01*
X163686030Y-117459378D01*
X163689087Y-117461726D01*
X163691752Y-117463878D01*
X163693997Y-117465815D01*
X163695796Y-117467517D01*
X163697120Y-117468964D01*
X163697597Y-117469586D01*
X163697944Y-117470138D01*
X163698160Y-117470615D01*
X163698240Y-117471017D01*
X163698525Y-117471944D01*
X163699321Y-117473259D01*
X163700601Y-117474936D01*
X163702339Y-117476952D01*
X163707084Y-117481901D01*
X163713345Y-117487910D01*
X163720914Y-117494783D01*
X163729581Y-117502327D01*
X163739136Y-117510345D01*
X163749368Y-117518642D01*
X163767419Y-117533622D01*
X163786256Y-117550378D01*
X163805741Y-117568747D01*
X163825737Y-117588566D01*
X163846106Y-117609673D01*
X163866710Y-117631905D01*
X163908076Y-117679093D01*
X163948733Y-117728830D01*
X163987581Y-117779815D01*
X164005982Y-117805370D01*
X164023518Y-117830748D01*
X164040051Y-117855788D01*
X164055443Y-117880327D01*
X164106128Y-117968121D01*
X164152305Y-118059296D01*
X164195752Y-118158927D01*
X164238248Y-118272089D01*
X164281569Y-118403855D01*
X164327495Y-118559299D01*
X164377802Y-118743497D01*
X164434269Y-118961521D01*
X164483662Y-119153926D01*
X164503456Y-119228958D01*
X164521180Y-119294211D01*
X164537734Y-119352935D01*
X164554015Y-119408381D01*
X164589355Y-119522438D01*
X164615915Y-119603120D01*
X164643392Y-119680932D01*
X164671783Y-119755867D01*
X164701086Y-119827920D01*
X164731298Y-119897087D01*
X164762415Y-119963362D01*
X164794436Y-120026740D01*
X164827356Y-120087216D01*
X164861172Y-120144785D01*
X164895883Y-120199441D01*
X164931485Y-120251180D01*
X164967976Y-120299996D01*
X165005351Y-120345884D01*
X165043609Y-120388839D01*
X165082746Y-120428855D01*
X165122760Y-120465929D01*
X165168017Y-120505665D01*
X165204436Y-120537376D01*
X165233357Y-120562153D01*
X165245425Y-120572281D01*
X165256121Y-120581085D01*
X165265613Y-120588700D01*
X165274068Y-120595263D01*
X165281653Y-120600910D01*
X165288537Y-120605777D01*
X165294887Y-120610000D01*
X165300871Y-120613716D01*
X165306655Y-120617061D01*
X165312408Y-120620172D01*
X165319434Y-120624005D01*
X165327241Y-120628523D01*
X165335569Y-120633562D01*
X165344158Y-120638953D01*
X165352746Y-120644531D01*
X165361075Y-120650130D01*
X165368882Y-120655582D01*
X165375908Y-120660723D01*
X165379527Y-120663286D01*
X165383798Y-120666030D01*
X165394082Y-120671959D01*
X165406325Y-120678312D01*
X165420093Y-120684887D01*
X165434953Y-120691486D01*
X165450471Y-120697908D01*
X165466211Y-120703955D01*
X165481741Y-120709425D01*
X165496731Y-120714545D01*
X165510924Y-120719586D01*
X165523995Y-120724418D01*
X165535617Y-120728914D01*
X165545466Y-120732943D01*
X165549624Y-120734742D01*
X165553216Y-120736376D01*
X165556202Y-120737829D01*
X165558541Y-120739084D01*
X165560193Y-120740125D01*
X165560748Y-120740561D01*
X165561116Y-120740937D01*
X165562165Y-120741690D01*
X165564185Y-120742557D01*
X165570924Y-120744596D01*
X165580910Y-120746972D01*
X165593718Y-120749601D01*
X165608922Y-120752402D01*
X165626098Y-120755292D01*
X165644822Y-120758189D01*
X165664668Y-120761011D01*
X165692246Y-120764498D01*
X165717038Y-120767001D01*
X165739896Y-120768524D01*
X165750866Y-120768918D01*
X165761672Y-120769068D01*
X165772420Y-120768974D01*
X165783216Y-120768635D01*
X165794168Y-120768053D01*
X165805381Y-120767228D01*
X165829017Y-120764849D01*
X165854976Y-120761499D01*
X165873687Y-120758734D01*
X165891567Y-120755808D01*
X165908195Y-120752811D01*
X165923150Y-120749831D01*
X165936010Y-120746957D01*
X165941522Y-120745588D01*
X165946352Y-120744278D01*
X165950448Y-120743040D01*
X165953756Y-120741883D01*
X165956224Y-120740819D01*
X165957799Y-120739860D01*
X165959187Y-120738882D01*
X165961104Y-120737763D01*
X165966389Y-120735158D01*
X165973382Y-120732147D01*
X165981810Y-120728834D01*
X165991400Y-120725323D01*
X166001879Y-120721717D01*
X166012972Y-120718118D01*
X166024408Y-120714632D01*
X166039642Y-120709516D01*
X166056189Y-120702814D01*
X166073855Y-120694659D01*
X166092445Y-120685182D01*
X166111768Y-120674513D01*
X166131628Y-120662783D01*
X166151833Y-120650125D01*
X166172189Y-120636670D01*
X166192502Y-120622547D01*
X166212580Y-120607890D01*
X166232228Y-120592828D01*
X166251253Y-120577494D01*
X166269462Y-120562018D01*
X166286660Y-120546532D01*
X166302655Y-120531166D01*
X166317254Y-120516053D01*
X166336302Y-120494775D01*
X166354935Y-120472558D01*
X166373111Y-120449475D01*
X166390789Y-120425601D01*
X166407926Y-120401011D01*
X166424481Y-120375779D01*
X166440411Y-120349979D01*
X166455675Y-120323686D01*
X166470231Y-120296975D01*
X166484038Y-120269919D01*
X166497052Y-120242593D01*
X166509233Y-120215072D01*
X166520539Y-120187429D01*
X166530927Y-120159740D01*
X166540355Y-120132079D01*
X166548783Y-120104520D01*
X166555069Y-120080129D01*
X166562629Y-120046922D01*
X166570812Y-120008246D01*
X166578966Y-119967448D01*
X166586441Y-119927876D01*
X166592586Y-119892875D01*
X166596750Y-119865793D01*
X166597886Y-119856267D01*
X166598283Y-119849976D01*
X166598376Y-119849539D01*
X166598654Y-119849090D01*
X166599741Y-119848160D01*
X166601509Y-119847193D01*
X166603920Y-119846198D01*
X166606938Y-119845181D01*
X166610526Y-119844152D01*
X166619268Y-119842084D01*
X166629851Y-119840057D01*
X166641983Y-119838132D01*
X166655370Y-119836372D01*
X166669721Y-119834838D01*
X166706644Y-119831061D01*
X166754371Y-119825792D01*
X166857575Y-119813566D01*
X166925185Y-119805759D01*
X166997772Y-119798410D01*
X167071321Y-119791812D01*
X167141812Y-119786258D01*
X167205230Y-119782041D01*
X167257557Y-119779455D01*
X167294775Y-119778792D01*
X167306463Y-119779273D01*
X167312868Y-119780345D01*
X167315980Y-119782115D01*
X167318644Y-119784991D01*
X167320856Y-119789160D01*
X167322611Y-119794809D01*
X167323904Y-119802127D01*
X167324731Y-119811300D01*
X167324968Y-119835962D01*
X167323284Y-119870295D01*
X167319643Y-119915798D01*
X167314009Y-119973971D01*
X167306344Y-120046312D01*
X167301637Y-120083860D01*
X167295566Y-120122818D01*
X167288211Y-120162924D01*
X167279655Y-120203915D01*
X167269979Y-120245528D01*
X167259265Y-120287501D01*
X167247593Y-120329572D01*
X167235046Y-120371478D01*
X167221705Y-120412957D01*
X167207651Y-120453745D01*
X167192967Y-120493581D01*
X167177732Y-120532202D01*
X167162030Y-120569346D01*
X167145941Y-120604750D01*
X167129547Y-120638151D01*
X167112930Y-120669287D01*
X167095879Y-120698786D01*
X167077390Y-120728825D01*
X167057574Y-120759268D01*
X167036546Y-120789978D01*
X167014418Y-120820819D01*
X166991304Y-120851654D01*
X166967317Y-120882347D01*
X166942571Y-120912760D01*
X166917178Y-120942759D01*
X166891252Y-120972206D01*
X166864907Y-121000964D01*
X166838255Y-121028898D01*
X166811410Y-121055870D01*
X166784486Y-121081744D01*
X166757595Y-121106384D01*
X166730850Y-121129654D01*
X166691463Y-121161400D01*
X166649417Y-121192303D01*
X166604991Y-121222244D01*
X166558461Y-121251103D01*
X166510105Y-121278762D01*
X166460199Y-121305103D01*
X166409020Y-121330006D01*
X166356845Y-121353354D01*
X166303951Y-121375027D01*
X166250615Y-121394907D01*
X166197114Y-121412875D01*
X166143725Y-121428813D01*
X166090724Y-121442601D01*
X166038390Y-121454122D01*
X165986997Y-121463256D01*
X165936825Y-121469885D01*
X165936824Y-121469885D01*
X165888525Y-121473399D01*
X165829081Y-121475094D01*
X165762460Y-121475100D01*
X165692630Y-121473547D01*
X165623559Y-121470564D01*
X165559214Y-121466280D01*
X165503563Y-121460826D01*
X165480237Y-121457700D01*
X165460574Y-121454330D01*
X165415010Y-121444454D01*
X165368111Y-121432598D01*
X165320203Y-121418908D01*
X165271611Y-121403527D01*
X165222658Y-121386601D01*
X165173671Y-121368274D01*
X165124973Y-121348689D01*
X165076890Y-121327992D01*
X165029746Y-121306328D01*
X164983866Y-121283840D01*
X164939575Y-121260673D01*
X164897198Y-121236971D01*
X164857059Y-121212880D01*
X164819483Y-121188543D01*
X164784795Y-121164106D01*
X164753320Y-121139711D01*
X164719340Y-121111364D01*
X164681967Y-121079206D01*
X164643047Y-121044916D01*
X164604426Y-121010172D01*
X164567949Y-120976652D01*
X164535463Y-120946034D01*
X164508813Y-120919995D01*
X164489846Y-120900214D01*
X164472676Y-120880182D01*
X164450412Y-120852777D01*
X164424977Y-120820517D01*
X164398295Y-120785924D01*
X164372290Y-120751515D01*
X164348886Y-120719811D01*
X164330006Y-120693330D01*
X164317574Y-120674594D01*
X164238776Y-120540327D01*
X164167126Y-120406170D01*
X164100750Y-120267464D01*
X164037776Y-120119545D01*
X163976332Y-119957753D01*
X163914545Y-119777426D01*
X163850543Y-119573902D01*
X163782451Y-119342521D01*
X163734931Y-119179178D01*
X163690095Y-119030568D01*
X163647489Y-118895812D01*
X163606660Y-118774034D01*
X163567153Y-118664358D01*
X163528513Y-118565906D01*
X163509377Y-118520615D01*
X163490287Y-118477802D01*
X163471187Y-118437357D01*
X163452020Y-118399169D01*
X163432730Y-118363131D01*
X163413259Y-118329131D01*
X163393550Y-118297061D01*
X163373547Y-118266811D01*
X163353194Y-118238271D01*
X163332433Y-118211331D01*
X163311207Y-118185883D01*
X163289460Y-118161816D01*
X163267135Y-118139021D01*
X163244175Y-118117388D01*
X163220524Y-118096808D01*
X163196124Y-118077171D01*
X163170920Y-118058367D01*
X163144853Y-118040287D01*
X163117868Y-118022822D01*
X163089907Y-118005861D01*
X163039677Y-117979501D01*
X162985139Y-117956721D01*
X162926938Y-117937518D01*
X162865722Y-117921887D01*
X162802137Y-117909826D01*
X162736829Y-117901329D01*
X162670444Y-117896393D01*
X162603629Y-117895014D01*
X162537031Y-117897189D01*
X162471295Y-117902913D01*
X162407069Y-117912183D01*
X162344998Y-117924995D01*
X162285730Y-117941344D01*
X162229909Y-117961228D01*
X162178184Y-117984642D01*
X162131200Y-118011582D01*
X162119107Y-118019692D01*
X162106686Y-118028567D01*
X162094088Y-118038061D01*
X162081468Y-118048030D01*
X162068978Y-118058328D01*
X162056771Y-118068808D01*
X162045001Y-118079326D01*
X162033820Y-118089736D01*
X162023381Y-118099892D01*
X162013838Y-118109649D01*
X162005343Y-118118861D01*
X161998049Y-118127383D01*
X161992110Y-118135069D01*
X161987678Y-118141774D01*
X161986075Y-118144712D01*
X161984907Y-118147351D01*
X161984192Y-118149672D01*
X161983949Y-118151656D01*
X161983795Y-118152648D01*
X161983343Y-118154005D01*
X161982608Y-118155703D01*
X161981605Y-118157719D01*
X161978858Y-118162606D01*
X161975223Y-118168477D01*
X161970822Y-118175142D01*
X161965777Y-118182410D01*
X161960210Y-118190093D01*
X161954243Y-118197998D01*
X161947446Y-118207365D01*
X161939502Y-118219235D01*
X161930699Y-118233125D01*
X161921326Y-118248551D01*
X161911671Y-118265029D01*
X161902023Y-118282075D01*
X161892670Y-118299206D01*
X161883900Y-118315938D01*
X161873041Y-118336940D01*
X161862793Y-118356295D01*
X161853067Y-118374126D01*
X161843775Y-118390556D01*
X161834825Y-118405708D01*
X161826131Y-118419705D01*
X161817601Y-118432671D01*
X161809147Y-118444728D01*
X161800679Y-118456000D01*
X161792108Y-118466610D01*
X161783344Y-118476681D01*
X161774299Y-118486335D01*
X161764884Y-118495697D01*
X161755007Y-118504890D01*
X161744582Y-118514035D01*
X161733517Y-118523258D01*
X161719730Y-118534137D01*
X161706322Y-118543799D01*
X161692851Y-118552316D01*
X161678873Y-118559758D01*
X161663946Y-118566197D01*
X161647627Y-118571703D01*
X161629473Y-118576348D01*
X161609042Y-118580203D01*
X161585890Y-118583338D01*
X161559575Y-118585824D01*
X161529653Y-118587733D01*
X161495683Y-118589136D01*
X161413825Y-118590707D01*
X161310457Y-118591104D01*
X161050756Y-118591104D01*
X161056536Y-118551417D01*
X161059305Y-118531414D01*
X161062571Y-118506289D01*
X161065926Y-118479254D01*
X161068961Y-118453521D01*
X161074434Y-118411702D01*
X161081403Y-118368778D01*
X161089788Y-118324979D01*
X161099513Y-118280538D01*
X161110501Y-118235686D01*
X161122675Y-118190655D01*
X161135957Y-118145676D01*
X161150270Y-118100982D01*
X161165538Y-118056805D01*
X161181683Y-118013375D01*
X161198628Y-117970925D01*
X161216296Y-117929686D01*
X161234609Y-117889890D01*
X161253492Y-117851769D01*
X161272865Y-117815555D01*
X161292653Y-117781479D01*
X161306512Y-117759558D01*
X161322058Y-117736647D01*
X161339098Y-117712960D01*
X161357439Y-117688713D01*
X161376884Y-117664120D01*
X161397242Y-117639396D01*
X161418316Y-117614756D01*
X161439914Y-117590415D01*
X161461841Y-117566587D01*
X161483903Y-117543488D01*
X161505906Y-117521331D01*
X161527656Y-117500333D01*
X161548959Y-117480708D01*
X161569620Y-117462670D01*
X161589445Y-117446435D01*
X161608241Y-117432217D01*
X161616964Y-117425830D01*
X161625525Y-117419381D01*
X161633707Y-117413045D01*
X161641292Y-117407000D01*
X161648062Y-117401421D01*
X161653800Y-117396484D01*
X161656214Y-117394312D01*
X161658288Y-117392366D01*
X161659995Y-117390669D01*
X161661308Y-117389243D01*
X161662812Y-117387769D01*
X161665081Y-117385932D01*
X161671727Y-117381273D01*
X161680877Y-117375481D01*
X161692161Y-117368770D01*
X161705211Y-117361354D01*
X161719658Y-117353448D01*
X161735133Y-117345265D01*
X161751266Y-117337020D01*
X161767289Y-117328873D01*
X161782445Y-117320971D01*
X161796388Y-117313507D01*
X161808772Y-117306678D01*
X161819250Y-117300676D01*
X161827476Y-117295698D01*
X161830635Y-117293653D01*
X161833102Y-117291937D01*
X161834832Y-117290574D01*
X161835782Y-117289588D01*
X161840763Y-117285834D01*
X161851223Y-117280562D01*
X161885951Y-117266327D01*
X161934704Y-117248613D01*
X161992218Y-117229149D01*
X162053231Y-117209665D01*
X162112478Y-117191890D01*
X162164697Y-117177554D01*
X162204625Y-117168386D01*
X162251390Y-117160397D01*
X162300382Y-117153517D01*
X162351300Y-117147746D01*
X162403845Y-117143080D01*
X162512618Y-117137063D01*
X162624305Y-117135453D01*
X162736512Y-117138236D01*
G37*
X162736512Y-117138236D02*
X162846842Y-117145402D01*
X162900554Y-117150624D01*
X162952900Y-117156937D01*
X163003578Y-117164339D01*
X163052291Y-117172828D01*
X163082940Y-117180376D01*
X163129198Y-117193802D01*
X163185129Y-117211148D01*
X163244797Y-117230456D01*
X163302266Y-117249770D01*
X163351600Y-117267133D01*
X163386861Y-117280586D01*
X163397361Y-117285235D01*
X163402116Y-117288173D01*
X163403135Y-117289074D01*
X163405069Y-117290423D01*
X163411478Y-117294357D01*
X163420940Y-117299759D01*
X163433056Y-117306411D01*
X163463638Y-117322594D01*
X163500012Y-117341169D01*
X163518614Y-117350655D01*
X163535968Y-117359774D01*
X163551695Y-117368309D01*
X163565414Y-117376039D01*
X163571401Y-117379535D01*
X163576745Y-117382747D01*
X163581397Y-117385649D01*
X163585309Y-117388213D01*
X163588435Y-117390412D01*
X163590726Y-117392219D01*
X163592136Y-117393605D01*
X163592495Y-117394133D01*
X163592616Y-117394545D01*
X163592685Y-117394937D01*
X163592889Y-117395405D01*
X163593692Y-117396560D01*
X163594996Y-117397989D01*
X163596775Y-117399674D01*
X163601649Y-117403731D01*
X163608099Y-117408575D01*
X163615907Y-117414049D01*
X163624858Y-117419997D01*
X163634735Y-117426262D01*
X163645323Y-117432688D01*
X163650693Y-117435912D01*
X163655915Y-117439117D01*
X163660960Y-117442284D01*
X163665804Y-117445393D01*
X163670417Y-117448424D01*
X163674773Y-117451358D01*
X163678846Y-117454175D01*
X163682607Y-117456855D01*
X163686030Y-117459378D01*
X163689087Y-117461726D01*
X163691752Y-117463878D01*
X163693997Y-117465815D01*
X163695796Y-117467517D01*
X163697120Y-117468964D01*
X163697597Y-117469586D01*
X163697944Y-117470138D01*
X163698160Y-117470615D01*
X163698240Y-117471017D01*
X163698525Y-117471944D01*
X163699321Y-117473259D01*
X163700601Y-117474936D01*
X163702339Y-117476952D01*
X163707084Y-117481901D01*
X163713345Y-117487910D01*
X163720914Y-117494783D01*
X163729581Y-117502327D01*
X163739136Y-117510345D01*
X163749368Y-117518642D01*
X163767419Y-117533622D01*
X163786256Y-117550378D01*
X163805741Y-117568747D01*
X163825737Y-117588566D01*
X163846106Y-117609673D01*
X163866710Y-117631905D01*
X163908076Y-117679093D01*
X163948733Y-117728830D01*
X163987581Y-117779815D01*
X164005982Y-117805370D01*
X164023518Y-117830748D01*
X164040051Y-117855788D01*
X164055443Y-117880327D01*
X164106128Y-117968121D01*
X164152305Y-118059296D01*
X164195752Y-118158927D01*
X164238248Y-118272089D01*
X164281569Y-118403855D01*
X164327495Y-118559299D01*
X164377802Y-118743497D01*
X164434269Y-118961521D01*
X164483662Y-119153926D01*
X164503456Y-119228958D01*
X164521180Y-119294211D01*
X164537734Y-119352935D01*
X164554015Y-119408381D01*
X164589355Y-119522438D01*
X164615915Y-119603120D01*
X164643392Y-119680932D01*
X164671783Y-119755867D01*
X164701086Y-119827920D01*
X164731298Y-119897087D01*
X164762415Y-119963362D01*
X164794436Y-120026740D01*
X164827356Y-120087216D01*
X164861172Y-120144785D01*
X164895883Y-120199441D01*
X164931485Y-120251180D01*
X164967976Y-120299996D01*
X165005351Y-120345884D01*
X165043609Y-120388839D01*
X165082746Y-120428855D01*
X165122760Y-120465929D01*
X165168017Y-120505665D01*
X165204436Y-120537376D01*
X165233357Y-120562153D01*
X165245425Y-120572281D01*
X165256121Y-120581085D01*
X165265613Y-120588700D01*
X165274068Y-120595263D01*
X165281653Y-120600910D01*
X165288537Y-120605777D01*
X165294887Y-120610000D01*
X165300871Y-120613716D01*
X165306655Y-120617061D01*
X165312408Y-120620172D01*
X165319434Y-120624005D01*
X165327241Y-120628523D01*
X165335569Y-120633562D01*
X165344158Y-120638953D01*
X165352746Y-120644531D01*
X165361075Y-120650130D01*
X165368882Y-120655582D01*
X165375908Y-120660723D01*
X165379527Y-120663286D01*
X165383798Y-120666030D01*
X165394082Y-120671959D01*
X165406325Y-120678312D01*
X165420093Y-120684887D01*
X165434953Y-120691486D01*
X165450471Y-120697908D01*
X165466211Y-120703955D01*
X165481741Y-120709425D01*
X165496731Y-120714545D01*
X165510924Y-120719586D01*
X165523995Y-120724418D01*
X165535617Y-120728914D01*
X165545466Y-120732943D01*
X165549624Y-120734742D01*
X165553216Y-120736376D01*
X165556202Y-120737829D01*
X165558541Y-120739084D01*
X165560193Y-120740125D01*
X165560748Y-120740561D01*
X165561116Y-120740937D01*
X165562165Y-120741690D01*
X165564185Y-120742557D01*
X165570924Y-120744596D01*
X165580910Y-120746972D01*
X165593718Y-120749601D01*
X165608922Y-120752402D01*
X165626098Y-120755292D01*
X165644822Y-120758189D01*
X165664668Y-120761011D01*
X165692246Y-120764498D01*
X165717038Y-120767001D01*
X165739896Y-120768524D01*
X165750866Y-120768918D01*
X165761672Y-120769068D01*
X165772420Y-120768974D01*
X165783216Y-120768635D01*
X165794168Y-120768053D01*
X165805381Y-120767228D01*
X165829017Y-120764849D01*
X165854976Y-120761499D01*
X165873687Y-120758734D01*
X165891567Y-120755808D01*
X165908195Y-120752811D01*
X165923150Y-120749831D01*
X165936010Y-120746957D01*
X165941522Y-120745588D01*
X165946352Y-120744278D01*
X165950448Y-120743040D01*
X165953756Y-120741883D01*
X165956224Y-120740819D01*
X165957799Y-120739860D01*
X165959187Y-120738882D01*
X165961104Y-120737763D01*
X165966389Y-120735158D01*
X165973382Y-120732147D01*
X165981810Y-120728834D01*
X165991400Y-120725323D01*
X166001879Y-120721717D01*
X166012972Y-120718118D01*
X166024408Y-120714632D01*
X166039642Y-120709516D01*
X166056189Y-120702814D01*
X166073855Y-120694659D01*
X166092445Y-120685182D01*
X166111768Y-120674513D01*
X166131628Y-120662783D01*
X166151833Y-120650125D01*
X166172189Y-120636670D01*
X166192502Y-120622547D01*
X166212580Y-120607890D01*
X166232228Y-120592828D01*
X166251253Y-120577494D01*
X166269462Y-120562018D01*
X166286660Y-120546532D01*
X166302655Y-120531166D01*
X166317254Y-120516053D01*
X166336302Y-120494775D01*
X166354935Y-120472558D01*
X166373111Y-120449475D01*
X166390789Y-120425601D01*
X166407926Y-120401011D01*
X166424481Y-120375779D01*
X166440411Y-120349979D01*
X166455675Y-120323686D01*
X166470231Y-120296975D01*
X166484038Y-120269919D01*
X166497052Y-120242593D01*
X166509233Y-120215072D01*
X166520539Y-120187429D01*
X166530927Y-120159740D01*
X166540355Y-120132079D01*
X166548783Y-120104520D01*
X166555069Y-120080129D01*
X166562629Y-120046922D01*
X166570812Y-120008246D01*
X166578966Y-119967448D01*
X166586441Y-119927876D01*
X166592586Y-119892875D01*
X166596750Y-119865793D01*
X166597886Y-119856267D01*
X166598283Y-119849976D01*
X166598376Y-119849539D01*
X166598654Y-119849090D01*
X166599741Y-119848160D01*
X166601509Y-119847193D01*
X166603920Y-119846198D01*
X166606938Y-119845181D01*
X166610526Y-119844152D01*
X166619268Y-119842084D01*
X166629851Y-119840057D01*
X166641983Y-119838132D01*
X166655370Y-119836372D01*
X166669721Y-119834838D01*
X166706644Y-119831061D01*
X166754371Y-119825792D01*
X166857575Y-119813566D01*
X166925185Y-119805759D01*
X166997772Y-119798410D01*
X167071321Y-119791812D01*
X167141812Y-119786258D01*
X167205230Y-119782041D01*
X167257557Y-119779455D01*
X167294775Y-119778792D01*
X167306463Y-119779273D01*
X167312868Y-119780345D01*
X167315980Y-119782115D01*
X167318644Y-119784991D01*
X167320856Y-119789160D01*
X167322611Y-119794809D01*
X167323904Y-119802127D01*
X167324731Y-119811300D01*
X167324968Y-119835962D01*
X167323284Y-119870295D01*
X167319643Y-119915798D01*
X167314009Y-119973971D01*
X167306344Y-120046312D01*
X167301637Y-120083860D01*
X167295566Y-120122818D01*
X167288211Y-120162924D01*
X167279655Y-120203915D01*
X167269979Y-120245528D01*
X167259265Y-120287501D01*
X167247593Y-120329572D01*
X167235046Y-120371478D01*
X167221705Y-120412957D01*
X167207651Y-120453745D01*
X167192967Y-120493581D01*
X167177732Y-120532202D01*
X167162030Y-120569346D01*
X167145941Y-120604750D01*
X167129547Y-120638151D01*
X167112930Y-120669287D01*
X167095879Y-120698786D01*
X167077390Y-120728825D01*
X167057574Y-120759268D01*
X167036546Y-120789978D01*
X167014418Y-120820819D01*
X166991304Y-120851654D01*
X166967317Y-120882347D01*
X166942571Y-120912760D01*
X166917178Y-120942759D01*
X166891252Y-120972206D01*
X166864907Y-121000964D01*
X166838255Y-121028898D01*
X166811410Y-121055870D01*
X166784486Y-121081744D01*
X166757595Y-121106384D01*
X166730850Y-121129654D01*
X166691463Y-121161400D01*
X166649417Y-121192303D01*
X166604991Y-121222244D01*
X166558461Y-121251103D01*
X166510105Y-121278762D01*
X166460199Y-121305103D01*
X166409020Y-121330006D01*
X166356845Y-121353354D01*
X166303951Y-121375027D01*
X166250615Y-121394907D01*
X166197114Y-121412875D01*
X166143725Y-121428813D01*
X166090724Y-121442601D01*
X166038390Y-121454122D01*
X165986997Y-121463256D01*
X165936825Y-121469885D01*
X165936824Y-121469885D01*
X165888525Y-121473399D01*
X165829081Y-121475094D01*
X165762460Y-121475100D01*
X165692630Y-121473547D01*
X165623559Y-121470564D01*
X165559214Y-121466280D01*
X165503563Y-121460826D01*
X165480237Y-121457700D01*
X165460574Y-121454330D01*
X165415010Y-121444454D01*
X165368111Y-121432598D01*
X165320203Y-121418908D01*
X165271611Y-121403527D01*
X165222658Y-121386601D01*
X165173671Y-121368274D01*
X165124973Y-121348689D01*
X165076890Y-121327992D01*
X165029746Y-121306328D01*
X164983866Y-121283840D01*
X164939575Y-121260673D01*
X164897198Y-121236971D01*
X164857059Y-121212880D01*
X164819483Y-121188543D01*
X164784795Y-121164106D01*
X164753320Y-121139711D01*
X164719340Y-121111364D01*
X164681967Y-121079206D01*
X164643047Y-121044916D01*
X164604426Y-121010172D01*
X164567949Y-120976652D01*
X164535463Y-120946034D01*
X164508813Y-120919995D01*
X164489846Y-120900214D01*
X164472676Y-120880182D01*
X164450412Y-120852777D01*
X164424977Y-120820517D01*
X164398295Y-120785924D01*
X164372290Y-120751515D01*
X164348886Y-120719811D01*
X164330006Y-120693330D01*
X164317574Y-120674594D01*
X164238776Y-120540327D01*
X164167126Y-120406170D01*
X164100750Y-120267464D01*
X164037776Y-120119545D01*
X163976332Y-119957753D01*
X163914545Y-119777426D01*
X163850543Y-119573902D01*
X163782451Y-119342521D01*
X163734931Y-119179178D01*
X163690095Y-119030568D01*
X163647489Y-118895812D01*
X163606660Y-118774034D01*
X163567153Y-118664358D01*
X163528513Y-118565906D01*
X163509377Y-118520615D01*
X163490287Y-118477802D01*
X163471187Y-118437357D01*
X163452020Y-118399169D01*
X163432730Y-118363131D01*
X163413259Y-118329131D01*
X163393550Y-118297061D01*
X163373547Y-118266811D01*
X163353194Y-118238271D01*
X163332433Y-118211331D01*
X163311207Y-118185883D01*
X163289460Y-118161816D01*
X163267135Y-118139021D01*
X163244175Y-118117388D01*
X163220524Y-118096808D01*
X163196124Y-118077171D01*
X163170920Y-118058367D01*
X163144853Y-118040287D01*
X163117868Y-118022822D01*
X163089907Y-118005861D01*
X163039677Y-117979501D01*
X162985139Y-117956721D01*
X162926938Y-117937518D01*
X162865722Y-117921887D01*
X162802137Y-117909826D01*
X162736829Y-117901329D01*
X162670444Y-117896393D01*
X162603629Y-117895014D01*
X162537031Y-117897189D01*
X162471295Y-117902913D01*
X162407069Y-117912183D01*
X162344998Y-117924995D01*
X162285730Y-117941344D01*
X162229909Y-117961228D01*
X162178184Y-117984642D01*
X162131200Y-118011582D01*
X162119107Y-118019692D01*
X162106686Y-118028567D01*
X162094088Y-118038061D01*
X162081468Y-118048030D01*
X162068978Y-118058328D01*
X162056771Y-118068808D01*
X162045001Y-118079326D01*
X162033820Y-118089736D01*
X162023381Y-118099892D01*
X162013838Y-118109649D01*
X162005343Y-118118861D01*
X161998049Y-118127383D01*
X161992110Y-118135069D01*
X161987678Y-118141774D01*
X161986075Y-118144712D01*
X161984907Y-118147351D01*
X161984192Y-118149672D01*
X161983949Y-118151656D01*
X161983795Y-118152648D01*
X161983343Y-118154005D01*
X161982608Y-118155703D01*
X161981605Y-118157719D01*
X161978858Y-118162606D01*
X161975223Y-118168477D01*
X161970822Y-118175142D01*
X161965777Y-118182410D01*
X161960210Y-118190093D01*
X161954243Y-118197998D01*
X161947446Y-118207365D01*
X161939502Y-118219235D01*
X161930699Y-118233125D01*
X161921326Y-118248551D01*
X161911671Y-118265029D01*
X161902023Y-118282075D01*
X161892670Y-118299206D01*
X161883900Y-118315938D01*
X161873041Y-118336940D01*
X161862793Y-118356295D01*
X161853067Y-118374126D01*
X161843775Y-118390556D01*
X161834825Y-118405708D01*
X161826131Y-118419705D01*
X161817601Y-118432671D01*
X161809147Y-118444728D01*
X161800679Y-118456000D01*
X161792108Y-118466610D01*
X161783344Y-118476681D01*
X161774299Y-118486335D01*
X161764884Y-118495697D01*
X161755007Y-118504890D01*
X161744582Y-118514035D01*
X161733517Y-118523258D01*
X161719730Y-118534137D01*
X161706322Y-118543799D01*
X161692851Y-118552316D01*
X161678873Y-118559758D01*
X161663946Y-118566197D01*
X161647627Y-118571703D01*
X161629473Y-118576348D01*
X161609042Y-118580203D01*
X161585890Y-118583338D01*
X161559575Y-118585824D01*
X161529653Y-118587733D01*
X161495683Y-118589136D01*
X161413825Y-118590707D01*
X161310457Y-118591104D01*
X161050756Y-118591104D01*
X161056536Y-118551417D01*
X161059305Y-118531414D01*
X161062571Y-118506289D01*
X161065926Y-118479254D01*
X161068961Y-118453521D01*
X161074434Y-118411702D01*
X161081403Y-118368778D01*
X161089788Y-118324979D01*
X161099513Y-118280538D01*
X161110501Y-118235686D01*
X161122675Y-118190655D01*
X161135957Y-118145676D01*
X161150270Y-118100982D01*
X161165538Y-118056805D01*
X161181683Y-118013375D01*
X161198628Y-117970925D01*
X161216296Y-117929686D01*
X161234609Y-117889890D01*
X161253492Y-117851769D01*
X161272865Y-117815555D01*
X161292653Y-117781479D01*
X161306512Y-117759558D01*
X161322058Y-117736647D01*
X161339098Y-117712960D01*
X161357439Y-117688713D01*
X161376884Y-117664120D01*
X161397242Y-117639396D01*
X161418316Y-117614756D01*
X161439914Y-117590415D01*
X161461841Y-117566587D01*
X161483903Y-117543488D01*
X161505906Y-117521331D01*
X161527656Y-117500333D01*
X161548959Y-117480708D01*
X161569620Y-117462670D01*
X161589445Y-117446435D01*
X161608241Y-117432217D01*
X161616964Y-117425830D01*
X161625525Y-117419381D01*
X161633707Y-117413045D01*
X161641292Y-117407000D01*
X161648062Y-117401421D01*
X161653800Y-117396484D01*
X161656214Y-117394312D01*
X161658288Y-117392366D01*
X161659995Y-117390669D01*
X161661308Y-117389243D01*
X161662812Y-117387769D01*
X161665081Y-117385932D01*
X161671727Y-117381273D01*
X161680877Y-117375481D01*
X161692161Y-117368770D01*
X161705211Y-117361354D01*
X161719658Y-117353448D01*
X161735133Y-117345265D01*
X161751266Y-117337020D01*
X161767289Y-117328873D01*
X161782445Y-117320971D01*
X161796388Y-117313507D01*
X161808772Y-117306678D01*
X161819250Y-117300676D01*
X161827476Y-117295698D01*
X161830635Y-117293653D01*
X161833102Y-117291937D01*
X161834832Y-117290574D01*
X161835782Y-117289588D01*
X161840763Y-117285834D01*
X161851223Y-117280562D01*
X161885951Y-117266327D01*
X161934704Y-117248613D01*
X161992218Y-117229149D01*
X162053231Y-117209665D01*
X162112478Y-117191890D01*
X162164697Y-117177554D01*
X162204625Y-117168386D01*
X162251390Y-117160397D01*
X162300382Y-117153517D01*
X162351300Y-117147746D01*
X162403845Y-117143080D01*
X162512618Y-117137063D01*
X162624305Y-117135453D01*
X162736512Y-117138236D01*
G36*
X163526471Y-121621727D02*
G01*
X163534821Y-121623047D01*
X163543342Y-121624282D01*
X163551795Y-121625405D01*
X163559940Y-121626389D01*
X163567540Y-121627208D01*
X163574356Y-121627835D01*
X163580148Y-121628242D01*
X163584679Y-121628404D01*
X163587538Y-121628565D01*
X163590093Y-121629060D01*
X163592361Y-121629965D01*
X163594359Y-121631353D01*
X163596102Y-121633302D01*
X163597608Y-121635885D01*
X163598892Y-121639179D01*
X163599971Y-121643258D01*
X163600862Y-121648198D01*
X163601581Y-121654073D01*
X163602144Y-121660959D01*
X163602568Y-121668932D01*
X163603064Y-121688436D01*
X163603200Y-121713187D01*
X163603200Y-121797854D01*
X163486783Y-121797854D01*
X163486783Y-121615167D01*
X163526471Y-121621727D01*
G37*
X163526471Y-121621727D02*
X163534821Y-121623047D01*
X163543342Y-121624282D01*
X163551795Y-121625405D01*
X163559940Y-121626389D01*
X163567540Y-121627208D01*
X163574356Y-121627835D01*
X163580148Y-121628242D01*
X163584679Y-121628404D01*
X163587538Y-121628565D01*
X163590093Y-121629060D01*
X163592361Y-121629965D01*
X163594359Y-121631353D01*
X163596102Y-121633302D01*
X163597608Y-121635885D01*
X163598892Y-121639179D01*
X163599971Y-121643258D01*
X163600862Y-121648198D01*
X163601581Y-121654073D01*
X163602144Y-121660959D01*
X163602568Y-121668932D01*
X163603064Y-121688436D01*
X163603200Y-121713187D01*
X163603200Y-121797854D01*
X163486783Y-121797854D01*
X163486783Y-121615167D01*
X163526471Y-121621727D01*
G36*
X163615156Y-119060246D02*
G01*
X163625431Y-119091366D01*
X163648481Y-119166932D01*
X163719243Y-119406021D01*
X163776104Y-119598249D01*
X163827482Y-119766623D01*
X163874500Y-119914388D01*
X163918284Y-120044793D01*
X163959959Y-120161083D01*
X164000650Y-120266507D01*
X164041480Y-120364309D01*
X164083575Y-120457739D01*
X164093377Y-120478999D01*
X164102520Y-120499348D01*
X164110806Y-120518302D01*
X164118034Y-120535381D01*
X164124004Y-120550102D01*
X164128517Y-120561983D01*
X164130164Y-120566708D01*
X164131371Y-120570542D01*
X164132113Y-120573424D01*
X164132367Y-120575296D01*
X164130960Y-120580959D01*
X164126924Y-120590481D01*
X164112062Y-120619306D01*
X164089975Y-120658171D01*
X164062862Y-120703478D01*
X164032918Y-120751630D01*
X164002340Y-120799028D01*
X163973325Y-120842075D01*
X163948070Y-120877172D01*
X163924779Y-120906848D01*
X163899806Y-120936592D01*
X163873305Y-120966274D01*
X163845432Y-120995764D01*
X163816341Y-121024930D01*
X163786188Y-121053644D01*
X163755128Y-121081775D01*
X163723315Y-121109192D01*
X163690905Y-121135765D01*
X163658052Y-121161364D01*
X163624912Y-121185858D01*
X163591639Y-121209118D01*
X163558389Y-121231012D01*
X163525317Y-121251411D01*
X163492577Y-121270184D01*
X163460325Y-121287202D01*
X163426919Y-121303301D01*
X163391938Y-121318762D01*
X163355492Y-121333554D01*
X163317692Y-121347653D01*
X163278649Y-121361028D01*
X163238474Y-121373653D01*
X163197278Y-121385500D01*
X163155172Y-121396541D01*
X163112267Y-121406748D01*
X163068673Y-121416095D01*
X163024502Y-121424552D01*
X162979864Y-121432093D01*
X162934871Y-121438689D01*
X162889633Y-121444313D01*
X162844261Y-121448937D01*
X162798867Y-121452533D01*
X162798867Y-121452534D01*
X162760607Y-121454020D01*
X162711606Y-121454261D01*
X162655241Y-121453385D01*
X162594891Y-121451519D01*
X162533934Y-121448792D01*
X162475747Y-121445330D01*
X162423709Y-121441263D01*
X162381196Y-121436718D01*
X162325583Y-121428078D01*
X162264815Y-121416093D01*
X162200967Y-121401336D01*
X162136113Y-121384379D01*
X162072327Y-121365797D01*
X162011683Y-121346161D01*
X161956254Y-121326046D01*
X161931144Y-121315987D01*
X161908115Y-121306023D01*
X161818057Y-121261666D01*
X161732777Y-121212134D01*
X161652305Y-121157473D01*
X161576671Y-121097730D01*
X161505907Y-121032951D01*
X161440041Y-120963184D01*
X161379106Y-120888473D01*
X161323130Y-120808867D01*
X161272144Y-120724410D01*
X161226179Y-120635151D01*
X161185265Y-120541135D01*
X161149432Y-120442409D01*
X161118710Y-120339019D01*
X161093131Y-120231012D01*
X161072723Y-120118435D01*
X161057518Y-120001333D01*
X161050538Y-119935188D01*
X161782051Y-119935188D01*
X161793618Y-119980167D01*
X161806763Y-120028580D01*
X161820850Y-120075276D01*
X161835873Y-120120241D01*
X161851823Y-120163459D01*
X161868692Y-120204916D01*
X161886471Y-120244599D01*
X161905153Y-120282491D01*
X161924728Y-120318579D01*
X161945189Y-120352849D01*
X161966528Y-120385285D01*
X161988736Y-120415874D01*
X162011805Y-120444601D01*
X162035726Y-120471451D01*
X162060492Y-120496410D01*
X162086095Y-120519464D01*
X162112526Y-120540597D01*
X162140036Y-120560520D01*
X162153453Y-120569626D01*
X162166790Y-120578231D01*
X162180154Y-120586388D01*
X162193652Y-120594150D01*
X162207392Y-120601571D01*
X162221482Y-120608702D01*
X162236030Y-120615596D01*
X162251144Y-120622307D01*
X162266930Y-120628887D01*
X162283498Y-120635388D01*
X162319407Y-120648368D01*
X162359734Y-120661668D01*
X162390125Y-120671057D01*
X162416430Y-120678280D01*
X162428837Y-120681166D01*
X162441167Y-120683616D01*
X162453735Y-120685666D01*
X162466857Y-120687350D01*
X162480846Y-120688703D01*
X162496019Y-120689762D01*
X162531172Y-120691136D01*
X162574837Y-120691753D01*
X162629534Y-120691896D01*
X162666701Y-120691658D01*
X162701465Y-120690909D01*
X162734063Y-120689600D01*
X162764732Y-120687680D01*
X162793708Y-120685099D01*
X162821228Y-120681807D01*
X162847529Y-120677754D01*
X162872847Y-120672888D01*
X162897419Y-120667161D01*
X162921483Y-120660521D01*
X162945273Y-120652919D01*
X162969029Y-120644303D01*
X162992985Y-120634625D01*
X163017379Y-120623834D01*
X163042447Y-120611878D01*
X163068427Y-120598709D01*
X163102565Y-120579459D01*
X163136344Y-120557472D01*
X163169647Y-120532894D01*
X163202357Y-120505875D01*
X163234356Y-120476563D01*
X163265527Y-120445106D01*
X163295754Y-120411653D01*
X163324918Y-120376352D01*
X163352902Y-120339351D01*
X163379590Y-120300800D01*
X163404863Y-120260845D01*
X163428605Y-120219636D01*
X163450698Y-120177322D01*
X163471025Y-120134049D01*
X163489469Y-120089967D01*
X163505912Y-120045225D01*
X163532936Y-119961525D01*
X163555081Y-119881541D01*
X163564449Y-119842049D01*
X163572749Y-119802414D01*
X163580029Y-119762278D01*
X163586342Y-119721284D01*
X163591736Y-119679074D01*
X163596262Y-119635291D01*
X163602913Y-119541575D01*
X163606697Y-119437278D01*
X163608016Y-119319538D01*
X163608248Y-119265214D01*
X163608727Y-119215024D01*
X163609424Y-119170031D01*
X163610310Y-119131298D01*
X163611356Y-119099890D01*
X163612531Y-119076870D01*
X163613159Y-119068837D01*
X163613808Y-119063301D01*
X163614475Y-119060393D01*
X163614814Y-119059966D01*
X163615156Y-119060246D01*
G37*
X163615156Y-119060246D02*
X163625431Y-119091366D01*
X163648481Y-119166932D01*
X163719243Y-119406021D01*
X163776104Y-119598249D01*
X163827482Y-119766623D01*
X163874500Y-119914388D01*
X163918284Y-120044793D01*
X163959959Y-120161083D01*
X164000650Y-120266507D01*
X164041480Y-120364309D01*
X164083575Y-120457739D01*
X164093377Y-120478999D01*
X164102520Y-120499348D01*
X164110806Y-120518302D01*
X164118034Y-120535381D01*
X164124004Y-120550102D01*
X164128517Y-120561983D01*
X164130164Y-120566708D01*
X164131371Y-120570542D01*
X164132113Y-120573424D01*
X164132367Y-120575296D01*
X164130960Y-120580959D01*
X164126924Y-120590481D01*
X164112062Y-120619306D01*
X164089975Y-120658171D01*
X164062862Y-120703478D01*
X164032918Y-120751630D01*
X164002340Y-120799028D01*
X163973325Y-120842075D01*
X163948070Y-120877172D01*
X163924779Y-120906848D01*
X163899806Y-120936592D01*
X163873305Y-120966274D01*
X163845432Y-120995764D01*
X163816341Y-121024930D01*
X163786188Y-121053644D01*
X163755128Y-121081775D01*
X163723315Y-121109192D01*
X163690905Y-121135765D01*
X163658052Y-121161364D01*
X163624912Y-121185858D01*
X163591639Y-121209118D01*
X163558389Y-121231012D01*
X163525317Y-121251411D01*
X163492577Y-121270184D01*
X163460325Y-121287202D01*
X163426919Y-121303301D01*
X163391938Y-121318762D01*
X163355492Y-121333554D01*
X163317692Y-121347653D01*
X163278649Y-121361028D01*
X163238474Y-121373653D01*
X163197278Y-121385500D01*
X163155172Y-121396541D01*
X163112267Y-121406748D01*
X163068673Y-121416095D01*
X163024502Y-121424552D01*
X162979864Y-121432093D01*
X162934871Y-121438689D01*
X162889633Y-121444313D01*
X162844261Y-121448937D01*
X162798867Y-121452533D01*
X162798867Y-121452534D01*
X162760607Y-121454020D01*
X162711606Y-121454261D01*
X162655241Y-121453385D01*
X162594891Y-121451519D01*
X162533934Y-121448792D01*
X162475747Y-121445330D01*
X162423709Y-121441263D01*
X162381196Y-121436718D01*
X162325583Y-121428078D01*
X162264815Y-121416093D01*
X162200967Y-121401336D01*
X162136113Y-121384379D01*
X162072327Y-121365797D01*
X162011683Y-121346161D01*
X161956254Y-121326046D01*
X161931144Y-121315987D01*
X161908115Y-121306023D01*
X161818057Y-121261666D01*
X161732777Y-121212134D01*
X161652305Y-121157473D01*
X161576671Y-121097730D01*
X161505907Y-121032951D01*
X161440041Y-120963184D01*
X161379106Y-120888473D01*
X161323130Y-120808867D01*
X161272144Y-120724410D01*
X161226179Y-120635151D01*
X161185265Y-120541135D01*
X161149432Y-120442409D01*
X161118710Y-120339019D01*
X161093131Y-120231012D01*
X161072723Y-120118435D01*
X161057518Y-120001333D01*
X161050538Y-119935188D01*
X161782051Y-119935188D01*
X161793618Y-119980167D01*
X161806763Y-120028580D01*
X161820850Y-120075276D01*
X161835873Y-120120241D01*
X161851823Y-120163459D01*
X161868692Y-120204916D01*
X161886471Y-120244599D01*
X161905153Y-120282491D01*
X161924728Y-120318579D01*
X161945189Y-120352849D01*
X161966528Y-120385285D01*
X161988736Y-120415874D01*
X162011805Y-120444601D01*
X162035726Y-120471451D01*
X162060492Y-120496410D01*
X162086095Y-120519464D01*
X162112526Y-120540597D01*
X162140036Y-120560520D01*
X162153453Y-120569626D01*
X162166790Y-120578231D01*
X162180154Y-120586388D01*
X162193652Y-120594150D01*
X162207392Y-120601571D01*
X162221482Y-120608702D01*
X162236030Y-120615596D01*
X162251144Y-120622307D01*
X162266930Y-120628887D01*
X162283498Y-120635388D01*
X162319407Y-120648368D01*
X162359734Y-120661668D01*
X162390125Y-120671057D01*
X162416430Y-120678280D01*
X162428837Y-120681166D01*
X162441167Y-120683616D01*
X162453735Y-120685666D01*
X162466857Y-120687350D01*
X162480846Y-120688703D01*
X162496019Y-120689762D01*
X162531172Y-120691136D01*
X162574837Y-120691753D01*
X162629534Y-120691896D01*
X162666701Y-120691658D01*
X162701465Y-120690909D01*
X162734063Y-120689600D01*
X162764732Y-120687680D01*
X162793708Y-120685099D01*
X162821228Y-120681807D01*
X162847529Y-120677754D01*
X162872847Y-120672888D01*
X162897419Y-120667161D01*
X162921483Y-120660521D01*
X162945273Y-120652919D01*
X162969029Y-120644303D01*
X162992985Y-120634625D01*
X163017379Y-120623834D01*
X163042447Y-120611878D01*
X163068427Y-120598709D01*
X163102565Y-120579459D01*
X163136344Y-120557472D01*
X163169647Y-120532894D01*
X163202357Y-120505875D01*
X163234356Y-120476563D01*
X163265527Y-120445106D01*
X163295754Y-120411653D01*
X163324918Y-120376352D01*
X163352902Y-120339351D01*
X163379590Y-120300800D01*
X163404863Y-120260845D01*
X163428605Y-120219636D01*
X163450698Y-120177322D01*
X163471025Y-120134049D01*
X163489469Y-120089967D01*
X163505912Y-120045225D01*
X163532936Y-119961525D01*
X163555081Y-119881541D01*
X163564449Y-119842049D01*
X163572749Y-119802414D01*
X163580029Y-119762278D01*
X163586342Y-119721284D01*
X163591736Y-119679074D01*
X163596262Y-119635291D01*
X163602913Y-119541575D01*
X163606697Y-119437278D01*
X163608016Y-119319538D01*
X163608248Y-119265214D01*
X163608727Y-119215024D01*
X163609424Y-119170031D01*
X163610310Y-119131298D01*
X163611356Y-119099890D01*
X163612531Y-119076870D01*
X163613159Y-119068837D01*
X163613808Y-119063301D01*
X163614475Y-119060393D01*
X163614814Y-119059966D01*
X163615156Y-119060246D01*
G36*
X161655294Y-121972973D02*
G01*
X161698950Y-121973850D01*
X161743211Y-121975217D01*
X161786786Y-121977013D01*
X161828382Y-121979178D01*
X161866708Y-121981652D01*
X161900474Y-121984374D01*
X161928387Y-121987286D01*
X162047450Y-122001763D01*
X162047450Y-122487183D01*
X162047451Y-122972603D01*
X161931033Y-122972603D01*
X161931033Y-122106068D01*
X161880762Y-122097702D01*
X161866668Y-122096016D01*
X161845794Y-122094435D01*
X161787744Y-122091728D01*
X161714688Y-122089861D01*
X161634700Y-122089116D01*
X161573070Y-122089154D01*
X161547505Y-122089305D01*
X161525042Y-122089583D01*
X161505382Y-122090020D01*
X161488226Y-122090644D01*
X161473277Y-122091487D01*
X161460235Y-122092577D01*
X161448803Y-122093945D01*
X161443597Y-122094742D01*
X161438681Y-122095620D01*
X161434019Y-122096583D01*
X161429572Y-122097633D01*
X161425304Y-122098776D01*
X161421176Y-122100014D01*
X161413196Y-122102793D01*
X161405332Y-122105999D01*
X161397287Y-122109663D01*
X161388762Y-122113815D01*
X161376951Y-122120003D01*
X161365667Y-122126575D01*
X161354890Y-122133552D01*
X161344604Y-122140955D01*
X161334790Y-122148804D01*
X161325429Y-122157121D01*
X161316504Y-122165926D01*
X161307997Y-122175241D01*
X161299889Y-122185085D01*
X161292163Y-122195481D01*
X161284800Y-122206448D01*
X161277782Y-122218008D01*
X161271092Y-122230181D01*
X161264711Y-122242989D01*
X161258620Y-122256452D01*
X161252803Y-122270590D01*
X161245157Y-122291344D01*
X161239238Y-122312287D01*
X161234764Y-122337180D01*
X161231453Y-122369780D01*
X161229026Y-122413849D01*
X161227199Y-122473145D01*
X161224225Y-122652458D01*
X161219882Y-122972604D01*
X161105533Y-122972604D01*
X161105613Y-122715958D01*
X161105909Y-122641215D01*
X161106806Y-122573236D01*
X161108395Y-122511577D01*
X161110763Y-122455794D01*
X161114000Y-122405440D01*
X161118196Y-122360071D01*
X161123439Y-122319242D01*
X161126481Y-122300392D01*
X161129819Y-122282509D01*
X161133463Y-122265539D01*
X161137424Y-122249426D01*
X161141714Y-122234114D01*
X161146344Y-122219548D01*
X161151325Y-122205672D01*
X161156668Y-122192431D01*
X161162384Y-122179769D01*
X161168484Y-122167629D01*
X161174980Y-122155958D01*
X161181883Y-122144698D01*
X161189204Y-122133795D01*
X161196953Y-122123193D01*
X161205143Y-122112836D01*
X161213783Y-122102668D01*
X161232463Y-122082680D01*
X161239979Y-122075216D01*
X161247454Y-122068080D01*
X161254900Y-122061262D01*
X161262329Y-122054755D01*
X161269753Y-122048551D01*
X161277182Y-122042642D01*
X161284629Y-122037020D01*
X161292104Y-122031676D01*
X161299620Y-122026604D01*
X161307187Y-122021794D01*
X161314818Y-122017240D01*
X161322523Y-122012932D01*
X161330314Y-122008864D01*
X161338203Y-122005026D01*
X161346201Y-122001412D01*
X161354319Y-121998013D01*
X161374949Y-121990079D01*
X161394097Y-121983980D01*
X161403872Y-121981545D01*
X161414185Y-121979479D01*
X161425339Y-121977754D01*
X161437637Y-121976339D01*
X161466874Y-121974322D01*
X161504321Y-121973192D01*
X161552400Y-121972712D01*
X161613533Y-121972644D01*
X161655294Y-121972973D01*
G37*
X161655294Y-121972973D02*
X161698950Y-121973850D01*
X161743211Y-121975217D01*
X161786786Y-121977013D01*
X161828382Y-121979178D01*
X161866708Y-121981652D01*
X161900474Y-121984374D01*
X161928387Y-121987286D01*
X162047450Y-122001763D01*
X162047450Y-122487183D01*
X162047451Y-122972603D01*
X161931033Y-122972603D01*
X161931033Y-122106068D01*
X161880762Y-122097702D01*
X161866668Y-122096016D01*
X161845794Y-122094435D01*
X161787744Y-122091728D01*
X161714688Y-122089861D01*
X161634700Y-122089116D01*
X161573070Y-122089154D01*
X161547505Y-122089305D01*
X161525042Y-122089583D01*
X161505382Y-122090020D01*
X161488226Y-122090644D01*
X161473277Y-122091487D01*
X161460235Y-122092577D01*
X161448803Y-122093945D01*
X161443597Y-122094742D01*
X161438681Y-122095620D01*
X161434019Y-122096583D01*
X161429572Y-122097633D01*
X161425304Y-122098776D01*
X161421176Y-122100014D01*
X161413196Y-122102793D01*
X161405332Y-122105999D01*
X161397287Y-122109663D01*
X161388762Y-122113815D01*
X161376951Y-122120003D01*
X161365667Y-122126575D01*
X161354890Y-122133552D01*
X161344604Y-122140955D01*
X161334790Y-122148804D01*
X161325429Y-122157121D01*
X161316504Y-122165926D01*
X161307997Y-122175241D01*
X161299889Y-122185085D01*
X161292163Y-122195481D01*
X161284800Y-122206448D01*
X161277782Y-122218008D01*
X161271092Y-122230181D01*
X161264711Y-122242989D01*
X161258620Y-122256452D01*
X161252803Y-122270590D01*
X161245157Y-122291344D01*
X161239238Y-122312287D01*
X161234764Y-122337180D01*
X161231453Y-122369780D01*
X161229026Y-122413849D01*
X161227199Y-122473145D01*
X161224225Y-122652458D01*
X161219882Y-122972604D01*
X161105533Y-122972604D01*
X161105613Y-122715958D01*
X161105909Y-122641215D01*
X161106806Y-122573236D01*
X161108395Y-122511577D01*
X161110763Y-122455794D01*
X161114000Y-122405440D01*
X161118196Y-122360071D01*
X161123439Y-122319242D01*
X161126481Y-122300392D01*
X161129819Y-122282509D01*
X161133463Y-122265539D01*
X161137424Y-122249426D01*
X161141714Y-122234114D01*
X161146344Y-122219548D01*
X161151325Y-122205672D01*
X161156668Y-122192431D01*
X161162384Y-122179769D01*
X161168484Y-122167629D01*
X161174980Y-122155958D01*
X161181883Y-122144698D01*
X161189204Y-122133795D01*
X161196953Y-122123193D01*
X161205143Y-122112836D01*
X161213783Y-122102668D01*
X161232463Y-122082680D01*
X161239979Y-122075216D01*
X161247454Y-122068080D01*
X161254900Y-122061262D01*
X161262329Y-122054755D01*
X161269753Y-122048551D01*
X161277182Y-122042642D01*
X161284629Y-122037020D01*
X161292104Y-122031676D01*
X161299620Y-122026604D01*
X161307187Y-122021794D01*
X161314818Y-122017240D01*
X161322523Y-122012932D01*
X161330314Y-122008864D01*
X161338203Y-122005026D01*
X161346201Y-122001412D01*
X161354319Y-121998013D01*
X161374949Y-121990079D01*
X161394097Y-121983980D01*
X161403872Y-121981545D01*
X161414185Y-121979479D01*
X161425339Y-121977754D01*
X161437637Y-121976339D01*
X161466874Y-121974322D01*
X161504321Y-121973192D01*
X161552400Y-121972712D01*
X161613533Y-121972644D01*
X161655294Y-121972973D01*
G36*
X165866555Y-122422271D02*
G01*
X165867240Y-122437169D01*
X165867720Y-122469896D01*
X165866241Y-122524849D01*
X165864389Y-122551153D01*
X165861794Y-122576677D01*
X165858454Y-122601423D01*
X165854368Y-122625394D01*
X165849535Y-122648591D01*
X165843954Y-122671016D01*
X165837622Y-122692671D01*
X165830539Y-122713557D01*
X165822702Y-122733677D01*
X165814112Y-122753033D01*
X165804765Y-122771625D01*
X165794662Y-122789457D01*
X165783800Y-122806529D01*
X165772178Y-122822844D01*
X165759795Y-122838404D01*
X165746649Y-122853210D01*
X165732739Y-122867265D01*
X165718063Y-122880570D01*
X165702621Y-122893127D01*
X165686410Y-122904938D01*
X165669430Y-122916004D01*
X165651678Y-122926328D01*
X165633155Y-122935912D01*
X165613857Y-122944756D01*
X165593784Y-122952864D01*
X165572934Y-122960237D01*
X165551307Y-122966877D01*
X165528900Y-122972786D01*
X165505712Y-122977965D01*
X165481742Y-122982416D01*
X165481742Y-122982417D01*
X165453769Y-122986427D01*
X165424090Y-122989318D01*
X165392357Y-122991091D01*
X165358221Y-122991747D01*
X165321336Y-122991286D01*
X165281352Y-122989711D01*
X165237923Y-122987021D01*
X165190700Y-122983217D01*
X165126931Y-122977482D01*
X165074511Y-122972549D01*
X165032372Y-122968289D01*
X164999444Y-122964573D01*
X164986101Y-122962878D01*
X164974661Y-122961270D01*
X164964988Y-122959732D01*
X164956952Y-122958250D01*
X164950416Y-122956805D01*
X164945249Y-122955383D01*
X164941316Y-122953967D01*
X164938484Y-122952540D01*
X164937096Y-122951440D01*
X164935847Y-122949947D01*
X164934738Y-122948063D01*
X164933769Y-122945792D01*
X164932941Y-122943137D01*
X164932254Y-122940101D01*
X164931707Y-122936689D01*
X164931303Y-122932902D01*
X164931039Y-122928746D01*
X164930918Y-122924222D01*
X164930939Y-122919335D01*
X164931103Y-122914088D01*
X164931409Y-122908484D01*
X164931859Y-122902527D01*
X164933188Y-122889566D01*
X164934180Y-122881538D01*
X164935166Y-122874315D01*
X164936161Y-122867865D01*
X164936667Y-122864920D01*
X164937180Y-122862157D01*
X164937703Y-122859573D01*
X164938237Y-122857162D01*
X164938784Y-122854921D01*
X164939346Y-122852847D01*
X164939926Y-122850936D01*
X164940524Y-122849183D01*
X164941142Y-122847585D01*
X164941783Y-122846138D01*
X164942448Y-122844838D01*
X164943139Y-122843682D01*
X164943858Y-122842665D01*
X164944607Y-122841783D01*
X164945387Y-122841034D01*
X164946200Y-122840412D01*
X164947049Y-122839914D01*
X164947935Y-122839536D01*
X164948859Y-122839275D01*
X164949824Y-122839127D01*
X164950832Y-122839087D01*
X164951884Y-122839151D01*
X164952982Y-122839317D01*
X164954129Y-122839580D01*
X164955325Y-122839936D01*
X164956572Y-122840382D01*
X164963082Y-122842009D01*
X164975217Y-122844172D01*
X165013567Y-122849728D01*
X165066030Y-122856302D01*
X165127013Y-122863147D01*
X165189670Y-122869055D01*
X165248102Y-122872979D01*
X165275781Y-122874183D01*
X165302461Y-122874874D01*
X165328161Y-122875048D01*
X165352900Y-122874697D01*
X165376698Y-122873818D01*
X165399572Y-122872403D01*
X165421543Y-122870449D01*
X165442629Y-122867948D01*
X165462849Y-122864897D01*
X165482223Y-122861288D01*
X165500769Y-122857118D01*
X165518507Y-122852379D01*
X165535455Y-122847067D01*
X165551633Y-122841176D01*
X165567060Y-122834701D01*
X165581755Y-122827636D01*
X165595736Y-122819975D01*
X165609024Y-122811713D01*
X165621636Y-122802845D01*
X165633593Y-122793365D01*
X165644912Y-122783267D01*
X165655614Y-122772546D01*
X165665717Y-122761196D01*
X165675240Y-122749213D01*
X165684203Y-122736589D01*
X165692624Y-122723321D01*
X165700522Y-122709402D01*
X165707917Y-122694826D01*
X165714435Y-122680614D01*
X165720788Y-122665580D01*
X165726818Y-122650181D01*
X165732366Y-122634873D01*
X165737274Y-122620112D01*
X165741383Y-122606353D01*
X165744534Y-122594053D01*
X165745701Y-122588592D01*
X165746569Y-122583667D01*
X165753477Y-122538687D01*
X164891637Y-122538687D01*
X164898704Y-122440791D01*
X164900170Y-122422271D01*
X165009101Y-122422271D01*
X165754321Y-122422271D01*
X165747379Y-122377292D01*
X165742735Y-122351267D01*
X165737029Y-122326489D01*
X165730262Y-122302959D01*
X165722432Y-122280673D01*
X165718118Y-122269997D01*
X165713538Y-122259633D01*
X165708691Y-122249578D01*
X165703579Y-122239835D01*
X165698200Y-122230402D01*
X165692554Y-122221279D01*
X165686642Y-122212467D01*
X165680463Y-122203965D01*
X165674018Y-122195773D01*
X165667305Y-122187890D01*
X165660326Y-122180318D01*
X165653079Y-122173054D01*
X165645565Y-122166101D01*
X165637783Y-122159456D01*
X165629735Y-122153121D01*
X165621418Y-122147094D01*
X165612834Y-122141376D01*
X165603982Y-122135967D01*
X165594862Y-122130867D01*
X165585475Y-122126075D01*
X165575819Y-122121591D01*
X165565894Y-122117416D01*
X165555702Y-122113548D01*
X165545241Y-122109988D01*
X165530154Y-122105768D01*
X165512813Y-122102017D01*
X165493544Y-122098742D01*
X165472672Y-122095951D01*
X165450526Y-122093650D01*
X165427431Y-122091848D01*
X165403714Y-122090550D01*
X165379701Y-122089764D01*
X165355720Y-122089498D01*
X165332095Y-122089758D01*
X165309155Y-122090552D01*
X165287226Y-122091887D01*
X165266633Y-122093769D01*
X165247704Y-122096207D01*
X165230765Y-122099206D01*
X165216143Y-122102775D01*
X165198303Y-122108679D01*
X165181036Y-122115894D01*
X165164394Y-122124360D01*
X165148426Y-122134019D01*
X165133183Y-122144813D01*
X165118715Y-122156684D01*
X165105073Y-122169573D01*
X165092306Y-122183421D01*
X165080466Y-122198170D01*
X165069602Y-122213761D01*
X165059764Y-122230137D01*
X165051004Y-122247238D01*
X165043371Y-122265006D01*
X165036916Y-122283383D01*
X165031688Y-122302310D01*
X165027739Y-122321729D01*
X165024528Y-122340463D01*
X165021032Y-122360176D01*
X165017672Y-122378526D01*
X165014872Y-122393167D01*
X165009101Y-122422271D01*
X164900170Y-122422271D01*
X164900355Y-122419938D01*
X164902342Y-122398187D01*
X164904589Y-122376179D01*
X164907022Y-122354553D01*
X164909564Y-122333951D01*
X164912140Y-122315013D01*
X164914675Y-122298378D01*
X164917093Y-122284687D01*
X164922648Y-122259916D01*
X164929524Y-122235840D01*
X164937684Y-122212505D01*
X164947091Y-122189959D01*
X164957707Y-122168248D01*
X164969494Y-122147421D01*
X164982416Y-122127523D01*
X164996435Y-122108604D01*
X165011515Y-122090709D01*
X165027616Y-122073886D01*
X165044703Y-122058182D01*
X165062738Y-122043645D01*
X165081683Y-122030321D01*
X165101502Y-122018258D01*
X165122157Y-122007503D01*
X165143610Y-121998104D01*
X165163478Y-121990582D01*
X165172812Y-121987452D01*
X165182043Y-121984708D01*
X165191391Y-121982327D01*
X165201078Y-121980282D01*
X165211326Y-121978547D01*
X165222355Y-121977098D01*
X165234389Y-121975909D01*
X165247647Y-121974955D01*
X165278724Y-121973650D01*
X165317359Y-121972980D01*
X165365325Y-121972741D01*
X165402675Y-121972925D01*
X165436913Y-121973661D01*
X165468306Y-121975031D01*
X165497121Y-121977117D01*
X165523628Y-121980004D01*
X165548092Y-121983772D01*
X165570781Y-121988504D01*
X165581544Y-121991258D01*
X165591964Y-121994284D01*
X165602074Y-121997593D01*
X165611907Y-122001194D01*
X165621497Y-122005098D01*
X165630878Y-122009315D01*
X165640083Y-122013856D01*
X165649145Y-122018731D01*
X165658098Y-122023951D01*
X165666975Y-122029525D01*
X165684636Y-122041778D01*
X165702395Y-122055574D01*
X165720520Y-122070995D01*
X165739279Y-122088123D01*
X165755157Y-122104021D01*
X165769949Y-122120860D01*
X165783662Y-122138666D01*
X165796305Y-122157465D01*
X165807887Y-122177283D01*
X165818416Y-122198146D01*
X165827901Y-122220079D01*
X165836351Y-122243108D01*
X165843774Y-122267259D01*
X165850179Y-122292557D01*
X165855575Y-122319029D01*
X165859971Y-122346701D01*
X165863374Y-122375597D01*
X165865795Y-122405745D01*
X165866555Y-122422271D01*
G37*
X165866555Y-122422271D02*
X165867240Y-122437169D01*
X165867720Y-122469896D01*
X165866241Y-122524849D01*
X165864389Y-122551153D01*
X165861794Y-122576677D01*
X165858454Y-122601423D01*
X165854368Y-122625394D01*
X165849535Y-122648591D01*
X165843954Y-122671016D01*
X165837622Y-122692671D01*
X165830539Y-122713557D01*
X165822702Y-122733677D01*
X165814112Y-122753033D01*
X165804765Y-122771625D01*
X165794662Y-122789457D01*
X165783800Y-122806529D01*
X165772178Y-122822844D01*
X165759795Y-122838404D01*
X165746649Y-122853210D01*
X165732739Y-122867265D01*
X165718063Y-122880570D01*
X165702621Y-122893127D01*
X165686410Y-122904938D01*
X165669430Y-122916004D01*
X165651678Y-122926328D01*
X165633155Y-122935912D01*
X165613857Y-122944756D01*
X165593784Y-122952864D01*
X165572934Y-122960237D01*
X165551307Y-122966877D01*
X165528900Y-122972786D01*
X165505712Y-122977965D01*
X165481742Y-122982416D01*
X165481742Y-122982417D01*
X165453769Y-122986427D01*
X165424090Y-122989318D01*
X165392357Y-122991091D01*
X165358221Y-122991747D01*
X165321336Y-122991286D01*
X165281352Y-122989711D01*
X165237923Y-122987021D01*
X165190700Y-122983217D01*
X165126931Y-122977482D01*
X165074511Y-122972549D01*
X165032372Y-122968289D01*
X164999444Y-122964573D01*
X164986101Y-122962878D01*
X164974661Y-122961270D01*
X164964988Y-122959732D01*
X164956952Y-122958250D01*
X164950416Y-122956805D01*
X164945249Y-122955383D01*
X164941316Y-122953967D01*
X164938484Y-122952540D01*
X164937096Y-122951440D01*
X164935847Y-122949947D01*
X164934738Y-122948063D01*
X164933769Y-122945792D01*
X164932941Y-122943137D01*
X164932254Y-122940101D01*
X164931707Y-122936689D01*
X164931303Y-122932902D01*
X164931039Y-122928746D01*
X164930918Y-122924222D01*
X164930939Y-122919335D01*
X164931103Y-122914088D01*
X164931409Y-122908484D01*
X164931859Y-122902527D01*
X164933188Y-122889566D01*
X164934180Y-122881538D01*
X164935166Y-122874315D01*
X164936161Y-122867865D01*
X164936667Y-122864920D01*
X164937180Y-122862157D01*
X164937703Y-122859573D01*
X164938237Y-122857162D01*
X164938784Y-122854921D01*
X164939346Y-122852847D01*
X164939926Y-122850936D01*
X164940524Y-122849183D01*
X164941142Y-122847585D01*
X164941783Y-122846138D01*
X164942448Y-122844838D01*
X164943139Y-122843682D01*
X164943858Y-122842665D01*
X164944607Y-122841783D01*
X164945387Y-122841034D01*
X164946200Y-122840412D01*
X164947049Y-122839914D01*
X164947935Y-122839536D01*
X164948859Y-122839275D01*
X164949824Y-122839127D01*
X164950832Y-122839087D01*
X164951884Y-122839151D01*
X164952982Y-122839317D01*
X164954129Y-122839580D01*
X164955325Y-122839936D01*
X164956572Y-122840382D01*
X164963082Y-122842009D01*
X164975217Y-122844172D01*
X165013567Y-122849728D01*
X165066030Y-122856302D01*
X165127013Y-122863147D01*
X165189670Y-122869055D01*
X165248102Y-122872979D01*
X165275781Y-122874183D01*
X165302461Y-122874874D01*
X165328161Y-122875048D01*
X165352900Y-122874697D01*
X165376698Y-122873818D01*
X165399572Y-122872403D01*
X165421543Y-122870449D01*
X165442629Y-122867948D01*
X165462849Y-122864897D01*
X165482223Y-122861288D01*
X165500769Y-122857118D01*
X165518507Y-122852379D01*
X165535455Y-122847067D01*
X165551633Y-122841176D01*
X165567060Y-122834701D01*
X165581755Y-122827636D01*
X165595736Y-122819975D01*
X165609024Y-122811713D01*
X165621636Y-122802845D01*
X165633593Y-122793365D01*
X165644912Y-122783267D01*
X165655614Y-122772546D01*
X165665717Y-122761196D01*
X165675240Y-122749213D01*
X165684203Y-122736589D01*
X165692624Y-122723321D01*
X165700522Y-122709402D01*
X165707917Y-122694826D01*
X165714435Y-122680614D01*
X165720788Y-122665580D01*
X165726818Y-122650181D01*
X165732366Y-122634873D01*
X165737274Y-122620112D01*
X165741383Y-122606353D01*
X165744534Y-122594053D01*
X165745701Y-122588592D01*
X165746569Y-122583667D01*
X165753477Y-122538687D01*
X164891637Y-122538687D01*
X164898704Y-122440791D01*
X164900170Y-122422271D01*
X165009101Y-122422271D01*
X165754321Y-122422271D01*
X165747379Y-122377292D01*
X165742735Y-122351267D01*
X165737029Y-122326489D01*
X165730262Y-122302959D01*
X165722432Y-122280673D01*
X165718118Y-122269997D01*
X165713538Y-122259633D01*
X165708691Y-122249578D01*
X165703579Y-122239835D01*
X165698200Y-122230402D01*
X165692554Y-122221279D01*
X165686642Y-122212467D01*
X165680463Y-122203965D01*
X165674018Y-122195773D01*
X165667305Y-122187890D01*
X165660326Y-122180318D01*
X165653079Y-122173054D01*
X165645565Y-122166101D01*
X165637783Y-122159456D01*
X165629735Y-122153121D01*
X165621418Y-122147094D01*
X165612834Y-122141376D01*
X165603982Y-122135967D01*
X165594862Y-122130867D01*
X165585475Y-122126075D01*
X165575819Y-122121591D01*
X165565894Y-122117416D01*
X165555702Y-122113548D01*
X165545241Y-122109988D01*
X165530154Y-122105768D01*
X165512813Y-122102017D01*
X165493544Y-122098742D01*
X165472672Y-122095951D01*
X165450526Y-122093650D01*
X165427431Y-122091848D01*
X165403714Y-122090550D01*
X165379701Y-122089764D01*
X165355720Y-122089498D01*
X165332095Y-122089758D01*
X165309155Y-122090552D01*
X165287226Y-122091887D01*
X165266633Y-122093769D01*
X165247704Y-122096207D01*
X165230765Y-122099206D01*
X165216143Y-122102775D01*
X165198303Y-122108679D01*
X165181036Y-122115894D01*
X165164394Y-122124360D01*
X165148426Y-122134019D01*
X165133183Y-122144813D01*
X165118715Y-122156684D01*
X165105073Y-122169573D01*
X165092306Y-122183421D01*
X165080466Y-122198170D01*
X165069602Y-122213761D01*
X165059764Y-122230137D01*
X165051004Y-122247238D01*
X165043371Y-122265006D01*
X165036916Y-122283383D01*
X165031688Y-122302310D01*
X165027739Y-122321729D01*
X165024528Y-122340463D01*
X165021032Y-122360176D01*
X165017672Y-122378526D01*
X165014872Y-122393167D01*
X165009101Y-122422271D01*
X164900170Y-122422271D01*
X164900355Y-122419938D01*
X164902342Y-122398187D01*
X164904589Y-122376179D01*
X164907022Y-122354553D01*
X164909564Y-122333951D01*
X164912140Y-122315013D01*
X164914675Y-122298378D01*
X164917093Y-122284687D01*
X164922648Y-122259916D01*
X164929524Y-122235840D01*
X164937684Y-122212505D01*
X164947091Y-122189959D01*
X164957707Y-122168248D01*
X164969494Y-122147421D01*
X164982416Y-122127523D01*
X164996435Y-122108604D01*
X165011515Y-122090709D01*
X165027616Y-122073886D01*
X165044703Y-122058182D01*
X165062738Y-122043645D01*
X165081683Y-122030321D01*
X165101502Y-122018258D01*
X165122157Y-122007503D01*
X165143610Y-121998104D01*
X165163478Y-121990582D01*
X165172812Y-121987452D01*
X165182043Y-121984708D01*
X165191391Y-121982327D01*
X165201078Y-121980282D01*
X165211326Y-121978547D01*
X165222355Y-121977098D01*
X165234389Y-121975909D01*
X165247647Y-121974955D01*
X165278724Y-121973650D01*
X165317359Y-121972980D01*
X165365325Y-121972741D01*
X165402675Y-121972925D01*
X165436913Y-121973661D01*
X165468306Y-121975031D01*
X165497121Y-121977117D01*
X165523628Y-121980004D01*
X165548092Y-121983772D01*
X165570781Y-121988504D01*
X165581544Y-121991258D01*
X165591964Y-121994284D01*
X165602074Y-121997593D01*
X165611907Y-122001194D01*
X165621497Y-122005098D01*
X165630878Y-122009315D01*
X165640083Y-122013856D01*
X165649145Y-122018731D01*
X165658098Y-122023951D01*
X165666975Y-122029525D01*
X165684636Y-122041778D01*
X165702395Y-122055574D01*
X165720520Y-122070995D01*
X165739279Y-122088123D01*
X165755157Y-122104021D01*
X165769949Y-122120860D01*
X165783662Y-122138666D01*
X165796305Y-122157465D01*
X165807887Y-122177283D01*
X165818416Y-122198146D01*
X165827901Y-122220079D01*
X165836351Y-122243108D01*
X165843774Y-122267259D01*
X165850179Y-122292557D01*
X165855575Y-122319029D01*
X165859971Y-122346701D01*
X165863374Y-122375597D01*
X165865795Y-122405745D01*
X165866555Y-122422271D01*
G36*
X164304896Y-121973363D02*
G01*
X164370729Y-121975769D01*
X164423186Y-121979927D01*
X164442698Y-121982668D01*
X164456823Y-121985852D01*
X164470482Y-121990383D01*
X164484003Y-121995615D01*
X164497332Y-122001506D01*
X164510417Y-122008014D01*
X164523203Y-122015097D01*
X164535635Y-122022714D01*
X164547660Y-122030823D01*
X164559224Y-122039381D01*
X164570272Y-122048347D01*
X164580751Y-122057679D01*
X164590607Y-122067335D01*
X164599785Y-122077273D01*
X164608232Y-122087451D01*
X164615893Y-122097828D01*
X164622715Y-122108362D01*
X164628643Y-122119010D01*
X164632430Y-122126611D01*
X164635853Y-122133915D01*
X164638929Y-122141005D01*
X164641674Y-122147964D01*
X164644104Y-122154875D01*
X164646235Y-122161819D01*
X164648084Y-122168880D01*
X164649668Y-122176140D01*
X164651001Y-122183682D01*
X164652102Y-122191588D01*
X164652985Y-122199941D01*
X164653667Y-122208824D01*
X164654164Y-122218319D01*
X164654494Y-122228508D01*
X164654712Y-122251302D01*
X164653726Y-122282004D01*
X164650732Y-122310193D01*
X164645523Y-122336025D01*
X164642022Y-122348107D01*
X164637887Y-122359657D01*
X164633094Y-122370695D01*
X164627615Y-122381242D01*
X164621425Y-122391316D01*
X164614497Y-122400937D01*
X164606804Y-122410124D01*
X164598322Y-122418897D01*
X164589022Y-122427275D01*
X164578880Y-122435277D01*
X164567868Y-122442923D01*
X164555961Y-122450233D01*
X164529356Y-122463920D01*
X164498853Y-122476494D01*
X164464244Y-122488110D01*
X164425317Y-122498923D01*
X164381863Y-122509089D01*
X164333672Y-122518763D01*
X164280533Y-122528101D01*
X164238643Y-122535222D01*
X164200813Y-122542080D01*
X164166819Y-122548775D01*
X164136443Y-122555406D01*
X164122542Y-122558729D01*
X164109462Y-122562074D01*
X164097175Y-122565452D01*
X164085654Y-122568876D01*
X164074872Y-122572360D01*
X164064800Y-122575914D01*
X164055410Y-122579552D01*
X164046676Y-122583286D01*
X164038570Y-122587129D01*
X164031063Y-122591092D01*
X164024129Y-122595190D01*
X164017739Y-122599432D01*
X164011866Y-122603834D01*
X164006482Y-122608406D01*
X164001559Y-122613161D01*
X163997071Y-122618112D01*
X163992989Y-122623271D01*
X163989285Y-122628650D01*
X163985932Y-122634263D01*
X163982903Y-122640120D01*
X163980169Y-122646236D01*
X163977703Y-122652622D01*
X163975477Y-122659291D01*
X163973464Y-122666255D01*
X163971110Y-122675901D01*
X163969290Y-122685368D01*
X163967999Y-122694653D01*
X163967234Y-122703752D01*
X163966991Y-122712662D01*
X163967269Y-122721377D01*
X163968062Y-122729896D01*
X163969368Y-122738212D01*
X163971184Y-122746324D01*
X163973506Y-122754226D01*
X163976331Y-122761916D01*
X163979656Y-122769388D01*
X163983477Y-122776640D01*
X163987790Y-122783667D01*
X163992594Y-122790465D01*
X163997883Y-122797031D01*
X164003656Y-122803361D01*
X164009908Y-122809451D01*
X164016637Y-122815296D01*
X164023839Y-122820894D01*
X164031510Y-122826240D01*
X164039648Y-122831331D01*
X164048248Y-122836162D01*
X164057309Y-122840729D01*
X164066826Y-122845030D01*
X164076796Y-122849059D01*
X164087216Y-122852813D01*
X164098082Y-122856289D01*
X164121140Y-122862388D01*
X164145945Y-122867325D01*
X164167757Y-122870308D01*
X164193005Y-122872530D01*
X164221175Y-122874021D01*
X164251753Y-122874810D01*
X164318077Y-122874399D01*
X164387868Y-122871532D01*
X164457016Y-122866445D01*
X164521411Y-122859374D01*
X164550542Y-122855167D01*
X164576944Y-122850552D01*
X164600102Y-122845559D01*
X164619503Y-122840217D01*
X164622420Y-122839392D01*
X164625076Y-122838879D01*
X164627491Y-122838707D01*
X164628614Y-122838760D01*
X164629685Y-122838910D01*
X164630705Y-122839162D01*
X164631678Y-122839519D01*
X164632606Y-122839985D01*
X164633491Y-122840565D01*
X164634337Y-122841262D01*
X164635144Y-122842080D01*
X164635916Y-122843023D01*
X164636656Y-122844095D01*
X164638048Y-122846643D01*
X164639341Y-122849754D01*
X164640553Y-122853461D01*
X164641705Y-122857794D01*
X164642818Y-122862787D01*
X164643911Y-122868469D01*
X164645005Y-122874874D01*
X164646119Y-122882032D01*
X164646823Y-122886996D01*
X164647450Y-122891969D01*
X164647999Y-122896920D01*
X164648469Y-122901817D01*
X164649171Y-122911320D01*
X164649401Y-122915861D01*
X164649550Y-122920219D01*
X164649615Y-122924363D01*
X164649598Y-122928260D01*
X164649496Y-122931877D01*
X164649309Y-122935184D01*
X164649036Y-122938147D01*
X164648676Y-122940735D01*
X164648229Y-122942915D01*
X164647694Y-122944656D01*
X164646539Y-122946554D01*
X164644536Y-122948409D01*
X164641665Y-122950226D01*
X164637907Y-122952008D01*
X164633245Y-122953759D01*
X164627659Y-122955484D01*
X164613641Y-122958869D01*
X164595702Y-122962195D01*
X164573694Y-122965493D01*
X164547465Y-122968794D01*
X164516866Y-122972131D01*
X164466998Y-122977363D01*
X164423775Y-122982125D01*
X164391827Y-122985892D01*
X164381528Y-122987238D01*
X164375783Y-122988138D01*
X164375783Y-122988135D01*
X164366631Y-122989585D01*
X164355432Y-122990718D01*
X164327865Y-122992073D01*
X164295024Y-122992273D01*
X164258854Y-122991392D01*
X164221296Y-122989502D01*
X164184295Y-122986676D01*
X164149794Y-122982988D01*
X164119735Y-122978510D01*
X164092099Y-122972904D01*
X164065928Y-122966208D01*
X164041228Y-122958426D01*
X164029432Y-122954131D01*
X164018007Y-122949566D01*
X164006953Y-122944733D01*
X163996272Y-122939632D01*
X163985963Y-122934265D01*
X163976029Y-122928631D01*
X163966470Y-122922732D01*
X163957286Y-122916568D01*
X163948479Y-122910141D01*
X163940050Y-122903450D01*
X163931999Y-122896496D01*
X163924328Y-122889281D01*
X163917037Y-122881805D01*
X163910126Y-122874068D01*
X163903598Y-122866072D01*
X163897453Y-122857816D01*
X163891691Y-122849303D01*
X163886314Y-122840532D01*
X163881322Y-122831505D01*
X163876717Y-122822222D01*
X163872499Y-122812683D01*
X163868669Y-122802890D01*
X163865228Y-122792843D01*
X163862177Y-122782543D01*
X163859516Y-122771990D01*
X163857248Y-122761186D01*
X163855355Y-122750378D01*
X163853802Y-122739717D01*
X163852589Y-122729206D01*
X163851715Y-122718846D01*
X163851178Y-122708640D01*
X163850978Y-122698590D01*
X163851113Y-122688700D01*
X163851583Y-122678971D01*
X163852387Y-122669406D01*
X163853523Y-122660007D01*
X163854991Y-122650777D01*
X163856789Y-122641719D01*
X163858918Y-122632834D01*
X163861375Y-122624125D01*
X163864160Y-122615595D01*
X163867272Y-122607246D01*
X163870710Y-122599080D01*
X163874473Y-122591100D01*
X163878560Y-122583309D01*
X163882970Y-122575708D01*
X163887701Y-122568300D01*
X163892754Y-122561089D01*
X163898127Y-122554075D01*
X163903819Y-122547262D01*
X163909829Y-122540652D01*
X163916156Y-122534248D01*
X163922800Y-122528051D01*
X163929758Y-122522065D01*
X163937031Y-122516292D01*
X163944618Y-122510734D01*
X163952516Y-122505393D01*
X163960726Y-122500273D01*
X163985823Y-122486516D01*
X163999256Y-122480141D01*
X164013492Y-122474043D01*
X164028694Y-122468178D01*
X164045023Y-122462503D01*
X164081704Y-122451546D01*
X164124825Y-122440823D01*
X164175675Y-122429983D01*
X164235542Y-122418675D01*
X164305715Y-122406550D01*
X164334110Y-122401697D01*
X164359665Y-122397058D01*
X164382573Y-122392544D01*
X164403026Y-122388067D01*
X164412392Y-122385815D01*
X164421216Y-122383540D01*
X164429524Y-122381229D01*
X164437338Y-122378872D01*
X164444683Y-122376459D01*
X164451583Y-122373977D01*
X164458062Y-122371416D01*
X164464144Y-122368766D01*
X164469854Y-122366014D01*
X164475214Y-122363150D01*
X164480251Y-122360163D01*
X164484987Y-122357042D01*
X164489446Y-122353775D01*
X164493653Y-122350352D01*
X164497632Y-122346762D01*
X164501407Y-122342994D01*
X164505002Y-122339036D01*
X164508441Y-122334877D01*
X164511748Y-122330507D01*
X164514947Y-122325915D01*
X164518063Y-122321089D01*
X164521120Y-122316018D01*
X164527150Y-122305099D01*
X164530973Y-122297057D01*
X164534207Y-122288637D01*
X164536857Y-122279896D01*
X164538925Y-122270889D01*
X164540413Y-122261674D01*
X164541326Y-122252307D01*
X164541666Y-122242845D01*
X164541437Y-122233343D01*
X164540641Y-122223859D01*
X164539281Y-122214449D01*
X164537360Y-122205169D01*
X164534882Y-122196077D01*
X164531850Y-122187228D01*
X164528266Y-122178680D01*
X164524134Y-122170488D01*
X164519456Y-122162709D01*
X164512716Y-122153285D01*
X164505284Y-122144598D01*
X164497081Y-122136622D01*
X164488027Y-122129330D01*
X164478042Y-122122696D01*
X164467045Y-122116694D01*
X164454958Y-122111299D01*
X164441699Y-122106483D01*
X164427189Y-122102221D01*
X164411347Y-122098486D01*
X164394094Y-122095252D01*
X164375350Y-122092494D01*
X164355034Y-122090185D01*
X164333067Y-122088298D01*
X164309369Y-122086809D01*
X164283859Y-122085689D01*
X164240501Y-122084776D01*
X164196051Y-122085072D01*
X164150717Y-122086565D01*
X164104706Y-122089239D01*
X164058227Y-122093079D01*
X164011486Y-122098072D01*
X163964693Y-122104202D01*
X163918054Y-122111455D01*
X163878367Y-122118121D01*
X163878367Y-122001523D01*
X163965679Y-121987116D01*
X163989124Y-121983835D01*
X164016712Y-121980974D01*
X164081596Y-121976514D01*
X164154884Y-121973749D01*
X164231133Y-121972694D01*
X164304896Y-121973363D01*
G37*
X164304896Y-121973363D02*
X164370729Y-121975769D01*
X164423186Y-121979927D01*
X164442698Y-121982668D01*
X164456823Y-121985852D01*
X164470482Y-121990383D01*
X164484003Y-121995615D01*
X164497332Y-122001506D01*
X164510417Y-122008014D01*
X164523203Y-122015097D01*
X164535635Y-122022714D01*
X164547660Y-122030823D01*
X164559224Y-122039381D01*
X164570272Y-122048347D01*
X164580751Y-122057679D01*
X164590607Y-122067335D01*
X164599785Y-122077273D01*
X164608232Y-122087451D01*
X164615893Y-122097828D01*
X164622715Y-122108362D01*
X164628643Y-122119010D01*
X164632430Y-122126611D01*
X164635853Y-122133915D01*
X164638929Y-122141005D01*
X164641674Y-122147964D01*
X164644104Y-122154875D01*
X164646235Y-122161819D01*
X164648084Y-122168880D01*
X164649668Y-122176140D01*
X164651001Y-122183682D01*
X164652102Y-122191588D01*
X164652985Y-122199941D01*
X164653667Y-122208824D01*
X164654164Y-122218319D01*
X164654494Y-122228508D01*
X164654712Y-122251302D01*
X164653726Y-122282004D01*
X164650732Y-122310193D01*
X164645523Y-122336025D01*
X164642022Y-122348107D01*
X164637887Y-122359657D01*
X164633094Y-122370695D01*
X164627615Y-122381242D01*
X164621425Y-122391316D01*
X164614497Y-122400937D01*
X164606804Y-122410124D01*
X164598322Y-122418897D01*
X164589022Y-122427275D01*
X164578880Y-122435277D01*
X164567868Y-122442923D01*
X164555961Y-122450233D01*
X164529356Y-122463920D01*
X164498853Y-122476494D01*
X164464244Y-122488110D01*
X164425317Y-122498923D01*
X164381863Y-122509089D01*
X164333672Y-122518763D01*
X164280533Y-122528101D01*
X164238643Y-122535222D01*
X164200813Y-122542080D01*
X164166819Y-122548775D01*
X164136443Y-122555406D01*
X164122542Y-122558729D01*
X164109462Y-122562074D01*
X164097175Y-122565452D01*
X164085654Y-122568876D01*
X164074872Y-122572360D01*
X164064800Y-122575914D01*
X164055410Y-122579552D01*
X164046676Y-122583286D01*
X164038570Y-122587129D01*
X164031063Y-122591092D01*
X164024129Y-122595190D01*
X164017739Y-122599432D01*
X164011866Y-122603834D01*
X164006482Y-122608406D01*
X164001559Y-122613161D01*
X163997071Y-122618112D01*
X163992989Y-122623271D01*
X163989285Y-122628650D01*
X163985932Y-122634263D01*
X163982903Y-122640120D01*
X163980169Y-122646236D01*
X163977703Y-122652622D01*
X163975477Y-122659291D01*
X163973464Y-122666255D01*
X163971110Y-122675901D01*
X163969290Y-122685368D01*
X163967999Y-122694653D01*
X163967234Y-122703752D01*
X163966991Y-122712662D01*
X163967269Y-122721377D01*
X163968062Y-122729896D01*
X163969368Y-122738212D01*
X163971184Y-122746324D01*
X163973506Y-122754226D01*
X163976331Y-122761916D01*
X163979656Y-122769388D01*
X163983477Y-122776640D01*
X163987790Y-122783667D01*
X163992594Y-122790465D01*
X163997883Y-122797031D01*
X164003656Y-122803361D01*
X164009908Y-122809451D01*
X164016637Y-122815296D01*
X164023839Y-122820894D01*
X164031510Y-122826240D01*
X164039648Y-122831331D01*
X164048248Y-122836162D01*
X164057309Y-122840729D01*
X164066826Y-122845030D01*
X164076796Y-122849059D01*
X164087216Y-122852813D01*
X164098082Y-122856289D01*
X164121140Y-122862388D01*
X164145945Y-122867325D01*
X164167757Y-122870308D01*
X164193005Y-122872530D01*
X164221175Y-122874021D01*
X164251753Y-122874810D01*
X164318077Y-122874399D01*
X164387868Y-122871532D01*
X164457016Y-122866445D01*
X164521411Y-122859374D01*
X164550542Y-122855167D01*
X164576944Y-122850552D01*
X164600102Y-122845559D01*
X164619503Y-122840217D01*
X164622420Y-122839392D01*
X164625076Y-122838879D01*
X164627491Y-122838707D01*
X164628614Y-122838760D01*
X164629685Y-122838910D01*
X164630705Y-122839162D01*
X164631678Y-122839519D01*
X164632606Y-122839985D01*
X164633491Y-122840565D01*
X164634337Y-122841262D01*
X164635144Y-122842080D01*
X164635916Y-122843023D01*
X164636656Y-122844095D01*
X164638048Y-122846643D01*
X164639341Y-122849754D01*
X164640553Y-122853461D01*
X164641705Y-122857794D01*
X164642818Y-122862787D01*
X164643911Y-122868469D01*
X164645005Y-122874874D01*
X164646119Y-122882032D01*
X164646823Y-122886996D01*
X164647450Y-122891969D01*
X164647999Y-122896920D01*
X164648469Y-122901817D01*
X164649171Y-122911320D01*
X164649401Y-122915861D01*
X164649550Y-122920219D01*
X164649615Y-122924363D01*
X164649598Y-122928260D01*
X164649496Y-122931877D01*
X164649309Y-122935184D01*
X164649036Y-122938147D01*
X164648676Y-122940735D01*
X164648229Y-122942915D01*
X164647694Y-122944656D01*
X164646539Y-122946554D01*
X164644536Y-122948409D01*
X164641665Y-122950226D01*
X164637907Y-122952008D01*
X164633245Y-122953759D01*
X164627659Y-122955484D01*
X164613641Y-122958869D01*
X164595702Y-122962195D01*
X164573694Y-122965493D01*
X164547465Y-122968794D01*
X164516866Y-122972131D01*
X164466998Y-122977363D01*
X164423775Y-122982125D01*
X164391827Y-122985892D01*
X164381528Y-122987238D01*
X164375783Y-122988138D01*
X164375783Y-122988135D01*
X164366631Y-122989585D01*
X164355432Y-122990718D01*
X164327865Y-122992073D01*
X164295024Y-122992273D01*
X164258854Y-122991392D01*
X164221296Y-122989502D01*
X164184295Y-122986676D01*
X164149794Y-122982988D01*
X164119735Y-122978510D01*
X164092099Y-122972904D01*
X164065928Y-122966208D01*
X164041228Y-122958426D01*
X164029432Y-122954131D01*
X164018007Y-122949566D01*
X164006953Y-122944733D01*
X163996272Y-122939632D01*
X163985963Y-122934265D01*
X163976029Y-122928631D01*
X163966470Y-122922732D01*
X163957286Y-122916568D01*
X163948479Y-122910141D01*
X163940050Y-122903450D01*
X163931999Y-122896496D01*
X163924328Y-122889281D01*
X163917037Y-122881805D01*
X163910126Y-122874068D01*
X163903598Y-122866072D01*
X163897453Y-122857816D01*
X163891691Y-122849303D01*
X163886314Y-122840532D01*
X163881322Y-122831505D01*
X163876717Y-122822222D01*
X163872499Y-122812683D01*
X163868669Y-122802890D01*
X163865228Y-122792843D01*
X163862177Y-122782543D01*
X163859516Y-122771990D01*
X163857248Y-122761186D01*
X163855355Y-122750378D01*
X163853802Y-122739717D01*
X163852589Y-122729206D01*
X163851715Y-122718846D01*
X163851178Y-122708640D01*
X163850978Y-122698590D01*
X163851113Y-122688700D01*
X163851583Y-122678971D01*
X163852387Y-122669406D01*
X163853523Y-122660007D01*
X163854991Y-122650777D01*
X163856789Y-122641719D01*
X163858918Y-122632834D01*
X163861375Y-122624125D01*
X163864160Y-122615595D01*
X163867272Y-122607246D01*
X163870710Y-122599080D01*
X163874473Y-122591100D01*
X163878560Y-122583309D01*
X163882970Y-122575708D01*
X163887701Y-122568300D01*
X163892754Y-122561089D01*
X163898127Y-122554075D01*
X163903819Y-122547262D01*
X163909829Y-122540652D01*
X163916156Y-122534248D01*
X163922800Y-122528051D01*
X163929758Y-122522065D01*
X163937031Y-122516292D01*
X163944618Y-122510734D01*
X163952516Y-122505393D01*
X163960726Y-122500273D01*
X163985823Y-122486516D01*
X163999256Y-122480141D01*
X164013492Y-122474043D01*
X164028694Y-122468178D01*
X164045023Y-122462503D01*
X164081704Y-122451546D01*
X164124825Y-122440823D01*
X164175675Y-122429983D01*
X164235542Y-122418675D01*
X164305715Y-122406550D01*
X164334110Y-122401697D01*
X164359665Y-122397058D01*
X164382573Y-122392544D01*
X164403026Y-122388067D01*
X164412392Y-122385815D01*
X164421216Y-122383540D01*
X164429524Y-122381229D01*
X164437338Y-122378872D01*
X164444683Y-122376459D01*
X164451583Y-122373977D01*
X164458062Y-122371416D01*
X164464144Y-122368766D01*
X164469854Y-122366014D01*
X164475214Y-122363150D01*
X164480251Y-122360163D01*
X164484987Y-122357042D01*
X164489446Y-122353775D01*
X164493653Y-122350352D01*
X164497632Y-122346762D01*
X164501407Y-122342994D01*
X164505002Y-122339036D01*
X164508441Y-122334877D01*
X164511748Y-122330507D01*
X164514947Y-122325915D01*
X164518063Y-122321089D01*
X164521120Y-122316018D01*
X164527150Y-122305099D01*
X164530973Y-122297057D01*
X164534207Y-122288637D01*
X164536857Y-122279896D01*
X164538925Y-122270889D01*
X164540413Y-122261674D01*
X164541326Y-122252307D01*
X164541666Y-122242845D01*
X164541437Y-122233343D01*
X164540641Y-122223859D01*
X164539281Y-122214449D01*
X164537360Y-122205169D01*
X164534882Y-122196077D01*
X164531850Y-122187228D01*
X164528266Y-122178680D01*
X164524134Y-122170488D01*
X164519456Y-122162709D01*
X164512716Y-122153285D01*
X164505284Y-122144598D01*
X164497081Y-122136622D01*
X164488027Y-122129330D01*
X164478042Y-122122696D01*
X164467045Y-122116694D01*
X164454958Y-122111299D01*
X164441699Y-122106483D01*
X164427189Y-122102221D01*
X164411347Y-122098486D01*
X164394094Y-122095252D01*
X164375350Y-122092494D01*
X164355034Y-122090185D01*
X164333067Y-122088298D01*
X164309369Y-122086809D01*
X164283859Y-122085689D01*
X164240501Y-122084776D01*
X164196051Y-122085072D01*
X164150717Y-122086565D01*
X164104706Y-122089239D01*
X164058227Y-122093079D01*
X164011486Y-122098072D01*
X163964693Y-122104202D01*
X163918054Y-122111455D01*
X163878367Y-122118121D01*
X163878367Y-122001523D01*
X163965679Y-121987116D01*
X163989124Y-121983835D01*
X164016712Y-121980974D01*
X164081596Y-121976514D01*
X164154884Y-121973749D01*
X164231133Y-121972694D01*
X164304896Y-121973363D01*
G36*
X163603200Y-122972604D02*
G01*
X163486783Y-122972604D01*
X163486783Y-121988354D01*
X163603200Y-121988354D01*
X163603200Y-122972604D01*
G37*
X163603200Y-122972604D02*
X163486783Y-122972604D01*
X163486783Y-121988354D01*
X163603200Y-121988354D01*
X163603200Y-122972604D01*
G36*
X163227341Y-122464603D02*
G01*
X163226104Y-122524605D01*
X163224551Y-122553558D01*
X163222376Y-122581227D01*
X163219579Y-122607186D01*
X163216160Y-122631008D01*
X163212118Y-122652264D01*
X163207453Y-122670527D01*
X163191667Y-122717665D01*
X163173655Y-122760770D01*
X163153286Y-122799911D01*
X163142177Y-122818016D01*
X163130428Y-122835156D01*
X163118023Y-122851340D01*
X163104946Y-122866576D01*
X163091181Y-122880873D01*
X163076710Y-122894239D01*
X163061518Y-122906683D01*
X163045586Y-122918214D01*
X163028900Y-122928840D01*
X163011442Y-122938569D01*
X162993197Y-122947411D01*
X162974146Y-122955374D01*
X162954274Y-122962467D01*
X162933564Y-122968698D01*
X162889564Y-122978610D01*
X162842014Y-122985178D01*
X162790781Y-122988472D01*
X162735732Y-122988560D01*
X162676736Y-122985512D01*
X162613658Y-122979396D01*
X162554117Y-122972112D01*
X162501530Y-122965098D01*
X162479624Y-122961942D01*
X162461594Y-122959153D01*
X162448151Y-122956830D01*
X162440007Y-122955074D01*
X162431724Y-122952942D01*
X162428388Y-122952311D01*
X162425553Y-122952060D01*
X162424316Y-122952098D01*
X162423195Y-122952255D01*
X162422185Y-122952541D01*
X162421285Y-122952964D01*
X162420490Y-122953532D01*
X162419797Y-122954254D01*
X162419203Y-122955137D01*
X162418705Y-122956191D01*
X162418299Y-122957424D01*
X162417982Y-122958844D01*
X162417602Y-122962278D01*
X162417538Y-122966561D01*
X162417764Y-122971761D01*
X162418253Y-122977944D01*
X162418978Y-122985177D01*
X162421033Y-123003062D01*
X162422492Y-123013721D01*
X162424324Y-123024234D01*
X162426524Y-123034596D01*
X162429086Y-123044799D01*
X162432003Y-123054836D01*
X162435270Y-123064702D01*
X162438882Y-123074388D01*
X162442832Y-123083889D01*
X162447115Y-123093198D01*
X162451724Y-123102308D01*
X162456655Y-123111212D01*
X162461900Y-123119904D01*
X162473314Y-123136623D01*
X162485919Y-123152411D01*
X162499669Y-123167214D01*
X162514518Y-123180979D01*
X162522339Y-123187456D01*
X162530418Y-123193652D01*
X162538749Y-123199562D01*
X162547325Y-123205179D01*
X162556140Y-123210496D01*
X162565190Y-123215506D01*
X162574468Y-123220202D01*
X162583969Y-123224579D01*
X162593686Y-123228628D01*
X162603614Y-123232344D01*
X162613747Y-123235719D01*
X162624079Y-123238748D01*
X162636360Y-123241066D01*
X162653965Y-123242892D01*
X162702460Y-123245141D01*
X162764191Y-123245636D01*
X162833783Y-123244517D01*
X162905863Y-123241925D01*
X162975056Y-123238001D01*
X163035990Y-123232885D01*
X163083291Y-123226719D01*
X163096931Y-123224479D01*
X163109826Y-123222559D01*
X163121681Y-123220989D01*
X163132202Y-123219799D01*
X163141095Y-123219019D01*
X163144838Y-123218792D01*
X163148064Y-123218678D01*
X163150736Y-123218682D01*
X163152816Y-123218806D01*
X163154269Y-123219055D01*
X163154748Y-123219228D01*
X163155057Y-123219433D01*
X163155527Y-123220147D01*
X163156049Y-123221380D01*
X163157223Y-123225290D01*
X163158534Y-123230929D01*
X163159941Y-123238060D01*
X163161398Y-123246448D01*
X163162863Y-123255858D01*
X163164293Y-123266056D01*
X163165643Y-123276804D01*
X163171928Y-123329875D01*
X163083293Y-123341693D01*
X163045538Y-123346604D01*
X163008259Y-123351240D01*
X162975756Y-123355077D01*
X162952325Y-123357597D01*
X162952319Y-123357596D01*
X162940467Y-123358387D01*
X162922938Y-123359059D01*
X162874234Y-123360008D01*
X162812979Y-123360365D01*
X162745944Y-123360056D01*
X162694894Y-123359419D01*
X162673519Y-123358998D01*
X162654569Y-123358463D01*
X162637790Y-123357782D01*
X162622924Y-123356922D01*
X162609716Y-123355849D01*
X162597910Y-123354530D01*
X162587249Y-123352932D01*
X162577479Y-123351021D01*
X162568343Y-123348765D01*
X162559584Y-123346130D01*
X162550948Y-123343082D01*
X162542178Y-123339590D01*
X162533017Y-123335618D01*
X162523212Y-123331135D01*
X162509682Y-123324577D01*
X162496547Y-123317671D01*
X162483814Y-123310425D01*
X162471490Y-123302845D01*
X162459584Y-123294938D01*
X162448102Y-123286711D01*
X162437053Y-123278169D01*
X162426443Y-123269320D01*
X162416282Y-123260171D01*
X162406576Y-123250727D01*
X162397332Y-123240996D01*
X162388560Y-123230983D01*
X162380266Y-123220697D01*
X162372457Y-123210143D01*
X162365143Y-123199329D01*
X162358329Y-123188259D01*
X162340223Y-123155394D01*
X162332831Y-123139192D01*
X162326449Y-123121972D01*
X162321001Y-123102855D01*
X162316413Y-123080963D01*
X162312613Y-123055418D01*
X162309524Y-123025340D01*
X162305189Y-122948070D01*
X162302813Y-122842126D01*
X162301570Y-122516095D01*
X162301559Y-122469831D01*
X162417866Y-122469831D01*
X162417880Y-122531331D01*
X162417941Y-122585506D01*
X162418072Y-122632830D01*
X162418301Y-122673777D01*
X162418460Y-122692006D01*
X162418653Y-122708819D01*
X162418883Y-122724274D01*
X162419154Y-122738430D01*
X162419468Y-122751347D01*
X162419829Y-122763084D01*
X162420241Y-122773700D01*
X162420705Y-122783254D01*
X162421227Y-122791805D01*
X162421807Y-122799412D01*
X162422451Y-122806136D01*
X162423162Y-122812034D01*
X162423542Y-122814692D01*
X162423941Y-122817166D01*
X162424358Y-122819464D01*
X162424793Y-122821592D01*
X162425248Y-122823558D01*
X162425721Y-122825369D01*
X162426215Y-122827034D01*
X162426729Y-122828559D01*
X162427263Y-122829951D01*
X162427818Y-122831219D01*
X162428395Y-122832369D01*
X162428993Y-122833409D01*
X162429614Y-122834346D01*
X162430257Y-122835188D01*
X162430923Y-122835942D01*
X162431613Y-122836615D01*
X162432326Y-122837215D01*
X162433064Y-122837750D01*
X162433826Y-122838226D01*
X162434613Y-122838651D01*
X162436264Y-122839378D01*
X162438020Y-122839990D01*
X162444411Y-122841587D01*
X162454903Y-122843679D01*
X162485971Y-122848995D01*
X162526799Y-122855227D01*
X162572958Y-122861663D01*
X162620789Y-122867428D01*
X162665697Y-122871575D01*
X162707788Y-122874078D01*
X162747171Y-122874911D01*
X162765879Y-122874692D01*
X162783950Y-122874047D01*
X162801397Y-122872970D01*
X162818234Y-122871460D01*
X162834473Y-122869512D01*
X162850128Y-122867124D01*
X162865212Y-122864292D01*
X162879739Y-122861012D01*
X162893722Y-122857283D01*
X162907175Y-122853100D01*
X162920110Y-122848459D01*
X162932541Y-122843359D01*
X162944482Y-122837795D01*
X162955945Y-122831764D01*
X162966945Y-122825263D01*
X162977494Y-122818289D01*
X162987605Y-122810838D01*
X162997293Y-122802908D01*
X163006570Y-122794494D01*
X163015450Y-122785593D01*
X163023946Y-122776203D01*
X163032072Y-122766320D01*
X163039840Y-122755941D01*
X163047264Y-122745062D01*
X163055668Y-122731596D01*
X163063391Y-122717985D01*
X163070451Y-122704144D01*
X163076868Y-122689989D01*
X163082661Y-122675433D01*
X163087849Y-122660393D01*
X163092452Y-122644782D01*
X163096489Y-122628516D01*
X163099979Y-122611511D01*
X163102941Y-122593680D01*
X163105395Y-122574939D01*
X163107359Y-122555202D01*
X163108853Y-122534385D01*
X163109897Y-122512403D01*
X163110509Y-122489171D01*
X163110709Y-122464603D01*
X163110469Y-122436797D01*
X163109730Y-122410773D01*
X163108463Y-122386424D01*
X163106637Y-122363643D01*
X163104222Y-122342321D01*
X163101190Y-122322352D01*
X163097510Y-122303626D01*
X163093152Y-122286037D01*
X163088087Y-122269477D01*
X163082285Y-122253838D01*
X163075717Y-122239011D01*
X163068352Y-122224890D01*
X163060161Y-122211367D01*
X163051114Y-122198333D01*
X163041181Y-122185681D01*
X163030333Y-122173304D01*
X163017819Y-122160165D01*
X163005648Y-122148438D01*
X162993520Y-122138043D01*
X162981136Y-122128906D01*
X162968197Y-122120948D01*
X162954403Y-122114092D01*
X162939455Y-122108262D01*
X162923054Y-122103381D01*
X162904901Y-122099371D01*
X162884696Y-122096156D01*
X162862139Y-122093659D01*
X162836933Y-122091802D01*
X162808776Y-122090508D01*
X162777371Y-122089701D01*
X162703616Y-122089239D01*
X162665386Y-122089477D01*
X162627737Y-122090023D01*
X162591635Y-122090844D01*
X162558046Y-122091904D01*
X162527936Y-122093167D01*
X162502270Y-122094598D01*
X162482016Y-122096163D01*
X162468137Y-122097826D01*
X162417866Y-122106068D01*
X162417866Y-122469831D01*
X162301559Y-122469831D01*
X162301450Y-122001377D01*
X162357012Y-121994639D01*
X162446481Y-121984757D01*
X162533105Y-121977068D01*
X162615531Y-121971610D01*
X162692408Y-121968419D01*
X162762386Y-121967534D01*
X162794365Y-121967968D01*
X162824112Y-121968992D01*
X162851459Y-121970611D01*
X162876236Y-121972831D01*
X162898275Y-121975654D01*
X162917407Y-121979087D01*
X162945425Y-121985812D01*
X162971947Y-121993798D01*
X162997010Y-122003081D01*
X163020652Y-122013699D01*
X163042912Y-122025688D01*
X163063828Y-122039085D01*
X163083437Y-122053926D01*
X163101778Y-122070249D01*
X163118889Y-122088089D01*
X163134807Y-122107484D01*
X163149572Y-122128469D01*
X163163220Y-122151083D01*
X163175790Y-122175361D01*
X163187321Y-122201340D01*
X163197849Y-122229056D01*
X163207413Y-122258548D01*
X163212081Y-122276822D01*
X163216127Y-122298087D01*
X163219552Y-122321916D01*
X163222354Y-122347882D01*
X163224534Y-122375556D01*
X163226092Y-122404513D01*
X163227342Y-122464560D01*
X163227341Y-122464603D01*
G37*
X163227341Y-122464603D02*
X163226104Y-122524605D01*
X163224551Y-122553558D01*
X163222376Y-122581227D01*
X163219579Y-122607186D01*
X163216160Y-122631008D01*
X163212118Y-122652264D01*
X163207453Y-122670527D01*
X163191667Y-122717665D01*
X163173655Y-122760770D01*
X163153286Y-122799911D01*
X163142177Y-122818016D01*
X163130428Y-122835156D01*
X163118023Y-122851340D01*
X163104946Y-122866576D01*
X163091181Y-122880873D01*
X163076710Y-122894239D01*
X163061518Y-122906683D01*
X163045586Y-122918214D01*
X163028900Y-122928840D01*
X163011442Y-122938569D01*
X162993197Y-122947411D01*
X162974146Y-122955374D01*
X162954274Y-122962467D01*
X162933564Y-122968698D01*
X162889564Y-122978610D01*
X162842014Y-122985178D01*
X162790781Y-122988472D01*
X162735732Y-122988560D01*
X162676736Y-122985512D01*
X162613658Y-122979396D01*
X162554117Y-122972112D01*
X162501530Y-122965098D01*
X162479624Y-122961942D01*
X162461594Y-122959153D01*
X162448151Y-122956830D01*
X162440007Y-122955074D01*
X162431724Y-122952942D01*
X162428388Y-122952311D01*
X162425553Y-122952060D01*
X162424316Y-122952098D01*
X162423195Y-122952255D01*
X162422185Y-122952541D01*
X162421285Y-122952964D01*
X162420490Y-122953532D01*
X162419797Y-122954254D01*
X162419203Y-122955137D01*
X162418705Y-122956191D01*
X162418299Y-122957424D01*
X162417982Y-122958844D01*
X162417602Y-122962278D01*
X162417538Y-122966561D01*
X162417764Y-122971761D01*
X162418253Y-122977944D01*
X162418978Y-122985177D01*
X162421033Y-123003062D01*
X162422492Y-123013721D01*
X162424324Y-123024234D01*
X162426524Y-123034596D01*
X162429086Y-123044799D01*
X162432003Y-123054836D01*
X162435270Y-123064702D01*
X162438882Y-123074388D01*
X162442832Y-123083889D01*
X162447115Y-123093198D01*
X162451724Y-123102308D01*
X162456655Y-123111212D01*
X162461900Y-123119904D01*
X162473314Y-123136623D01*
X162485919Y-123152411D01*
X162499669Y-123167214D01*
X162514518Y-123180979D01*
X162522339Y-123187456D01*
X162530418Y-123193652D01*
X162538749Y-123199562D01*
X162547325Y-123205179D01*
X162556140Y-123210496D01*
X162565190Y-123215506D01*
X162574468Y-123220202D01*
X162583969Y-123224579D01*
X162593686Y-123228628D01*
X162603614Y-123232344D01*
X162613747Y-123235719D01*
X162624079Y-123238748D01*
X162636360Y-123241066D01*
X162653965Y-123242892D01*
X162702460Y-123245141D01*
X162764191Y-123245636D01*
X162833783Y-123244517D01*
X162905863Y-123241925D01*
X162975056Y-123238001D01*
X163035990Y-123232885D01*
X163083291Y-123226719D01*
X163096931Y-123224479D01*
X163109826Y-123222559D01*
X163121681Y-123220989D01*
X163132202Y-123219799D01*
X163141095Y-123219019D01*
X163144838Y-123218792D01*
X163148064Y-123218678D01*
X163150736Y-123218682D01*
X163152816Y-123218806D01*
X163154269Y-123219055D01*
X163154748Y-123219228D01*
X163155057Y-123219433D01*
X163155527Y-123220147D01*
X163156049Y-123221380D01*
X163157223Y-123225290D01*
X163158534Y-123230929D01*
X163159941Y-123238060D01*
X163161398Y-123246448D01*
X163162863Y-123255858D01*
X163164293Y-123266056D01*
X163165643Y-123276804D01*
X163171928Y-123329875D01*
X163083293Y-123341693D01*
X163045538Y-123346604D01*
X163008259Y-123351240D01*
X162975756Y-123355077D01*
X162952325Y-123357597D01*
X162952319Y-123357596D01*
X162940467Y-123358387D01*
X162922938Y-123359059D01*
X162874234Y-123360008D01*
X162812979Y-123360365D01*
X162745944Y-123360056D01*
X162694894Y-123359419D01*
X162673519Y-123358998D01*
X162654569Y-123358463D01*
X162637790Y-123357782D01*
X162622924Y-123356922D01*
X162609716Y-123355849D01*
X162597910Y-123354530D01*
X162587249Y-123352932D01*
X162577479Y-123351021D01*
X162568343Y-123348765D01*
X162559584Y-123346130D01*
X162550948Y-123343082D01*
X162542178Y-123339590D01*
X162533017Y-123335618D01*
X162523212Y-123331135D01*
X162509682Y-123324577D01*
X162496547Y-123317671D01*
X162483814Y-123310425D01*
X162471490Y-123302845D01*
X162459584Y-123294938D01*
X162448102Y-123286711D01*
X162437053Y-123278169D01*
X162426443Y-123269320D01*
X162416282Y-123260171D01*
X162406576Y-123250727D01*
X162397332Y-123240996D01*
X162388560Y-123230983D01*
X162380266Y-123220697D01*
X162372457Y-123210143D01*
X162365143Y-123199329D01*
X162358329Y-123188259D01*
X162340223Y-123155394D01*
X162332831Y-123139192D01*
X162326449Y-123121972D01*
X162321001Y-123102855D01*
X162316413Y-123080963D01*
X162312613Y-123055418D01*
X162309524Y-123025340D01*
X162305189Y-122948070D01*
X162302813Y-122842126D01*
X162301570Y-122516095D01*
X162301559Y-122469831D01*
X162417866Y-122469831D01*
X162417880Y-122531331D01*
X162417941Y-122585506D01*
X162418072Y-122632830D01*
X162418301Y-122673777D01*
X162418460Y-122692006D01*
X162418653Y-122708819D01*
X162418883Y-122724274D01*
X162419154Y-122738430D01*
X162419468Y-122751347D01*
X162419829Y-122763084D01*
X162420241Y-122773700D01*
X162420705Y-122783254D01*
X162421227Y-122791805D01*
X162421807Y-122799412D01*
X162422451Y-122806136D01*
X162423162Y-122812034D01*
X162423542Y-122814692D01*
X162423941Y-122817166D01*
X162424358Y-122819464D01*
X162424793Y-122821592D01*
X162425248Y-122823558D01*
X162425721Y-122825369D01*
X162426215Y-122827034D01*
X162426729Y-122828559D01*
X162427263Y-122829951D01*
X162427818Y-122831219D01*
X162428395Y-122832369D01*
X162428993Y-122833409D01*
X162429614Y-122834346D01*
X162430257Y-122835188D01*
X162430923Y-122835942D01*
X162431613Y-122836615D01*
X162432326Y-122837215D01*
X162433064Y-122837750D01*
X162433826Y-122838226D01*
X162434613Y-122838651D01*
X162436264Y-122839378D01*
X162438020Y-122839990D01*
X162444411Y-122841587D01*
X162454903Y-122843679D01*
X162485971Y-122848995D01*
X162526799Y-122855227D01*
X162572958Y-122861663D01*
X162620789Y-122867428D01*
X162665697Y-122871575D01*
X162707788Y-122874078D01*
X162747171Y-122874911D01*
X162765879Y-122874692D01*
X162783950Y-122874047D01*
X162801397Y-122872970D01*
X162818234Y-122871460D01*
X162834473Y-122869512D01*
X162850128Y-122867124D01*
X162865212Y-122864292D01*
X162879739Y-122861012D01*
X162893722Y-122857283D01*
X162907175Y-122853100D01*
X162920110Y-122848459D01*
X162932541Y-122843359D01*
X162944482Y-122837795D01*
X162955945Y-122831764D01*
X162966945Y-122825263D01*
X162977494Y-122818289D01*
X162987605Y-122810838D01*
X162997293Y-122802908D01*
X163006570Y-122794494D01*
X163015450Y-122785593D01*
X163023946Y-122776203D01*
X163032072Y-122766320D01*
X163039840Y-122755941D01*
X163047264Y-122745062D01*
X163055668Y-122731596D01*
X163063391Y-122717985D01*
X163070451Y-122704144D01*
X163076868Y-122689989D01*
X163082661Y-122675433D01*
X163087849Y-122660393D01*
X163092452Y-122644782D01*
X163096489Y-122628516D01*
X163099979Y-122611511D01*
X163102941Y-122593680D01*
X163105395Y-122574939D01*
X163107359Y-122555202D01*
X163108853Y-122534385D01*
X163109897Y-122512403D01*
X163110509Y-122489171D01*
X163110709Y-122464603D01*
X163110469Y-122436797D01*
X163109730Y-122410773D01*
X163108463Y-122386424D01*
X163106637Y-122363643D01*
X163104222Y-122342321D01*
X163101190Y-122322352D01*
X163097510Y-122303626D01*
X163093152Y-122286037D01*
X163088087Y-122269477D01*
X163082285Y-122253838D01*
X163075717Y-122239011D01*
X163068352Y-122224890D01*
X163060161Y-122211367D01*
X163051114Y-122198333D01*
X163041181Y-122185681D01*
X163030333Y-122173304D01*
X163017819Y-122160165D01*
X163005648Y-122148438D01*
X162993520Y-122138043D01*
X162981136Y-122128906D01*
X162968197Y-122120948D01*
X162954403Y-122114092D01*
X162939455Y-122108262D01*
X162923054Y-122103381D01*
X162904901Y-122099371D01*
X162884696Y-122096156D01*
X162862139Y-122093659D01*
X162836933Y-122091802D01*
X162808776Y-122090508D01*
X162777371Y-122089701D01*
X162703616Y-122089239D01*
X162665386Y-122089477D01*
X162627737Y-122090023D01*
X162591635Y-122090844D01*
X162558046Y-122091904D01*
X162527936Y-122093167D01*
X162502270Y-122094598D01*
X162482016Y-122096163D01*
X162468137Y-122097826D01*
X162417866Y-122106068D01*
X162417866Y-122469831D01*
X162301559Y-122469831D01*
X162301450Y-122001377D01*
X162357012Y-121994639D01*
X162446481Y-121984757D01*
X162533105Y-121977068D01*
X162615531Y-121971610D01*
X162692408Y-121968419D01*
X162762386Y-121967534D01*
X162794365Y-121967968D01*
X162824112Y-121968992D01*
X162851459Y-121970611D01*
X162876236Y-121972831D01*
X162898275Y-121975654D01*
X162917407Y-121979087D01*
X162945425Y-121985812D01*
X162971947Y-121993798D01*
X162997010Y-122003081D01*
X163020652Y-122013699D01*
X163042912Y-122025688D01*
X163063828Y-122039085D01*
X163083437Y-122053926D01*
X163101778Y-122070249D01*
X163118889Y-122088089D01*
X163134807Y-122107484D01*
X163149572Y-122128469D01*
X163163220Y-122151083D01*
X163175790Y-122175361D01*
X163187321Y-122201340D01*
X163197849Y-122229056D01*
X163207413Y-122258548D01*
X163212081Y-122276822D01*
X163216127Y-122298087D01*
X163219552Y-122321916D01*
X163222354Y-122347882D01*
X163224534Y-122375556D01*
X163226092Y-122404513D01*
X163227342Y-122464560D01*
X163227341Y-122464603D01*
G36*
X167275616Y-122854971D02*
G01*
X167275616Y-122971888D01*
X167161845Y-122975890D01*
X167161845Y-122975889D01*
X167098881Y-122977240D01*
X167011546Y-122977962D01*
X166911386Y-122978007D01*
X166809950Y-122977329D01*
X166745814Y-122976448D01*
X166691595Y-122975250D01*
X166646111Y-122973653D01*
X166608179Y-122971578D01*
X166591675Y-122970337D01*
X166576617Y-122968945D01*
X166562855Y-122967394D01*
X166550242Y-122965673D01*
X166538630Y-122963773D01*
X166527872Y-122961683D01*
X166517819Y-122959393D01*
X166508325Y-122956893D01*
X166461906Y-122942044D01*
X166418903Y-122924532D01*
X166379258Y-122904262D01*
X166342914Y-122881138D01*
X166325962Y-122868476D01*
X166309813Y-122855065D01*
X166294461Y-122840891D01*
X166279899Y-122825945D01*
X166266119Y-122810212D01*
X166253114Y-122793683D01*
X166240877Y-122776344D01*
X166229400Y-122758183D01*
X166208701Y-122719349D01*
X166190958Y-122677085D01*
X166176115Y-122631295D01*
X166164113Y-122581884D01*
X166154897Y-122528754D01*
X166148408Y-122471810D01*
X166144589Y-122410957D01*
X166143442Y-122349264D01*
X166251582Y-122349264D01*
X166252289Y-122381689D01*
X166254155Y-122414107D01*
X166257206Y-122446376D01*
X166262544Y-122486486D01*
X166269197Y-122524209D01*
X166277209Y-122559608D01*
X166281737Y-122576456D01*
X166286621Y-122592745D01*
X166291865Y-122608484D01*
X166297476Y-122623681D01*
X166303457Y-122638343D01*
X166309816Y-122652478D01*
X166316556Y-122666094D01*
X166323683Y-122679198D01*
X166331202Y-122691799D01*
X166339119Y-122703903D01*
X166347440Y-122715519D01*
X166356168Y-122726655D01*
X166365310Y-122737318D01*
X166374871Y-122747515D01*
X166384856Y-122757255D01*
X166395271Y-122766545D01*
X166406120Y-122775393D01*
X166417409Y-122783807D01*
X166429144Y-122791795D01*
X166441329Y-122799364D01*
X166453970Y-122806521D01*
X166467073Y-122813276D01*
X166480641Y-122819634D01*
X166494682Y-122825605D01*
X166509200Y-122831196D01*
X166524199Y-122836414D01*
X166524200Y-122836416D01*
X166546228Y-122843185D01*
X166568202Y-122848535D01*
X166592482Y-122852659D01*
X166621430Y-122855752D01*
X166657406Y-122858009D01*
X166702772Y-122859624D01*
X166831116Y-122861707D01*
X166927125Y-122862337D01*
X167012505Y-122862154D01*
X167077966Y-122861227D01*
X167100325Y-122860505D01*
X167114220Y-122859623D01*
X167159200Y-122854971D01*
X167159200Y-121841994D01*
X167082470Y-121836070D01*
X166998417Y-121830183D01*
X166920890Y-121826064D01*
X166849560Y-121823782D01*
X166784098Y-121823407D01*
X166724175Y-121825008D01*
X166696188Y-121826572D01*
X166669461Y-121828655D01*
X166643956Y-121831266D01*
X166619629Y-121834415D01*
X166596439Y-121838110D01*
X166574347Y-121842359D01*
X166553310Y-121847171D01*
X166533288Y-121852555D01*
X166514239Y-121858520D01*
X166496121Y-121865073D01*
X166478895Y-121872225D01*
X166462519Y-121879982D01*
X166446951Y-121888355D01*
X166432151Y-121897351D01*
X166418078Y-121906980D01*
X166404689Y-121917249D01*
X166391945Y-121928168D01*
X166379803Y-121939746D01*
X166368224Y-121951990D01*
X166357165Y-121964910D01*
X166346585Y-121978514D01*
X166336444Y-121992810D01*
X166324370Y-122012192D01*
X166313128Y-122033441D01*
X166302743Y-122056415D01*
X166293241Y-122080969D01*
X166284646Y-122106958D01*
X166276984Y-122134239D01*
X166270280Y-122162668D01*
X166264559Y-122192100D01*
X166259846Y-122222391D01*
X166256167Y-122253397D01*
X166253546Y-122284974D01*
X166252010Y-122316978D01*
X166251582Y-122349264D01*
X166143442Y-122349264D01*
X166143383Y-122346098D01*
X166143944Y-122302485D01*
X166145534Y-122260993D01*
X166148177Y-122221542D01*
X166151897Y-122184051D01*
X166156718Y-122148440D01*
X166162664Y-122114629D01*
X166169759Y-122082538D01*
X166178027Y-122052085D01*
X166187492Y-122023191D01*
X166198178Y-121995776D01*
X166210109Y-121969759D01*
X166223309Y-121945060D01*
X166237802Y-121921598D01*
X166253612Y-121899294D01*
X166270763Y-121878066D01*
X166289279Y-121857835D01*
X166313590Y-121834493D01*
X166339177Y-121813334D01*
X166366329Y-121794300D01*
X166395338Y-121777331D01*
X166426494Y-121762366D01*
X166460086Y-121749347D01*
X166496406Y-121738214D01*
X166535744Y-121728906D01*
X166578390Y-121721365D01*
X166624635Y-121715530D01*
X166674769Y-121711342D01*
X166729082Y-121708741D01*
X166787865Y-121707668D01*
X166851409Y-121708063D01*
X166920003Y-121709866D01*
X166993938Y-121713017D01*
X167086695Y-121717926D01*
X167166233Y-121722707D01*
X167224089Y-121726812D01*
X167242243Y-121728440D01*
X167251804Y-121729694D01*
X167275616Y-121734757D01*
X167275616Y-122854971D01*
G37*
X167275616Y-122854971D02*
X167275616Y-122971888D01*
X167161845Y-122975890D01*
X167161845Y-122975889D01*
X167098881Y-122977240D01*
X167011546Y-122977962D01*
X166911386Y-122978007D01*
X166809950Y-122977329D01*
X166745814Y-122976448D01*
X166691595Y-122975250D01*
X166646111Y-122973653D01*
X166608179Y-122971578D01*
X166591675Y-122970337D01*
X166576617Y-122968945D01*
X166562855Y-122967394D01*
X166550242Y-122965673D01*
X166538630Y-122963773D01*
X166527872Y-122961683D01*
X166517819Y-122959393D01*
X166508325Y-122956893D01*
X166461906Y-122942044D01*
X166418903Y-122924532D01*
X166379258Y-122904262D01*
X166342914Y-122881138D01*
X166325962Y-122868476D01*
X166309813Y-122855065D01*
X166294461Y-122840891D01*
X166279899Y-122825945D01*
X166266119Y-122810212D01*
X166253114Y-122793683D01*
X166240877Y-122776344D01*
X166229400Y-122758183D01*
X166208701Y-122719349D01*
X166190958Y-122677085D01*
X166176115Y-122631295D01*
X166164113Y-122581884D01*
X166154897Y-122528754D01*
X166148408Y-122471810D01*
X166144589Y-122410957D01*
X166143442Y-122349264D01*
X166251582Y-122349264D01*
X166252289Y-122381689D01*
X166254155Y-122414107D01*
X166257206Y-122446376D01*
X166262544Y-122486486D01*
X166269197Y-122524209D01*
X166277209Y-122559608D01*
X166281737Y-122576456D01*
X166286621Y-122592745D01*
X166291865Y-122608484D01*
X166297476Y-122623681D01*
X166303457Y-122638343D01*
X166309816Y-122652478D01*
X166316556Y-122666094D01*
X166323683Y-122679198D01*
X166331202Y-122691799D01*
X166339119Y-122703903D01*
X166347440Y-122715519D01*
X166356168Y-122726655D01*
X166365310Y-122737318D01*
X166374871Y-122747515D01*
X166384856Y-122757255D01*
X166395271Y-122766545D01*
X166406120Y-122775393D01*
X166417409Y-122783807D01*
X166429144Y-122791795D01*
X166441329Y-122799364D01*
X166453970Y-122806521D01*
X166467073Y-122813276D01*
X166480641Y-122819634D01*
X166494682Y-122825605D01*
X166509200Y-122831196D01*
X166524199Y-122836414D01*
X166524200Y-122836416D01*
X166546228Y-122843185D01*
X166568202Y-122848535D01*
X166592482Y-122852659D01*
X166621430Y-122855752D01*
X166657406Y-122858009D01*
X166702772Y-122859624D01*
X166831116Y-122861707D01*
X166927125Y-122862337D01*
X167012505Y-122862154D01*
X167077966Y-122861227D01*
X167100325Y-122860505D01*
X167114220Y-122859623D01*
X167159200Y-122854971D01*
X167159200Y-121841994D01*
X167082470Y-121836070D01*
X166998417Y-121830183D01*
X166920890Y-121826064D01*
X166849560Y-121823782D01*
X166784098Y-121823407D01*
X166724175Y-121825008D01*
X166696188Y-121826572D01*
X166669461Y-121828655D01*
X166643956Y-121831266D01*
X166619629Y-121834415D01*
X166596439Y-121838110D01*
X166574347Y-121842359D01*
X166553310Y-121847171D01*
X166533288Y-121852555D01*
X166514239Y-121858520D01*
X166496121Y-121865073D01*
X166478895Y-121872225D01*
X166462519Y-121879982D01*
X166446951Y-121888355D01*
X166432151Y-121897351D01*
X166418078Y-121906980D01*
X166404689Y-121917249D01*
X166391945Y-121928168D01*
X166379803Y-121939746D01*
X166368224Y-121951990D01*
X166357165Y-121964910D01*
X166346585Y-121978514D01*
X166336444Y-121992810D01*
X166324370Y-122012192D01*
X166313128Y-122033441D01*
X166302743Y-122056415D01*
X166293241Y-122080969D01*
X166284646Y-122106958D01*
X166276984Y-122134239D01*
X166270280Y-122162668D01*
X166264559Y-122192100D01*
X166259846Y-122222391D01*
X166256167Y-122253397D01*
X166253546Y-122284974D01*
X166252010Y-122316978D01*
X166251582Y-122349264D01*
X166143442Y-122349264D01*
X166143383Y-122346098D01*
X166143944Y-122302485D01*
X166145534Y-122260993D01*
X166148177Y-122221542D01*
X166151897Y-122184051D01*
X166156718Y-122148440D01*
X166162664Y-122114629D01*
X166169759Y-122082538D01*
X166178027Y-122052085D01*
X166187492Y-122023191D01*
X166198178Y-121995776D01*
X166210109Y-121969759D01*
X166223309Y-121945060D01*
X166237802Y-121921598D01*
X166253612Y-121899294D01*
X166270763Y-121878066D01*
X166289279Y-121857835D01*
X166313590Y-121834493D01*
X166339177Y-121813334D01*
X166366329Y-121794300D01*
X166395338Y-121777331D01*
X166426494Y-121762366D01*
X166460086Y-121749347D01*
X166496406Y-121738214D01*
X166535744Y-121728906D01*
X166578390Y-121721365D01*
X166624635Y-121715530D01*
X166674769Y-121711342D01*
X166729082Y-121708741D01*
X166787865Y-121707668D01*
X166851409Y-121708063D01*
X166920003Y-121709866D01*
X166993938Y-121713017D01*
X167086695Y-121717926D01*
X167166233Y-121722707D01*
X167224089Y-121726812D01*
X167242243Y-121728440D01*
X167251804Y-121729694D01*
X167275616Y-121734757D01*
X167275616Y-122854971D01*
D11*
X122162380Y-92947619D02*
X121162380Y-92947619D01*
X121162380Y-92947619D02*
X122162380Y-93519047D01*
X122162380Y-93519047D02*
X121162380Y-93519047D01*
X121638571Y-93995238D02*
X121638571Y-94328571D01*
X122162380Y-94471428D02*
X122162380Y-93995238D01*
X122162380Y-93995238D02*
X121162380Y-93995238D01*
X121162380Y-93995238D02*
X121162380Y-94471428D01*
X122162380Y-94900000D02*
X121162380Y-94900000D01*
X121162380Y-94900000D02*
X121876666Y-95233333D01*
X121876666Y-95233333D02*
X121162380Y-95566666D01*
X121162380Y-95566666D02*
X122162380Y-95566666D01*
X121638571Y-96042857D02*
X121638571Y-96376190D01*
X122162380Y-96519047D02*
X122162380Y-96042857D01*
X122162380Y-96042857D02*
X121162380Y-96042857D01*
X121162380Y-96042857D02*
X121162380Y-96519047D01*
X122114761Y-96900000D02*
X122162380Y-97042857D01*
X122162380Y-97042857D02*
X122162380Y-97280952D01*
X122162380Y-97280952D02*
X122114761Y-97376190D01*
X122114761Y-97376190D02*
X122067142Y-97423809D01*
X122067142Y-97423809D02*
X121971904Y-97471428D01*
X121971904Y-97471428D02*
X121876666Y-97471428D01*
X121876666Y-97471428D02*
X121781428Y-97423809D01*
X121781428Y-97423809D02*
X121733809Y-97376190D01*
X121733809Y-97376190D02*
X121686190Y-97280952D01*
X121686190Y-97280952D02*
X121638571Y-97090476D01*
X121638571Y-97090476D02*
X121590952Y-96995238D01*
X121590952Y-96995238D02*
X121543333Y-96947619D01*
X121543333Y-96947619D02*
X121448095Y-96900000D01*
X121448095Y-96900000D02*
X121352857Y-96900000D01*
X121352857Y-96900000D02*
X121257619Y-96947619D01*
X121257619Y-96947619D02*
X121210000Y-96995238D01*
X121210000Y-96995238D02*
X121162380Y-97090476D01*
X121162380Y-97090476D02*
X121162380Y-97328571D01*
X121162380Y-97328571D02*
X121210000Y-97471428D01*
X122162380Y-97900000D02*
X121162380Y-97900000D01*
X122114761Y-98328571D02*
X122162380Y-98471428D01*
X122162380Y-98471428D02*
X122162380Y-98709523D01*
X122162380Y-98709523D02*
X122114761Y-98804761D01*
X122114761Y-98804761D02*
X122067142Y-98852380D01*
X122067142Y-98852380D02*
X121971904Y-98899999D01*
X121971904Y-98899999D02*
X121876666Y-98899999D01*
X121876666Y-98899999D02*
X121781428Y-98852380D01*
X121781428Y-98852380D02*
X121733809Y-98804761D01*
X121733809Y-98804761D02*
X121686190Y-98709523D01*
X121686190Y-98709523D02*
X121638571Y-98519047D01*
X121638571Y-98519047D02*
X121590952Y-98423809D01*
X121590952Y-98423809D02*
X121543333Y-98376190D01*
X121543333Y-98376190D02*
X121448095Y-98328571D01*
X121448095Y-98328571D02*
X121352857Y-98328571D01*
X121352857Y-98328571D02*
X121257619Y-98376190D01*
X121257619Y-98376190D02*
X121210000Y-98423809D01*
X121210000Y-98423809D02*
X121162380Y-98519047D01*
X121162380Y-98519047D02*
X121162380Y-98757142D01*
X121162380Y-98757142D02*
X121210000Y-98899999D01*
X123734761Y-85061903D02*
X123782380Y-85204760D01*
X123782380Y-85204760D02*
X123782380Y-85442855D01*
X123782380Y-85442855D02*
X123734761Y-85538093D01*
X123734761Y-85538093D02*
X123687142Y-85585712D01*
X123687142Y-85585712D02*
X123591904Y-85633331D01*
X123591904Y-85633331D02*
X123496666Y-85633331D01*
X123496666Y-85633331D02*
X123401428Y-85585712D01*
X123401428Y-85585712D02*
X123353809Y-85538093D01*
X123353809Y-85538093D02*
X123306190Y-85442855D01*
X123306190Y-85442855D02*
X123258571Y-85252379D01*
X123258571Y-85252379D02*
X123210952Y-85157141D01*
X123210952Y-85157141D02*
X123163333Y-85109522D01*
X123163333Y-85109522D02*
X123068095Y-85061903D01*
X123068095Y-85061903D02*
X122972857Y-85061903D01*
X122972857Y-85061903D02*
X122877619Y-85109522D01*
X122877619Y-85109522D02*
X122830000Y-85157141D01*
X122830000Y-85157141D02*
X122782380Y-85252379D01*
X122782380Y-85252379D02*
X122782380Y-85490474D01*
X122782380Y-85490474D02*
X122830000Y-85633331D01*
X123782380Y-86061903D02*
X123115714Y-86061903D01*
X122782380Y-86061903D02*
X122830000Y-86014284D01*
X122830000Y-86014284D02*
X122877619Y-86061903D01*
X122877619Y-86061903D02*
X122830000Y-86109522D01*
X122830000Y-86109522D02*
X122782380Y-86061903D01*
X122782380Y-86061903D02*
X122877619Y-86061903D01*
X123115714Y-86966664D02*
X123925238Y-86966664D01*
X123925238Y-86966664D02*
X124020476Y-86919045D01*
X124020476Y-86919045D02*
X124068095Y-86871426D01*
X124068095Y-86871426D02*
X124115714Y-86776188D01*
X124115714Y-86776188D02*
X124115714Y-86633331D01*
X124115714Y-86633331D02*
X124068095Y-86538093D01*
X123734761Y-86966664D02*
X123782380Y-86871426D01*
X123782380Y-86871426D02*
X123782380Y-86680950D01*
X123782380Y-86680950D02*
X123734761Y-86585712D01*
X123734761Y-86585712D02*
X123687142Y-86538093D01*
X123687142Y-86538093D02*
X123591904Y-86490474D01*
X123591904Y-86490474D02*
X123306190Y-86490474D01*
X123306190Y-86490474D02*
X123210952Y-86538093D01*
X123210952Y-86538093D02*
X123163333Y-86585712D01*
X123163333Y-86585712D02*
X123115714Y-86680950D01*
X123115714Y-86680950D02*
X123115714Y-86871426D01*
X123115714Y-86871426D02*
X123163333Y-86966664D01*
X123115714Y-87442855D02*
X123782380Y-87442855D01*
X123210952Y-87442855D02*
X123163333Y-87490474D01*
X123163333Y-87490474D02*
X123115714Y-87585712D01*
X123115714Y-87585712D02*
X123115714Y-87728569D01*
X123115714Y-87728569D02*
X123163333Y-87823807D01*
X123163333Y-87823807D02*
X123258571Y-87871426D01*
X123258571Y-87871426D02*
X123782380Y-87871426D01*
X123782380Y-88776188D02*
X123258571Y-88776188D01*
X123258571Y-88776188D02*
X123163333Y-88728569D01*
X123163333Y-88728569D02*
X123115714Y-88633331D01*
X123115714Y-88633331D02*
X123115714Y-88442855D01*
X123115714Y-88442855D02*
X123163333Y-88347617D01*
X123734761Y-88776188D02*
X123782380Y-88680950D01*
X123782380Y-88680950D02*
X123782380Y-88442855D01*
X123782380Y-88442855D02*
X123734761Y-88347617D01*
X123734761Y-88347617D02*
X123639523Y-88299998D01*
X123639523Y-88299998D02*
X123544285Y-88299998D01*
X123544285Y-88299998D02*
X123449047Y-88347617D01*
X123449047Y-88347617D02*
X123401428Y-88442855D01*
X123401428Y-88442855D02*
X123401428Y-88680950D01*
X123401428Y-88680950D02*
X123353809Y-88776188D01*
X123782380Y-89395236D02*
X123734761Y-89299998D01*
X123734761Y-89299998D02*
X123639523Y-89252379D01*
X123639523Y-89252379D02*
X122782380Y-89252379D01*
X123496666Y-90328570D02*
X123496666Y-90804760D01*
X123782380Y-90233332D02*
X122782380Y-90566665D01*
X122782380Y-90566665D02*
X123782380Y-90899998D01*
X123115714Y-91233332D02*
X123782380Y-91233332D01*
X123210952Y-91233332D02*
X123163333Y-91280951D01*
X123163333Y-91280951D02*
X123115714Y-91376189D01*
X123115714Y-91376189D02*
X123115714Y-91519046D01*
X123115714Y-91519046D02*
X123163333Y-91614284D01*
X123163333Y-91614284D02*
X123258571Y-91661903D01*
X123258571Y-91661903D02*
X123782380Y-91661903D01*
X123782380Y-92566665D02*
X123258571Y-92566665D01*
X123258571Y-92566665D02*
X123163333Y-92519046D01*
X123163333Y-92519046D02*
X123115714Y-92423808D01*
X123115714Y-92423808D02*
X123115714Y-92233332D01*
X123115714Y-92233332D02*
X123163333Y-92138094D01*
X123734761Y-92566665D02*
X123782380Y-92471427D01*
X123782380Y-92471427D02*
X123782380Y-92233332D01*
X123782380Y-92233332D02*
X123734761Y-92138094D01*
X123734761Y-92138094D02*
X123639523Y-92090475D01*
X123639523Y-92090475D02*
X123544285Y-92090475D01*
X123544285Y-92090475D02*
X123449047Y-92138094D01*
X123449047Y-92138094D02*
X123401428Y-92233332D01*
X123401428Y-92233332D02*
X123401428Y-92471427D01*
X123401428Y-92471427D02*
X123353809Y-92566665D01*
X123782380Y-93185713D02*
X123734761Y-93090475D01*
X123734761Y-93090475D02*
X123639523Y-93042856D01*
X123639523Y-93042856D02*
X122782380Y-93042856D01*
X123115714Y-93471428D02*
X123782380Y-93709523D01*
X123115714Y-93947618D02*
X123782380Y-93709523D01*
X123782380Y-93709523D02*
X124020476Y-93614285D01*
X124020476Y-93614285D02*
X124068095Y-93566666D01*
X124068095Y-93566666D02*
X124115714Y-93471428D01*
X123734761Y-94280952D02*
X123782380Y-94376190D01*
X123782380Y-94376190D02*
X123782380Y-94566666D01*
X123782380Y-94566666D02*
X123734761Y-94661904D01*
X123734761Y-94661904D02*
X123639523Y-94709523D01*
X123639523Y-94709523D02*
X123591904Y-94709523D01*
X123591904Y-94709523D02*
X123496666Y-94661904D01*
X123496666Y-94661904D02*
X123449047Y-94566666D01*
X123449047Y-94566666D02*
X123449047Y-94423809D01*
X123449047Y-94423809D02*
X123401428Y-94328571D01*
X123401428Y-94328571D02*
X123306190Y-94280952D01*
X123306190Y-94280952D02*
X123258571Y-94280952D01*
X123258571Y-94280952D02*
X123163333Y-94328571D01*
X123163333Y-94328571D02*
X123115714Y-94423809D01*
X123115714Y-94423809D02*
X123115714Y-94566666D01*
X123115714Y-94566666D02*
X123163333Y-94661904D01*
X123734761Y-95519047D02*
X123782380Y-95423809D01*
X123782380Y-95423809D02*
X123782380Y-95233333D01*
X123782380Y-95233333D02*
X123734761Y-95138095D01*
X123734761Y-95138095D02*
X123639523Y-95090476D01*
X123639523Y-95090476D02*
X123258571Y-95090476D01*
X123258571Y-95090476D02*
X123163333Y-95138095D01*
X123163333Y-95138095D02*
X123115714Y-95233333D01*
X123115714Y-95233333D02*
X123115714Y-95423809D01*
X123115714Y-95423809D02*
X123163333Y-95519047D01*
X123163333Y-95519047D02*
X123258571Y-95566666D01*
X123258571Y-95566666D02*
X123353809Y-95566666D01*
X123353809Y-95566666D02*
X123449047Y-95090476D01*
X123782380Y-95995238D02*
X123115714Y-95995238D01*
X123306190Y-95995238D02*
X123210952Y-96042857D01*
X123210952Y-96042857D02*
X123163333Y-96090476D01*
X123163333Y-96090476D02*
X123115714Y-96185714D01*
X123115714Y-96185714D02*
X123115714Y-96280952D01*
X123782380Y-97642857D02*
X123258571Y-97642857D01*
X123258571Y-97642857D02*
X123163333Y-97595238D01*
X123163333Y-97595238D02*
X123115714Y-97500000D01*
X123115714Y-97500000D02*
X123115714Y-97309524D01*
X123115714Y-97309524D02*
X123163333Y-97214286D01*
X123734761Y-97642857D02*
X123782380Y-97547619D01*
X123782380Y-97547619D02*
X123782380Y-97309524D01*
X123782380Y-97309524D02*
X123734761Y-97214286D01*
X123734761Y-97214286D02*
X123639523Y-97166667D01*
X123639523Y-97166667D02*
X123544285Y-97166667D01*
X123544285Y-97166667D02*
X123449047Y-97214286D01*
X123449047Y-97214286D02*
X123401428Y-97309524D01*
X123401428Y-97309524D02*
X123401428Y-97547619D01*
X123401428Y-97547619D02*
X123353809Y-97642857D01*
X123115714Y-98119048D02*
X123782380Y-98119048D01*
X123210952Y-98119048D02*
X123163333Y-98166667D01*
X123163333Y-98166667D02*
X123115714Y-98261905D01*
X123115714Y-98261905D02*
X123115714Y-98404762D01*
X123115714Y-98404762D02*
X123163333Y-98500000D01*
X123163333Y-98500000D02*
X123258571Y-98547619D01*
X123258571Y-98547619D02*
X123782380Y-98547619D01*
X123782380Y-99452381D02*
X122782380Y-99452381D01*
X123734761Y-99452381D02*
X123782380Y-99357143D01*
X123782380Y-99357143D02*
X123782380Y-99166667D01*
X123782380Y-99166667D02*
X123734761Y-99071429D01*
X123734761Y-99071429D02*
X123687142Y-99023810D01*
X123687142Y-99023810D02*
X123591904Y-98976191D01*
X123591904Y-98976191D02*
X123306190Y-98976191D01*
X123306190Y-98976191D02*
X123210952Y-99023810D01*
X123210952Y-99023810D02*
X123163333Y-99071429D01*
X123163333Y-99071429D02*
X123115714Y-99166667D01*
X123115714Y-99166667D02*
X123115714Y-99357143D01*
X123115714Y-99357143D02*
X123163333Y-99452381D01*
X122830000Y-101052381D02*
X122782380Y-100957143D01*
X122782380Y-100957143D02*
X122782380Y-100814286D01*
X122782380Y-100814286D02*
X122830000Y-100671429D01*
X122830000Y-100671429D02*
X122925238Y-100576191D01*
X122925238Y-100576191D02*
X123020476Y-100528572D01*
X123020476Y-100528572D02*
X123210952Y-100480953D01*
X123210952Y-100480953D02*
X123353809Y-100480953D01*
X123353809Y-100480953D02*
X123544285Y-100528572D01*
X123544285Y-100528572D02*
X123639523Y-100576191D01*
X123639523Y-100576191D02*
X123734761Y-100671429D01*
X123734761Y-100671429D02*
X123782380Y-100814286D01*
X123782380Y-100814286D02*
X123782380Y-100909524D01*
X123782380Y-100909524D02*
X123734761Y-101052381D01*
X123734761Y-101052381D02*
X123687142Y-101100000D01*
X123687142Y-101100000D02*
X123353809Y-101100000D01*
X123353809Y-101100000D02*
X123353809Y-100909524D01*
X123734761Y-101909524D02*
X123782380Y-101814286D01*
X123782380Y-101814286D02*
X123782380Y-101623810D01*
X123782380Y-101623810D02*
X123734761Y-101528572D01*
X123734761Y-101528572D02*
X123639523Y-101480953D01*
X123639523Y-101480953D02*
X123258571Y-101480953D01*
X123258571Y-101480953D02*
X123163333Y-101528572D01*
X123163333Y-101528572D02*
X123115714Y-101623810D01*
X123115714Y-101623810D02*
X123115714Y-101814286D01*
X123115714Y-101814286D02*
X123163333Y-101909524D01*
X123163333Y-101909524D02*
X123258571Y-101957143D01*
X123258571Y-101957143D02*
X123353809Y-101957143D01*
X123353809Y-101957143D02*
X123449047Y-101480953D01*
X123115714Y-102385715D02*
X123782380Y-102385715D01*
X123210952Y-102385715D02*
X123163333Y-102433334D01*
X123163333Y-102433334D02*
X123115714Y-102528572D01*
X123115714Y-102528572D02*
X123115714Y-102671429D01*
X123115714Y-102671429D02*
X123163333Y-102766667D01*
X123163333Y-102766667D02*
X123258571Y-102814286D01*
X123258571Y-102814286D02*
X123782380Y-102814286D01*
X123734761Y-103671429D02*
X123782380Y-103576191D01*
X123782380Y-103576191D02*
X123782380Y-103385715D01*
X123782380Y-103385715D02*
X123734761Y-103290477D01*
X123734761Y-103290477D02*
X123639523Y-103242858D01*
X123639523Y-103242858D02*
X123258571Y-103242858D01*
X123258571Y-103242858D02*
X123163333Y-103290477D01*
X123163333Y-103290477D02*
X123115714Y-103385715D01*
X123115714Y-103385715D02*
X123115714Y-103576191D01*
X123115714Y-103576191D02*
X123163333Y-103671429D01*
X123163333Y-103671429D02*
X123258571Y-103719048D01*
X123258571Y-103719048D02*
X123353809Y-103719048D01*
X123353809Y-103719048D02*
X123449047Y-103242858D01*
X123782380Y-104147620D02*
X123115714Y-104147620D01*
X123306190Y-104147620D02*
X123210952Y-104195239D01*
X123210952Y-104195239D02*
X123163333Y-104242858D01*
X123163333Y-104242858D02*
X123115714Y-104338096D01*
X123115714Y-104338096D02*
X123115714Y-104433334D01*
X123782380Y-105195239D02*
X123258571Y-105195239D01*
X123258571Y-105195239D02*
X123163333Y-105147620D01*
X123163333Y-105147620D02*
X123115714Y-105052382D01*
X123115714Y-105052382D02*
X123115714Y-104861906D01*
X123115714Y-104861906D02*
X123163333Y-104766668D01*
X123734761Y-105195239D02*
X123782380Y-105100001D01*
X123782380Y-105100001D02*
X123782380Y-104861906D01*
X123782380Y-104861906D02*
X123734761Y-104766668D01*
X123734761Y-104766668D02*
X123639523Y-104719049D01*
X123639523Y-104719049D02*
X123544285Y-104719049D01*
X123544285Y-104719049D02*
X123449047Y-104766668D01*
X123449047Y-104766668D02*
X123401428Y-104861906D01*
X123401428Y-104861906D02*
X123401428Y-105100001D01*
X123401428Y-105100001D02*
X123353809Y-105195239D01*
X123115714Y-105528573D02*
X123115714Y-105909525D01*
X122782380Y-105671430D02*
X123639523Y-105671430D01*
X123639523Y-105671430D02*
X123734761Y-105719049D01*
X123734761Y-105719049D02*
X123782380Y-105814287D01*
X123782380Y-105814287D02*
X123782380Y-105909525D01*
X123782380Y-106385716D02*
X123734761Y-106290478D01*
X123734761Y-106290478D02*
X123687142Y-106242859D01*
X123687142Y-106242859D02*
X123591904Y-106195240D01*
X123591904Y-106195240D02*
X123306190Y-106195240D01*
X123306190Y-106195240D02*
X123210952Y-106242859D01*
X123210952Y-106242859D02*
X123163333Y-106290478D01*
X123163333Y-106290478D02*
X123115714Y-106385716D01*
X123115714Y-106385716D02*
X123115714Y-106528573D01*
X123115714Y-106528573D02*
X123163333Y-106623811D01*
X123163333Y-106623811D02*
X123210952Y-106671430D01*
X123210952Y-106671430D02*
X123306190Y-106719049D01*
X123306190Y-106719049D02*
X123591904Y-106719049D01*
X123591904Y-106719049D02*
X123687142Y-106671430D01*
X123687142Y-106671430D02*
X123734761Y-106623811D01*
X123734761Y-106623811D02*
X123782380Y-106528573D01*
X123782380Y-106528573D02*
X123782380Y-106385716D01*
X123782380Y-107147621D02*
X123115714Y-107147621D01*
X123306190Y-107147621D02*
X123210952Y-107195240D01*
X123210952Y-107195240D02*
X123163333Y-107242859D01*
X123163333Y-107242859D02*
X123115714Y-107338097D01*
X123115714Y-107338097D02*
X123115714Y-107433335D01*
M02*
