%TF.GenerationSoftware,KiCad,Pcbnew,(7.0.0)*%
%TF.CreationDate,2023-08-19T19:02:20+01:00*%
%TF.ProjectId,Nemesis-MixSigPCB,4e656d65-7369-4732-9d4d-697853696750,rev?*%
%TF.SameCoordinates,Original*%
%TF.FileFunction,Copper,L1,Top*%
%TF.FilePolarity,Positive*%
%FSLAX46Y46*%
G04 Gerber Fmt 4.6, Leading zero omitted, Abs format (unit mm)*
G04 Created by KiCad (PCBNEW (7.0.0)) date 2023-08-19 19:02:20*
%MOMM*%
%LPD*%
G01*
G04 APERTURE LIST*
G04 Aperture macros list*
%AMRoundRect*
0 Rectangle with rounded corners*
0 $1 Rounding radius*
0 $2 $3 $4 $5 $6 $7 $8 $9 X,Y pos of 4 corners*
0 Add a 4 corners polygon primitive as box body*
4,1,4,$2,$3,$4,$5,$6,$7,$8,$9,$2,$3,0*
0 Add four circle primitives for the rounded corners*
1,1,$1+$1,$2,$3*
1,1,$1+$1,$4,$5*
1,1,$1+$1,$6,$7*
1,1,$1+$1,$8,$9*
0 Add four rect primitives between the rounded corners*
20,1,$1+$1,$2,$3,$4,$5,0*
20,1,$1+$1,$4,$5,$6,$7,0*
20,1,$1+$1,$6,$7,$8,$9,0*
20,1,$1+$1,$8,$9,$2,$3,0*%
%AMFreePoly0*
4,1,9,3.862500,-0.866500,0.737500,-0.866500,0.737500,-0.450000,-0.737500,-0.450000,-0.737500,0.450000,0.737500,0.450000,0.737500,0.866500,3.862500,0.866500,3.862500,-0.866500,3.862500,-0.866500,$1*%
G04 Aperture macros list end*
%TA.AperFunction,NonConductor*%
%ADD10C,1.120000*%
%TD*%
%TA.AperFunction,SMDPad,CuDef*%
%ADD11R,0.300000X1.450000*%
%TD*%
%TA.AperFunction,SMDPad,CuDef*%
%ADD12RoundRect,0.140000X-0.170000X0.140000X-0.170000X-0.140000X0.170000X-0.140000X0.170000X0.140000X0*%
%TD*%
%TA.AperFunction,SMDPad,CuDef*%
%ADD13RoundRect,0.250000X-0.475000X0.250000X-0.475000X-0.250000X0.475000X-0.250000X0.475000X0.250000X0*%
%TD*%
%TA.AperFunction,SMDPad,CuDef*%
%ADD14RoundRect,0.135000X-0.135000X-0.185000X0.135000X-0.185000X0.135000X0.185000X-0.135000X0.185000X0*%
%TD*%
%TA.AperFunction,SMDPad,CuDef*%
%ADD15RoundRect,0.140000X0.140000X0.170000X-0.140000X0.170000X-0.140000X-0.170000X0.140000X-0.170000X0*%
%TD*%
%TA.AperFunction,SMDPad,CuDef*%
%ADD16RoundRect,0.135000X0.185000X-0.135000X0.185000X0.135000X-0.185000X0.135000X-0.185000X-0.135000X0*%
%TD*%
%TA.AperFunction,SMDPad,CuDef*%
%ADD17RoundRect,0.112500X0.112500X-0.187500X0.112500X0.187500X-0.112500X0.187500X-0.112500X-0.187500X0*%
%TD*%
%TA.AperFunction,SMDPad,CuDef*%
%ADD18RoundRect,0.075000X-0.662500X-0.075000X0.662500X-0.075000X0.662500X0.075000X-0.662500X0.075000X0*%
%TD*%
%TA.AperFunction,SMDPad,CuDef*%
%ADD19RoundRect,0.075000X-0.075000X-0.662500X0.075000X-0.662500X0.075000X0.662500X-0.075000X0.662500X0*%
%TD*%
%TA.AperFunction,SMDPad,CuDef*%
%ADD20RoundRect,0.140000X0.170000X-0.140000X0.170000X0.140000X-0.170000X0.140000X-0.170000X-0.140000X0*%
%TD*%
%TA.AperFunction,SMDPad,CuDef*%
%ADD21RoundRect,0.135000X-0.185000X0.135000X-0.185000X-0.135000X0.185000X-0.135000X0.185000X0.135000X0*%
%TD*%
%TA.AperFunction,SMDPad,CuDef*%
%ADD22RoundRect,0.150000X0.150000X-0.512500X0.150000X0.512500X-0.150000X0.512500X-0.150000X-0.512500X0*%
%TD*%
%TA.AperFunction,SMDPad,CuDef*%
%ADD23RoundRect,0.135000X0.135000X0.185000X-0.135000X0.185000X-0.135000X-0.185000X0.135000X-0.185000X0*%
%TD*%
%TA.AperFunction,SMDPad,CuDef*%
%ADD24RoundRect,0.225000X0.250000X-0.225000X0.250000X0.225000X-0.250000X0.225000X-0.250000X-0.225000X0*%
%TD*%
%TA.AperFunction,SMDPad,CuDef*%
%ADD25RoundRect,0.250000X0.450000X-0.262500X0.450000X0.262500X-0.450000X0.262500X-0.450000X-0.262500X0*%
%TD*%
%TA.AperFunction,SMDPad,CuDef*%
%ADD26R,0.740000X2.400000*%
%TD*%
%TA.AperFunction,SMDPad,CuDef*%
%ADD27RoundRect,0.218750X0.256250X-0.218750X0.256250X0.218750X-0.256250X0.218750X-0.256250X-0.218750X0*%
%TD*%
%TA.AperFunction,SMDPad,CuDef*%
%ADD28R,1.450000X0.600000*%
%TD*%
%TA.AperFunction,SMDPad,CuDef*%
%ADD29R,1.450000X0.300000*%
%TD*%
%TA.AperFunction,ComponentPad*%
%ADD30O,1.600000X1.000000*%
%TD*%
%TA.AperFunction,ComponentPad*%
%ADD31O,2.100000X1.000000*%
%TD*%
%TA.AperFunction,ComponentPad*%
%ADD32C,1.900000*%
%TD*%
%TA.AperFunction,ComponentPad*%
%ADD33C,3.000000*%
%TD*%
%TA.AperFunction,SMDPad,CuDef*%
%ADD34RoundRect,0.150000X0.512500X0.150000X-0.512500X0.150000X-0.512500X-0.150000X0.512500X-0.150000X0*%
%TD*%
%TA.AperFunction,SMDPad,CuDef*%
%ADD35R,2.350000X3.500000*%
%TD*%
%TA.AperFunction,SMDPad,CuDef*%
%ADD36RoundRect,0.250000X0.250000X0.475000X-0.250000X0.475000X-0.250000X-0.475000X0.250000X-0.475000X0*%
%TD*%
%TA.AperFunction,SMDPad,CuDef*%
%ADD37R,1.400000X1.200000*%
%TD*%
%TA.AperFunction,SMDPad,CuDef*%
%ADD38RoundRect,0.140000X-0.140000X-0.170000X0.140000X-0.170000X0.140000X0.170000X-0.140000X0.170000X0*%
%TD*%
%TA.AperFunction,SMDPad,CuDef*%
%ADD39RoundRect,0.225000X-0.250000X0.225000X-0.250000X-0.225000X0.250000X-0.225000X0.250000X0.225000X0*%
%TD*%
%TA.AperFunction,SMDPad,CuDef*%
%ADD40RoundRect,0.150000X0.587500X0.150000X-0.587500X0.150000X-0.587500X-0.150000X0.587500X-0.150000X0*%
%TD*%
%TA.AperFunction,SMDPad,CuDef*%
%ADD41RoundRect,0.225000X0.225000X0.250000X-0.225000X0.250000X-0.225000X-0.250000X0.225000X-0.250000X0*%
%TD*%
%TA.AperFunction,SMDPad,CuDef*%
%ADD42RoundRect,0.112500X-0.112500X0.187500X-0.112500X-0.187500X0.112500X-0.187500X0.112500X0.187500X0*%
%TD*%
%TA.AperFunction,SMDPad,CuDef*%
%ADD43RoundRect,0.112500X0.187500X0.112500X-0.187500X0.112500X-0.187500X-0.112500X0.187500X-0.112500X0*%
%TD*%
%TA.AperFunction,SMDPad,CuDef*%
%ADD44RoundRect,0.112500X-0.187500X-0.112500X0.187500X-0.112500X0.187500X0.112500X-0.187500X0.112500X0*%
%TD*%
%TA.AperFunction,SMDPad,CuDef*%
%ADD45RoundRect,0.225000X-0.225000X-0.250000X0.225000X-0.250000X0.225000X0.250000X-0.225000X0.250000X0*%
%TD*%
%TA.AperFunction,SMDPad,CuDef*%
%ADD46RoundRect,0.150000X-0.512500X-0.150000X0.512500X-0.150000X0.512500X0.150000X-0.512500X0.150000X0*%
%TD*%
%TA.AperFunction,SMDPad,CuDef*%
%ADD47RoundRect,0.147500X0.147500X0.172500X-0.147500X0.172500X-0.147500X-0.172500X0.147500X-0.172500X0*%
%TD*%
%TA.AperFunction,SMDPad,CuDef*%
%ADD48R,1.200000X0.700000*%
%TD*%
%TA.AperFunction,SMDPad,CuDef*%
%ADD49R,0.900000X1.300000*%
%TD*%
%TA.AperFunction,SMDPad,CuDef*%
%ADD50FreePoly0,90.000000*%
%TD*%
%TA.AperFunction,SMDPad,CuDef*%
%ADD51R,1.000000X0.800000*%
%TD*%
%TA.AperFunction,ViaPad*%
%ADD52C,0.800000*%
%TD*%
%TA.AperFunction,ViaPad*%
%ADD53C,0.700000*%
%TD*%
%TA.AperFunction,Conductor*%
%ADD54C,0.293370*%
%TD*%
%TA.AperFunction,Conductor*%
%ADD55C,0.300000*%
%TD*%
%TA.AperFunction,Conductor*%
%ADD56C,0.500000*%
%TD*%
%TA.AperFunction,Conductor*%
%ADD57C,0.261112*%
%TD*%
G04 APERTURE END LIST*
D10*
X145560000Y-82970000D02*
G75*
G03*
X145560000Y-82970000I-560000J0D01*
G01*
D11*
%TO.P,U303,1,VREF*%
%TO.N,/ADC/ADC_VREF*%
X135349999Y-97219999D03*
%TO.P,U303,2,+IN*%
%TO.N,/ADC/ADC_IN+*%
X135849999Y-97219999D03*
%TO.P,U303,3,-IN*%
%TO.N,/ADC/ADC_IN-*%
X136349999Y-97219999D03*
%TO.P,U303,4,GND*%
%TO.N,GND*%
X136849999Y-97219999D03*
%TO.P,U303,5,GND*%
X137349999Y-97219999D03*
%TO.P,U303,6,NCS*%
%TO.N,SPI1_NSS*%
X137349999Y-92819999D03*
%TO.P,U303,7,DOUT*%
%TO.N,SPI1_MISO*%
X136849999Y-92819999D03*
%TO.P,U303,8,SCLK*%
%TO.N,/ADC/ADC_SCLK*%
X136349999Y-92819999D03*
%TO.P,U303,9,VIO*%
%TO.N,+3V3*%
X135849999Y-92819999D03*
%TO.P,U303,10,VA*%
%TO.N,+3.3VA*%
X135349999Y-92819999D03*
%TD*%
%TO.P,U400,1,VOUT_A*%
%TO.N,/DAC/DAC_OUT_A*%
X165349999Y-97219999D03*
%TO.P,U400,2,VOUT_B*%
%TO.N,/DAC/DAC_OUT_B*%
X165849999Y-97219999D03*
%TO.P,U400,3,GND*%
%TO.N,GND*%
X166349999Y-97219999D03*
%TO.P,U400,4,NLDAC*%
%TO.N,DAC_NLDAC*%
X166849999Y-97219999D03*
%TO.P,U400,5,NCLR*%
%TO.N,DAC_NCLR*%
X167349999Y-97219999D03*
%TO.P,U400,6,NSYNC*%
%TO.N,SPI2_NSS*%
X167349999Y-92819999D03*
%TO.P,U400,7,SCLK*%
%TO.N,/DAC/DAC_SCLK*%
X166849999Y-92819999D03*
%TO.P,U400,8,DIN*%
%TO.N,SPI2_MOSI*%
X166349999Y-92819999D03*
%TO.P,U400,9,AVDD*%
%TO.N,+3V3*%
X165849999Y-92819999D03*
%TO.P,U400,10,VREFIN/VREFOUT*%
%TO.N,/DAC/DAC_VREF*%
X165349999Y-92819999D03*
%TD*%
D12*
%TO.P,C303,1*%
%TO.N,Net-(C303-Pad1)*%
X146850000Y-107620000D03*
%TO.P,C303,2*%
%TO.N,GND*%
X146850000Y-108580000D03*
%TD*%
D13*
%TO.P,C105,1*%
%TO.N,+3V3*%
X157840000Y-74170000D03*
%TO.P,C105,2*%
%TO.N,GND*%
X157840000Y-76070000D03*
%TD*%
D14*
%TO.P,R304,1*%
%TO.N,Net-(C305-Pad1)*%
X142980000Y-105745000D03*
%TO.P,R304,2*%
%TO.N,Net-(C303-Pad1)*%
X144000000Y-105745000D03*
%TD*%
D15*
%TO.P,C306,1*%
%TO.N,+3.3VA*%
X142520000Y-98720000D03*
%TO.P,C306,2*%
%TO.N,GND*%
X141560000Y-98720000D03*
%TD*%
D16*
%TO.P,R301,1*%
%TO.N,GND*%
X141210000Y-110720000D03*
%TO.P,R301,2*%
%TO.N,/ADC/IN_RF*%
X141210000Y-109700000D03*
%TD*%
D17*
%TO.P,D202,1,A1*%
%TO.N,/MCU/CONN_SWDIO*%
X139830000Y-73420000D03*
%TO.P,D202,2,A2*%
%TO.N,GND*%
X139830000Y-71320000D03*
%TD*%
D16*
%TO.P,R103,1*%
%TO.N,GND*%
X159840000Y-78280000D03*
%TO.P,R103,2*%
%TO.N,/Power/LED_PWR_K*%
X159840000Y-77260000D03*
%TD*%
D18*
%TO.P,U200,1,VBAT*%
%TO.N,+3V3*%
X140837500Y-80220000D03*
%TO.P,U200,2,PC13*%
%TO.N,unconnected-(U200-PC13-Pad2)*%
X140837500Y-80720000D03*
%TO.P,U200,3,PC14*%
%TO.N,unconnected-(U200-PC14-Pad3)*%
X140837500Y-81220000D03*
%TO.P,U200,4,PC15*%
%TO.N,unconnected-(U200-PC15-Pad4)*%
X140837500Y-81720000D03*
%TO.P,U200,5,PD0*%
%TO.N,/MCU/HSE_IN*%
X140837500Y-82220000D03*
%TO.P,U200,6,PD1*%
%TO.N,/MCU/HSE_OUT*%
X140837500Y-82720000D03*
%TO.P,U200,7,NRST*%
%TO.N,/MCU/NRST*%
X140837500Y-83220000D03*
%TO.P,U200,8,VSSA*%
%TO.N,GND*%
X140837500Y-83720000D03*
%TO.P,U200,9,VDDA*%
%TO.N,VDDA*%
X140837500Y-84220000D03*
%TO.P,U200,10,PA0*%
%TO.N,unconnected-(U200-PA0-Pad10)*%
X140837500Y-84720000D03*
%TO.P,U200,11,PA1*%
%TO.N,unconnected-(U200-PA1-Pad11)*%
X140837500Y-85220000D03*
%TO.P,U200,12,PA2*%
%TO.N,unconnected-(U200-PA2-Pad12)*%
X140837500Y-85720000D03*
D19*
%TO.P,U200,13,PA3*%
%TO.N,unconnected-(U200-PA3-Pad13)*%
X142250000Y-87132500D03*
%TO.P,U200,14,PA4*%
%TO.N,SPI1_NSS*%
X142750000Y-87132500D03*
%TO.P,U200,15,PA5*%
%TO.N,SPI1_SCK*%
X143250000Y-87132500D03*
%TO.P,U200,16,PA6*%
%TO.N,SPI1_MISO*%
X143750000Y-87132500D03*
%TO.P,U200,17,PA7*%
%TO.N,unconnected-(U200-PA7-Pad17)*%
X144250000Y-87132500D03*
%TO.P,U200,18,PB0*%
%TO.N,unconnected-(U200-PB0-Pad18)*%
X144750000Y-87132500D03*
%TO.P,U200,19,PB1*%
%TO.N,unconnected-(U200-PB1-Pad19)*%
X145250000Y-87132500D03*
%TO.P,U200,20,PB2*%
%TO.N,DAC_NCLR*%
X145750000Y-87132500D03*
%TO.P,U200,21,PB10*%
%TO.N,DAC_NLDAC*%
X146250000Y-87132500D03*
%TO.P,U200,22,PB11*%
%TO.N,unconnected-(U200-PB11-Pad22)*%
X146750000Y-87132500D03*
%TO.P,U200,23,VSS*%
%TO.N,GND*%
X147250000Y-87132500D03*
%TO.P,U200,24,VDD*%
%TO.N,+3V3*%
X147750000Y-87132500D03*
D18*
%TO.P,U200,25,PB12*%
%TO.N,SPI2_NSS*%
X149162500Y-85720000D03*
%TO.P,U200,26,PB13*%
%TO.N,SPI2_SCK*%
X149162500Y-85220000D03*
%TO.P,U200,27,PB14*%
%TO.N,unconnected-(U200-PB14-Pad27)*%
X149162500Y-84720000D03*
%TO.P,U200,28,PB15*%
%TO.N,SPI2_MOSI*%
X149162500Y-84220000D03*
%TO.P,U200,29,PA8*%
%TO.N,unconnected-(U200-PA8-Pad29)*%
X149162500Y-83720000D03*
%TO.P,U200,30,PA9*%
%TO.N,unconnected-(U200-PA9-Pad30)*%
X149162500Y-83220000D03*
%TO.P,U200,31,PA10*%
%TO.N,unconnected-(U200-PA10-Pad31)*%
X149162500Y-82720000D03*
%TO.P,U200,32,PA11*%
%TO.N,/MCU/USB_D-*%
X149162500Y-82220000D03*
%TO.P,U200,33,PA12*%
%TO.N,/MCU/USB_D+*%
X149162500Y-81720000D03*
%TO.P,U200,34,PA13*%
%TO.N,/MCU/SWDIO*%
X149162500Y-81220000D03*
%TO.P,U200,35,VSS*%
%TO.N,GND*%
X149162500Y-80720000D03*
%TO.P,U200,36,VDD*%
%TO.N,+3V3*%
X149162500Y-80220000D03*
D19*
%TO.P,U200,37,PA14*%
%TO.N,/MCU/SWCLK*%
X147750000Y-78807500D03*
%TO.P,U200,38,PA15*%
%TO.N,unconnected-(U200-PA15-Pad38)*%
X147250000Y-78807500D03*
%TO.P,U200,39,PB3*%
%TO.N,/MCU/SWO*%
X146750000Y-78807500D03*
%TO.P,U200,40,PB4*%
%TO.N,unconnected-(U200-PB4-Pad40)*%
X146250000Y-78807500D03*
%TO.P,U200,41,PB5*%
%TO.N,unconnected-(U200-PB5-Pad41)*%
X145750000Y-78807500D03*
%TO.P,U200,42,PB6*%
%TO.N,/MCU/TIM4_CH1*%
X145250000Y-78807500D03*
%TO.P,U200,43,PB7*%
%TO.N,/MCU/TIM4_CH2*%
X144750000Y-78807500D03*
%TO.P,U200,44,BOOT0*%
%TO.N,/MCU/BOOT0*%
X144250000Y-78807500D03*
%TO.P,U200,45,PB8*%
%TO.N,/MCU/TIM4_CH3*%
X143750000Y-78807500D03*
%TO.P,U200,46,PB9*%
%TO.N,unconnected-(U200-PB9-Pad46)*%
X143250000Y-78807500D03*
%TO.P,U200,47,VSS*%
%TO.N,GND*%
X142750000Y-78807500D03*
%TO.P,U200,48,VDD*%
%TO.N,+3V3*%
X142250000Y-78807500D03*
%TD*%
D15*
%TO.P,C202,1*%
%TO.N,+3V3*%
X148230000Y-89000000D03*
%TO.P,C202,2*%
%TO.N,GND*%
X147270000Y-89000000D03*
%TD*%
%TO.P,C302,1*%
%TO.N,+3.3VA*%
X144490000Y-108570000D03*
%TO.P,C302,2*%
%TO.N,GND*%
X143530000Y-108570000D03*
%TD*%
D14*
%TO.P,R305,1*%
%TO.N,/ADC/IN_AA_BUF_IN*%
X140180000Y-104745000D03*
%TO.P,R305,2*%
%TO.N,Net-(C305-Pad1)*%
X141200000Y-104745000D03*
%TD*%
D20*
%TO.P,C305,1*%
%TO.N,Net-(C305-Pad1)*%
X143000000Y-104545000D03*
%TO.P,C305,2*%
%TO.N,/ADC/IN_AA_BUF_OUT*%
X143000000Y-103585000D03*
%TD*%
D15*
%TO.P,C212,1*%
%TO.N,/MCU/NRST*%
X130520000Y-76850000D03*
%TO.P,C212,2*%
%TO.N,GND*%
X129560000Y-76850000D03*
%TD*%
D21*
%TO.P,R303,1*%
%TO.N,Net-(C303-Pad1)*%
X145650000Y-107590000D03*
%TO.P,R303,2*%
%TO.N,/ADC/IN_BUF_OUT*%
X145650000Y-108610000D03*
%TD*%
D22*
%TO.P,U102,1*%
%TO.N,VCOM*%
X148400000Y-108137500D03*
%TO.P,U102,2,V-*%
%TO.N,GND*%
X149350000Y-108137500D03*
%TO.P,U102,3,+*%
%TO.N,/Power/VREF*%
X150300000Y-108137500D03*
%TO.P,U102,4,-*%
%TO.N,VCOM*%
X150300000Y-105862500D03*
%TO.P,U102,5,V+*%
%TO.N,+3.3VA*%
X148400000Y-105862500D03*
%TD*%
D14*
%TO.P,R403,1*%
%TO.N,Net-(C405-Pad1)*%
X162190000Y-98020000D03*
%TO.P,R403,2*%
%TO.N,Net-(C403-Pad1)*%
X163210000Y-98020000D03*
%TD*%
D23*
%TO.P,R213,1*%
%TO.N,/MCU/NRST*%
X130550000Y-75600000D03*
%TO.P,R213,2*%
%TO.N,/MCU/CONN_NRST*%
X129530000Y-75600000D03*
%TD*%
%TO.P,R211,1*%
%TO.N,/MCU/SWCLK*%
X140060000Y-75600000D03*
%TO.P,R211,2*%
%TO.N,/MCU/CONN_SWCLK*%
X139040000Y-75600000D03*
%TD*%
D24*
%TO.P,C200,1*%
%TO.N,+3V3*%
X137400000Y-79995000D03*
%TO.P,C200,2*%
%TO.N,GND*%
X137400000Y-78445000D03*
%TD*%
D16*
%TO.P,R201,1*%
%TO.N,/MCU/HSE_OUT*%
X129450000Y-81760000D03*
%TO.P,R201,2*%
%TO.N,/MCU/XTAL_IN*%
X129450000Y-80740000D03*
%TD*%
D20*
%TO.P,C201,1*%
%TO.N,+3V3*%
X139040000Y-80220000D03*
%TO.P,C201,2*%
%TO.N,GND*%
X139040000Y-79260000D03*
%TD*%
D13*
%TO.P,C104,1*%
%TO.N,+5V*%
X150840000Y-74170000D03*
%TO.P,C104,2*%
%TO.N,GND*%
X150840000Y-76070000D03*
%TD*%
D20*
%TO.P,C203,1*%
%TO.N,+3V3*%
X151100000Y-80080000D03*
%TO.P,C203,2*%
%TO.N,GND*%
X151100000Y-79120000D03*
%TD*%
D14*
%TO.P,R205,1*%
%TO.N,/MCU/USB_CONN_CC1*%
X168290000Y-89000000D03*
%TO.P,R205,2*%
%TO.N,GND*%
X169310000Y-89000000D03*
%TD*%
D16*
%TO.P,R207,1*%
%TO.N,/MCU/TIM4_CH1*%
X146250000Y-72470000D03*
%TO.P,R207,2*%
%TO.N,/MCU/LED_R_K*%
X146250000Y-71450000D03*
%TD*%
D24*
%TO.P,C206,1*%
%TO.N,VDDA*%
X137540000Y-85720000D03*
%TO.P,C206,2*%
%TO.N,GND*%
X137540000Y-84170000D03*
%TD*%
%TO.P,C400,1*%
%TO.N,+3V3*%
X163850000Y-91475000D03*
%TO.P,C400,2*%
%TO.N,GND*%
X163850000Y-89925000D03*
%TD*%
D25*
%TO.P,R100,1*%
%TO.N,/Power/+5V_FILT*%
X145000000Y-95932500D03*
%TO.P,R100,2*%
%TO.N,+5V*%
X145000000Y-94107500D03*
%TD*%
D26*
%TO.P,J201,1,Pin_1*%
%TO.N,+3V3*%
X137289999Y-68619999D03*
%TO.P,J201,2,Pin_2*%
%TO.N,/MCU/CONN_SWDIO*%
X137289999Y-72519999D03*
%TO.P,J201,3,Pin_3*%
%TO.N,GND*%
X136019999Y-68619999D03*
%TO.P,J201,4,Pin_4*%
%TO.N,/MCU/CONN_SWCLK*%
X136019999Y-72519999D03*
%TO.P,J201,5,Pin_5*%
%TO.N,GND*%
X134749999Y-68619999D03*
%TO.P,J201,6,Pin_6*%
%TO.N,/MCU/CONN_SWO*%
X134749999Y-72519999D03*
%TO.P,J201,7,Pin_7*%
%TO.N,unconnected-(J201-Pin_7-Pad7)*%
X133479999Y-68619999D03*
%TO.P,J201,8,Pin_8*%
%TO.N,unconnected-(J201-Pin_8-Pad8)*%
X133479999Y-72519999D03*
%TO.P,J201,9,Pin_9*%
%TO.N,GND*%
X132209999Y-68619999D03*
%TO.P,J201,10,Pin_10*%
%TO.N,/MCU/CONN_NRST*%
X132209999Y-72519999D03*
%TD*%
D15*
%TO.P,C210,1*%
%TO.N,VBUS*%
X158980000Y-85700000D03*
%TO.P,C210,2*%
%TO.N,GND*%
X158020000Y-85700000D03*
%TD*%
D27*
%TO.P,D100,1,K*%
%TO.N,/Power/LED_PWR_K*%
X159840000Y-75887500D03*
%TO.P,D100,2,A*%
%TO.N,+3V3*%
X159840000Y-74312500D03*
%TD*%
D12*
%TO.P,C209,1*%
%TO.N,/MCU/XTAL_IN*%
X130700000Y-80790000D03*
%TO.P,C209,2*%
%TO.N,GND*%
X130700000Y-81750000D03*
%TD*%
D21*
%TO.P,R306,1*%
%TO.N,/ADC/ADC_IN+*%
X136400000Y-100400000D03*
%TO.P,R306,2*%
%TO.N,/ADC/IN_AA_BUF_OUT*%
X136400000Y-101420000D03*
%TD*%
D28*
%TO.P,J200,A1,GND*%
%TO.N,GND*%
X163844999Y-86219999D03*
%TO.P,J200,A4,VBUS*%
%TO.N,VBUS*%
X163844999Y-85419999D03*
D29*
%TO.P,J200,A5,CC1*%
%TO.N,/MCU/USB_CONN_CC1*%
X163844999Y-84219999D03*
%TO.P,J200,A6,D+*%
%TO.N,/MCU/USB_CONN_D+*%
X163844999Y-83219999D03*
%TO.P,J200,A7,D-*%
%TO.N,/MCU/USB_CONN_D-*%
X163844999Y-82719999D03*
%TO.P,J200,A8,SBU1*%
%TO.N,unconnected-(J200-SBU1-PadA8)*%
X163844999Y-81719999D03*
D28*
%TO.P,J200,A9,VBUS*%
%TO.N,VBUS*%
X163844999Y-80519999D03*
%TO.P,J200,A12,GND*%
%TO.N,GND*%
X163844999Y-79719999D03*
%TO.P,J200,B1,GND*%
X163844999Y-79719999D03*
%TO.P,J200,B4,VBUS*%
%TO.N,VBUS*%
X163844999Y-80519999D03*
D29*
%TO.P,J200,B5,CC2*%
%TO.N,/MCU/USB_CONN_CC2*%
X163844999Y-81219999D03*
%TO.P,J200,B6,D+*%
%TO.N,/MCU/USB_CONN_D+*%
X163844999Y-82219999D03*
%TO.P,J200,B7,D-*%
%TO.N,/MCU/USB_CONN_D-*%
X163844999Y-83719999D03*
%TO.P,J200,B8,SBU2*%
%TO.N,unconnected-(J200-SBU2-PadB8)*%
X163844999Y-84719999D03*
D28*
%TO.P,J200,B9,VBUS*%
%TO.N,VBUS*%
X163844999Y-85419999D03*
%TO.P,J200,B12,GND*%
%TO.N,GND*%
X163844999Y-86219999D03*
D30*
%TO.P,J200,S1,SHIELD*%
%TO.N,unconnected-(J200-SHIELD-PadS1)*%
X168939999Y-87289999D03*
D31*
X164759999Y-87289999D03*
X164759999Y-78649999D03*
D30*
X168939999Y-78649999D03*
%TD*%
D16*
%TO.P,R300,1*%
%TO.N,/ADC/IN_RF*%
X141210000Y-108610000D03*
%TO.P,R300,2*%
%TO.N,/ADC/IN*%
X141210000Y-107590000D03*
%TD*%
D32*
%TO.P,J400,1,In*%
%TO.N,/DAC/OUT*%
X160000000Y-110020000D03*
D33*
%TO.P,J400,2,Ext*%
%TO.N,GND*%
X165080000Y-115100000D03*
D32*
X162540000Y-110020000D03*
D33*
X154920000Y-115100000D03*
%TD*%
D34*
%TO.P,U101,1,EN*%
%TO.N,+5V*%
X155477500Y-76070000D03*
%TO.P,U101,2,GND*%
%TO.N,GND*%
X155477500Y-75120000D03*
%TO.P,U101,3,SW*%
%TO.N,/Power/BUCK_SW*%
X155477500Y-74170000D03*
%TO.P,U101,4,VIN*%
%TO.N,+5V*%
X153202500Y-74170000D03*
%TO.P,U101,5,FB*%
%TO.N,/Power/BUCK_FB*%
X153202500Y-76070000D03*
%TD*%
D22*
%TO.P,U401,1*%
%TO.N,/DAC/OUT_AA_BUF_OUT*%
X157510000Y-100620000D03*
%TO.P,U401,2,V-*%
%TO.N,GND*%
X158460000Y-100620000D03*
%TO.P,U401,3,+*%
%TO.N,/DAC/OUT_AA_BUF_IN*%
X159410000Y-100620000D03*
%TO.P,U401,4,-*%
%TO.N,/DAC/OUT_AA_BUF_OUT*%
X159410000Y-98345000D03*
%TO.P,U401,5,V+*%
%TO.N,+3.3VA*%
X157510000Y-98345000D03*
%TD*%
D35*
%TO.P,L101,1,1*%
%TO.N,/Power/BUCK_SW*%
X151539999Y-69604999D03*
%TO.P,L101,2,2*%
%TO.N,+3V3*%
X157589999Y-69604999D03*
%TD*%
D21*
%TO.P,R309,1*%
%TO.N,SPI1_SCK*%
X136350000Y-90000000D03*
%TO.P,R309,2*%
%TO.N,/ADC/ADC_SCLK*%
X136350000Y-91020000D03*
%TD*%
D36*
%TO.P,C103,1*%
%TO.N,+3.3VA*%
X149450000Y-102100000D03*
%TO.P,C103,2*%
%TO.N,GND*%
X147550000Y-102100000D03*
%TD*%
D37*
%TO.P,Y200,1,1*%
%TO.N,/MCU/HSE_IN*%
X134599999Y-78519999D03*
%TO.P,Y200,2,2*%
%TO.N,GND*%
X132399999Y-78519999D03*
%TO.P,Y200,3,3*%
%TO.N,/MCU/XTAL_IN*%
X132399999Y-80219999D03*
%TO.P,Y200,4,4*%
%TO.N,GND*%
X134599999Y-80219999D03*
%TD*%
D38*
%TO.P,C307,1*%
%TO.N,/ADC/ADC_IN+*%
X136520000Y-99200000D03*
%TO.P,C307,2*%
%TO.N,/ADC/ADC_IN-*%
X137480000Y-99200000D03*
%TD*%
D23*
%TO.P,R105,1*%
%TO.N,GND*%
X152570000Y-104250000D03*
%TO.P,R105,2*%
%TO.N,/Power/VREF*%
X151550000Y-104250000D03*
%TD*%
D21*
%TO.P,R400,1*%
%TO.N,SPI2_SCK*%
X166400000Y-90190000D03*
%TO.P,R400,2*%
%TO.N,/DAC/DAC_SCLK*%
X166400000Y-91210000D03*
%TD*%
D39*
%TO.P,C312,1*%
%TO.N,+3.3VA*%
X132502500Y-92470000D03*
%TO.P,C312,2*%
%TO.N,GND*%
X132502500Y-94020000D03*
%TD*%
D38*
%TO.P,C404,1*%
%TO.N,/DAC/OUT_AA_BUF_IN*%
X161020000Y-100400000D03*
%TO.P,C404,2*%
%TO.N,GND*%
X161980000Y-100400000D03*
%TD*%
D40*
%TO.P,U302,1,IN*%
%TO.N,/ADC/ADC_VREF_VIN*%
X130752500Y-99520000D03*
%TO.P,U302,2,OUT*%
%TO.N,/ADC/ADC_VREF*%
X130752500Y-97620000D03*
%TO.P,U302,3,GND*%
%TO.N,GND*%
X128877500Y-98570000D03*
%TD*%
D16*
%TO.P,R202,1*%
%TO.N,+3V3*%
X150850000Y-87070000D03*
%TO.P,R202,2*%
%TO.N,SPI2_NSS*%
X150850000Y-86050000D03*
%TD*%
D41*
%TO.P,C100,1*%
%TO.N,VBUS*%
X158075000Y-80770000D03*
%TO.P,C100,2*%
%TO.N,GND*%
X156525000Y-80770000D03*
%TD*%
D13*
%TO.P,C102,1*%
%TO.N,/Power/+5V_FILT*%
X145040000Y-98270000D03*
%TO.P,C102,2*%
%TO.N,GND*%
X145040000Y-100170000D03*
%TD*%
D12*
%TO.P,C313,1*%
%TO.N,+3.3VA*%
X134002500Y-92260000D03*
%TO.P,C313,2*%
%TO.N,GND*%
X134002500Y-93220000D03*
%TD*%
D42*
%TO.P,D201,1,A1*%
%TO.N,+3V3*%
X139800000Y-67300000D03*
%TO.P,D201,2,A2*%
%TO.N,GND*%
X139800000Y-69400000D03*
%TD*%
D15*
%TO.P,C314,1*%
%TO.N,+3V3*%
X134064229Y-90925838D03*
%TO.P,C314,2*%
%TO.N,GND*%
X133104229Y-90925838D03*
%TD*%
D42*
%TO.P,D300,1,A1*%
%TO.N,/ADC/IN*%
X139670000Y-107747500D03*
%TO.P,D300,2,A2*%
%TO.N,GND*%
X139670000Y-109847500D03*
%TD*%
D43*
%TO.P,D204,1,A1*%
%TO.N,/MCU/CONN_SWO*%
X134040000Y-76220000D03*
%TO.P,D204,2,A2*%
%TO.N,GND*%
X131940000Y-76220000D03*
%TD*%
D44*
%TO.P,D400,1,A1*%
%TO.N,/DAC/OUT*%
X160890000Y-102270000D03*
%TO.P,D400,2,A2*%
%TO.N,GND*%
X162990000Y-102270000D03*
%TD*%
D45*
%TO.P,C101,1*%
%TO.N,+5V*%
X156525000Y-77770000D03*
%TO.P,C101,2*%
%TO.N,GND*%
X158075000Y-77770000D03*
%TD*%
D15*
%TO.P,C108,1*%
%TO.N,+3.3VA*%
X148590000Y-104242500D03*
%TO.P,C108,2*%
%TO.N,GND*%
X147630000Y-104242500D03*
%TD*%
D46*
%TO.P,U301,1*%
%TO.N,/ADC/IN_AA_BUF_OUT*%
X140265000Y-100070000D03*
%TO.P,U301,2,V-*%
%TO.N,GND*%
X140265000Y-101020000D03*
%TO.P,U301,3,+*%
%TO.N,/ADC/IN_AA_BUF_IN*%
X140265000Y-101970000D03*
%TO.P,U301,4,-*%
%TO.N,/ADC/IN_AA_BUF_OUT*%
X142540000Y-101970000D03*
%TO.P,U301,5,V+*%
%TO.N,+3.3VA*%
X142540000Y-100070000D03*
%TD*%
D21*
%TO.P,R203,1*%
%TO.N,+3V3*%
X140600000Y-87490000D03*
%TO.P,R203,2*%
%TO.N,SPI1_NSS*%
X140600000Y-88510000D03*
%TD*%
D12*
%TO.P,C211,1*%
%TO.N,+3V3*%
X147490000Y-69160000D03*
%TO.P,C211,2*%
%TO.N,GND*%
X147490000Y-70120000D03*
%TD*%
D24*
%TO.P,C310,1*%
%TO.N,/ADC/ADC_VREF*%
X132752500Y-97560000D03*
%TO.P,C310,2*%
%TO.N,GND*%
X132752500Y-96010000D03*
%TD*%
D45*
%TO.P,C308,1*%
%TO.N,+5V*%
X133002500Y-101270000D03*
%TO.P,C308,2*%
%TO.N,GND*%
X134552500Y-101270000D03*
%TD*%
D21*
%TO.P,R308,1*%
%TO.N,/ADC/ADC_VREF_VIN*%
X131502500Y-101035000D03*
%TO.P,R308,2*%
%TO.N,+5V*%
X131502500Y-102055000D03*
%TD*%
D14*
%TO.P,R402,1*%
%TO.N,Net-(C403-Pad1)*%
X163300000Y-99220000D03*
%TO.P,R402,2*%
%TO.N,/DAC/DAC_OUT_A*%
X164320000Y-99220000D03*
%TD*%
D16*
%TO.P,R209,1*%
%TO.N,/MCU/TIM4_CH2*%
X144990000Y-72470000D03*
%TO.P,R209,2*%
%TO.N,/MCU/LED_B_K*%
X144990000Y-71450000D03*
%TD*%
D47*
%TO.P,L200,1,1*%
%TO.N,VDDA*%
X137040000Y-87220000D03*
%TO.P,L200,2,2*%
%TO.N,+3V3*%
X136070000Y-87220000D03*
%TD*%
D23*
%TO.P,R212,1*%
%TO.N,/MCU/SWO*%
X140060000Y-76850000D03*
%TO.P,R212,2*%
%TO.N,/MCU/CONN_SWO*%
X139040000Y-76850000D03*
%TD*%
D21*
%TO.P,R204,1*%
%TO.N,+3V3*%
X152377500Y-80710000D03*
%TO.P,R204,2*%
%TO.N,/MCU/USB_D+*%
X152377500Y-81730000D03*
%TD*%
D16*
%TO.P,R200,1*%
%TO.N,/MCU/BOOT0*%
X144600000Y-76400000D03*
%TO.P,R200,2*%
%TO.N,GND*%
X144600000Y-75380000D03*
%TD*%
D15*
%TO.P,C106,1*%
%TO.N,+3V3*%
X154820000Y-78770000D03*
%TO.P,C106,2*%
%TO.N,/Power/BUCK_FB*%
X153860000Y-78770000D03*
%TD*%
D38*
%TO.P,C406,1*%
%TO.N,+3.3VA*%
X157450000Y-96820000D03*
%TO.P,C406,2*%
%TO.N,GND*%
X158410000Y-96820000D03*
%TD*%
D41*
%TO.P,C315,1*%
%TO.N,+3V3*%
X134359229Y-89425838D03*
%TO.P,C315,2*%
%TO.N,GND*%
X132809229Y-89425838D03*
%TD*%
D20*
%TO.P,C401,1*%
%TO.N,+3V3*%
X165250000Y-91300000D03*
%TO.P,C401,2*%
%TO.N,GND*%
X165250000Y-90340000D03*
%TD*%
D14*
%TO.P,R401,1*%
%TO.N,/DAC/DAC_OUT_B*%
X165410000Y-99220000D03*
%TO.P,R401,2*%
%TO.N,GND*%
X166430000Y-99220000D03*
%TD*%
D20*
%TO.P,C301,1*%
%TO.N,/ADC/IN_BUF*%
X142410000Y-110670000D03*
%TO.P,C301,2*%
%TO.N,/ADC/IN_RF*%
X142410000Y-109710000D03*
%TD*%
D38*
%TO.P,C204,1*%
%TO.N,+3V3*%
X142040000Y-76960000D03*
%TO.P,C204,2*%
%TO.N,GND*%
X143000000Y-76960000D03*
%TD*%
%TO.P,C403,1*%
%TO.N,Net-(C403-Pad1)*%
X163330000Y-100420000D03*
%TO.P,C403,2*%
%TO.N,GND*%
X164290000Y-100420000D03*
%TD*%
D16*
%TO.P,R405,1*%
%TO.N,/DAC/OUT*%
X157500000Y-103262500D03*
%TO.P,R405,2*%
%TO.N,/DAC/OUT_AA_BUF_OUT*%
X157500000Y-102242500D03*
%TD*%
D12*
%TO.P,C405,1*%
%TO.N,Net-(C405-Pad1)*%
X161000000Y-97120000D03*
%TO.P,C405,2*%
%TO.N,/DAC/OUT_AA_BUF_OUT*%
X161000000Y-98080000D03*
%TD*%
D24*
%TO.P,C207,1*%
%TO.N,+3V3*%
X135540000Y-85720000D03*
%TO.P,C207,2*%
%TO.N,GND*%
X135540000Y-84170000D03*
%TD*%
D20*
%TO.P,C300,1*%
%TO.N,/ADC/IN_RF*%
X142410000Y-108580000D03*
%TO.P,C300,2*%
%TO.N,GND*%
X142410000Y-107620000D03*
%TD*%
D13*
%TO.P,C107,1*%
%TO.N,/Power/VREF*%
X150300000Y-110095000D03*
%TO.P,C107,2*%
%TO.N,GND*%
X150300000Y-111995000D03*
%TD*%
D48*
%TO.P,L201,1,1*%
%TO.N,/MCU/USB_CMC_D-*%
X156539999Y-83919999D03*
%TO.P,L201,2,2*%
%TO.N,/MCU/USB_CMC_D+*%
X156539999Y-82819999D03*
%TO.P,L201,3,3*%
%TO.N,/MCU/USB_D+*%
X153889999Y-82819999D03*
%TO.P,L201,4,4*%
%TO.N,/MCU/USB_D-*%
X153889999Y-83919999D03*
%TD*%
D20*
%TO.P,C205,1*%
%TO.N,VDDA*%
X139040000Y-84950000D03*
%TO.P,C205,2*%
%TO.N,GND*%
X139040000Y-83990000D03*
%TD*%
D49*
%TO.P,U100,1,GND*%
%TO.N,GND*%
X147539999Y-100019999D03*
D50*
%TO.P,U100,2,VIN*%
%TO.N,/Power/+5V_FILT*%
X149040000Y-99932500D03*
D49*
%TO.P,U100,3,VOUT*%
%TO.N,+3.3VA*%
X150539999Y-100019999D03*
%TD*%
D14*
%TO.P,R102,1*%
%TO.N,GND*%
X151580000Y-77520000D03*
%TO.P,R102,2*%
%TO.N,/Power/BUCK_FB*%
X152600000Y-77520000D03*
%TD*%
%TO.P,R101,1*%
%TO.N,/Power/BUCK_FB*%
X153830000Y-77520000D03*
%TO.P,R101,2*%
%TO.N,+3V3*%
X154850000Y-77520000D03*
%TD*%
D23*
%TO.P,R104,1*%
%TO.N,/Power/VREF*%
X150600000Y-104250000D03*
%TO.P,R104,2*%
%TO.N,+3.3VA*%
X149580000Y-104250000D03*
%TD*%
D41*
%TO.P,C402,1*%
%TO.N,/DAC/DAC_VREF*%
X163850000Y-93150000D03*
%TO.P,C402,2*%
%TO.N,GND*%
X162300000Y-93150000D03*
%TD*%
D16*
%TO.P,R208,1*%
%TO.N,/MCU/TIM4_CH3*%
X143750000Y-72470000D03*
%TO.P,R208,2*%
%TO.N,/MCU/LED_G_K*%
X143750000Y-71450000D03*
%TD*%
D21*
%TO.P,R307,1*%
%TO.N,/ADC/ADC_IN-*%
X137600000Y-100400000D03*
%TO.P,R307,2*%
%TO.N,VCOM*%
X137600000Y-101420000D03*
%TD*%
D16*
%TO.P,R210,1*%
%TO.N,/MCU/SWDIO*%
X148950000Y-77710000D03*
%TO.P,R210,2*%
%TO.N,/MCU/CONN_SWDIO*%
X148950000Y-76690000D03*
%TD*%
D38*
%TO.P,C304,1*%
%TO.N,/ADC/IN_AA_BUF_IN*%
X140210000Y-103545000D03*
%TO.P,C304,2*%
%TO.N,GND*%
X141170000Y-103545000D03*
%TD*%
D14*
%TO.P,R404,1*%
%TO.N,/DAC/OUT_AA_BUF_IN*%
X160990000Y-99220000D03*
%TO.P,R404,2*%
%TO.N,Net-(C405-Pad1)*%
X162010000Y-99220000D03*
%TD*%
D34*
%TO.P,U201,1,I/O1*%
%TO.N,/MCU/USB_CONN_D-*%
X160927500Y-84320000D03*
%TO.P,U201,2,GND*%
%TO.N,GND*%
X160927500Y-83370000D03*
%TO.P,U201,3,I/O2*%
%TO.N,/MCU/USB_CONN_D+*%
X160927500Y-82420000D03*
%TO.P,U201,4,I/O2*%
%TO.N,/MCU/USB_CMC_D+*%
X158652500Y-82420000D03*
%TO.P,U201,5,VBUS*%
%TO.N,VBUS*%
X158652500Y-83370000D03*
%TO.P,U201,6,I/O1*%
%TO.N,/MCU/USB_CMC_D-*%
X158652500Y-84320000D03*
%TD*%
D14*
%TO.P,R206,1*%
%TO.N,/MCU/USB_CONN_CC2*%
X168290000Y-77000000D03*
%TO.P,R206,2*%
%TO.N,GND*%
X169310000Y-77000000D03*
%TD*%
D45*
%TO.P,C309,1*%
%TO.N,/ADC/ADC_VREF_VIN*%
X132977500Y-99520000D03*
%TO.P,C309,2*%
%TO.N,GND*%
X134527500Y-99520000D03*
%TD*%
D15*
%TO.P,C208,1*%
%TO.N,/MCU/HSE_IN*%
X135960000Y-81720000D03*
%TO.P,C208,2*%
%TO.N,GND*%
X135000000Y-81720000D03*
%TD*%
D22*
%TO.P,U300,1*%
%TO.N,/ADC/IN_BUF_OUT*%
X144750000Y-112467500D03*
%TO.P,U300,2,V-*%
%TO.N,GND*%
X145700000Y-112467500D03*
%TO.P,U300,3,+*%
%TO.N,/ADC/IN_BUF*%
X146650000Y-112467500D03*
%TO.P,U300,4,-*%
%TO.N,/ADC/IN_BUF_OUT*%
X146650000Y-110192500D03*
%TO.P,U300,5,V+*%
%TO.N,+3.3VA*%
X144750000Y-110192500D03*
%TD*%
D17*
%TO.P,D205,1,A1*%
%TO.N,/MCU/CONN_NRST*%
X129680000Y-69570000D03*
%TO.P,D205,2,A2*%
%TO.N,GND*%
X129680000Y-67470000D03*
%TD*%
D16*
%TO.P,R302,1*%
%TO.N,/ADC/IN_BUF*%
X148400000Y-111310000D03*
%TO.P,R302,2*%
%TO.N,VCOM*%
X148400000Y-110290000D03*
%TD*%
D32*
%TO.P,J300,1,In*%
%TO.N,/ADC/IN*%
X130000000Y-110020000D03*
D33*
%TO.P,J300,2,Ext*%
%TO.N,GND*%
X135080000Y-115100000D03*
D32*
X132540000Y-110020000D03*
D33*
X124920000Y-115100000D03*
%TD*%
D47*
%TO.P,L100,1,1*%
%TO.N,VBUS*%
X157785000Y-79270000D03*
%TO.P,L100,2,2*%
%TO.N,+5V*%
X156815000Y-79270000D03*
%TD*%
D20*
%TO.P,C311,1*%
%TO.N,/ADC/ADC_VREF*%
X134252500Y-97520000D03*
%TO.P,C311,2*%
%TO.N,GND*%
X134252500Y-96560000D03*
%TD*%
D43*
%TO.P,D203,1,A1*%
%TO.N,/MCU/CONN_SWCLK*%
X137590000Y-76220000D03*
%TO.P,D203,2,A2*%
%TO.N,GND*%
X135490000Y-76220000D03*
%TD*%
D51*
%TO.P,D200,1*%
%TO.N,/MCU/LED_G_K*%
X144249999Y-68719999D03*
%TO.P,D200,2*%
%TO.N,+3V3*%
X145749999Y-68719999D03*
%TO.P,D200,3*%
%TO.N,/MCU/LED_R_K*%
X145749999Y-69819999D03*
%TO.P,D200,4*%
%TO.N,/MCU/LED_B_K*%
X144249999Y-69819999D03*
%TD*%
D52*
%TO.N,GND*%
X147500000Y-115000000D03*
X147500000Y-120000000D03*
X142500000Y-120000000D03*
X142500000Y-122500000D03*
X145000000Y-122500000D03*
X147500000Y-122500000D03*
X147500000Y-117500000D03*
X145000000Y-117500000D03*
X142500000Y-117500000D03*
X127500000Y-70000000D03*
X127500000Y-67500000D03*
X125000000Y-67500000D03*
X122500000Y-67500000D03*
X122500000Y-70000000D03*
X122500000Y-72500000D03*
X125000000Y-72500000D03*
X160000000Y-70000000D03*
X160000000Y-67500000D03*
X167500000Y-67500000D03*
X165000000Y-67500000D03*
X162500000Y-67500000D03*
X162500000Y-70000000D03*
X165000000Y-72500000D03*
X167500000Y-72500000D03*
X167500000Y-75000000D03*
X165000000Y-75000000D03*
X162500000Y-75000000D03*
X155000000Y-97500000D03*
X152500000Y-97500000D03*
X152500000Y-102500000D03*
X155000000Y-102500000D03*
X167500000Y-102500000D03*
X165000000Y-112500000D03*
X162500000Y-112500000D03*
X162500000Y-115000000D03*
X157500000Y-115000000D03*
X160000000Y-115000000D03*
X160000000Y-112500000D03*
X157500000Y-110000000D03*
X157500000Y-112500000D03*
X155000000Y-112500000D03*
X152500000Y-112500000D03*
X135000000Y-110000000D03*
X135000000Y-112500000D03*
X132500000Y-112500000D03*
X132500000Y-115000000D03*
X127500000Y-115000000D03*
X130000000Y-115000000D03*
X135000000Y-117500000D03*
X132500000Y-117500000D03*
X130000000Y-117500000D03*
X127500000Y-117500000D03*
X125000000Y-117500000D03*
X122500000Y-117500000D03*
X157500000Y-117500000D03*
X160000000Y-117500000D03*
X167500000Y-115000000D03*
X167500000Y-112500000D03*
X167500000Y-110000000D03*
X167500000Y-105000000D03*
X167500000Y-107500000D03*
X165000000Y-107500000D03*
X165000000Y-105000000D03*
X162500000Y-105000000D03*
X162500000Y-107500000D03*
X157500000Y-107500000D03*
X157500000Y-105000000D03*
X152500000Y-105000000D03*
X155000000Y-105000000D03*
X155000000Y-107500000D03*
X152500000Y-107500000D03*
X152500000Y-110000000D03*
X155000000Y-110000000D03*
X152500000Y-120000000D03*
X155000000Y-120000000D03*
X157500000Y-120000000D03*
X160000000Y-120000000D03*
X160000000Y-122500000D03*
X157500000Y-122500000D03*
X155000000Y-122500000D03*
X152500000Y-122500000D03*
X122500000Y-122500000D03*
X125000000Y-122500000D03*
X127500000Y-122500000D03*
X130000000Y-122500000D03*
X132500000Y-122500000D03*
X137500000Y-122500000D03*
X135000000Y-122500000D03*
X140000000Y-122500000D03*
X150000000Y-122500000D03*
X150000000Y-120000000D03*
X150000000Y-115000000D03*
X150000000Y-117500000D03*
X137500000Y-110000000D03*
X140000000Y-112500000D03*
X140000000Y-115000000D03*
X140000000Y-117500000D03*
X140000000Y-120000000D03*
X137500000Y-120000000D03*
X135000000Y-120000000D03*
X132500000Y-120000000D03*
X122500000Y-120000000D03*
X125000000Y-120000000D03*
X127500000Y-120000000D03*
X130000000Y-120000000D03*
X130000000Y-112500000D03*
X127500000Y-112500000D03*
X125000000Y-112500000D03*
X122500000Y-112500000D03*
X122500000Y-110000000D03*
X125000000Y-110000000D03*
X127500000Y-110000000D03*
X127500000Y-107500000D03*
X125000000Y-107500000D03*
X137500000Y-105000000D03*
X135000000Y-105000000D03*
X132500000Y-105000000D03*
X125000000Y-102500000D03*
X125000000Y-105000000D03*
X127500000Y-105000000D03*
X130000000Y-105000000D03*
X130000000Y-102500000D03*
X127500000Y-102500000D03*
X127500000Y-100000000D03*
X125000000Y-100000000D03*
X125000000Y-97500000D03*
X127500000Y-97500000D03*
X125000000Y-92500000D03*
X127500000Y-92500000D03*
X130000000Y-92500000D03*
X125000000Y-87500000D03*
X130000000Y-87500000D03*
X132500000Y-87500000D03*
X132500000Y-85000000D03*
X130000000Y-85000000D03*
X127500000Y-85000000D03*
X125000000Y-85000000D03*
X122500000Y-82500000D03*
X125000000Y-82500000D03*
X127500000Y-82500000D03*
X127500000Y-80000000D03*
X125000000Y-80000000D03*
X122500000Y-80000000D03*
X122500000Y-77500000D03*
X125000000Y-77500000D03*
X127500000Y-77500000D03*
X127500000Y-75000000D03*
X125000000Y-75000000D03*
X122500000Y-75000000D03*
D53*
X137600000Y-103350000D03*
X136400000Y-103350000D03*
X135600000Y-100400000D03*
X135600000Y-99500000D03*
X146850000Y-103600000D03*
X132750000Y-103500000D03*
X143000000Y-95750000D03*
X143800000Y-106750000D03*
X145400000Y-101400000D03*
X146400000Y-102400000D03*
X146400000Y-101400000D03*
%TO.N,+5V*%
X132750000Y-102450000D03*
X142400000Y-95050000D03*
%TO.N,GND*%
X158850000Y-102150000D03*
%TO.N,/ADC/IN_AA_BUF_OUT*%
X138750000Y-100050000D03*
X136400000Y-102400000D03*
%TO.N,+3.3VA*%
X147450000Y-105750000D03*
X144700000Y-106750000D03*
%TO.N,VCOM*%
X144750000Y-104450000D03*
X137600000Y-102300000D03*
%TO.N,GND*%
X168050000Y-91850000D03*
X165200000Y-100400000D03*
X139800000Y-70350000D03*
X132200000Y-66500000D03*
X142400000Y-83700000D03*
X146750000Y-85800000D03*
X128500000Y-76800000D03*
X164200000Y-102300000D03*
X159000000Y-79300000D03*
X159200000Y-96800000D03*
X147610000Y-109205000D03*
X161963924Y-83100056D03*
X127300000Y-98600000D03*
X169300000Y-75950000D03*
X140600000Y-98700000D03*
X138767278Y-101017278D03*
X134240000Y-81700000D03*
X153560000Y-104255000D03*
X137600000Y-95700000D03*
X162300000Y-79700000D03*
X134200000Y-95800000D03*
X169300000Y-90000000D03*
X156500000Y-81800000D03*
X134000000Y-94100000D03*
X147500000Y-71000000D03*
X135500000Y-75000000D03*
X143250000Y-80100000D03*
X145710000Y-113905000D03*
X151100000Y-81057787D03*
X144600000Y-74540000D03*
X160150000Y-92000000D03*
X139670000Y-108797500D03*
X150300000Y-113205000D03*
X139000000Y-78100000D03*
X166400000Y-100400000D03*
X149100000Y-109400000D03*
X134500000Y-84200000D03*
X162500000Y-89900000D03*
X132216729Y-90805838D03*
X129700000Y-66500000D03*
X143510000Y-107705000D03*
X134700000Y-66500000D03*
X141000000Y-77650000D03*
X140500000Y-90850000D03*
X161100000Y-92000000D03*
X146900000Y-76650000D03*
X157100000Y-85700000D03*
X142100000Y-103500000D03*
X154340000Y-74634127D03*
X162300000Y-86200000D03*
X150100000Y-79000000D03*
X146400000Y-100100000D03*
X169200000Y-96900000D03*
X141170000Y-111605000D03*
X141000000Y-74550000D03*
X143510000Y-109605000D03*
X148050000Y-75600000D03*
X136600000Y-95700000D03*
X130900000Y-78500000D03*
X131700000Y-81700000D03*
X161700000Y-78300000D03*
X138800000Y-89050000D03*
X150500000Y-77500000D03*
X165350000Y-95800000D03*
X136000000Y-66500000D03*
X132000000Y-75000000D03*
%TO.N,+5V*%
X155200000Y-86050000D03*
X146350000Y-92750000D03*
%TO.N,/MCU/CONN_SWDIO*%
X140900000Y-73420000D03*
X148950000Y-75600000D03*
%TO.N,SPI2_NSS*%
X160850000Y-90100000D03*
X167700000Y-91100000D03*
%TO.N,SPI1_NSS*%
X139800000Y-89050000D03*
X139400000Y-90850000D03*
%TO.N,/MCU/SWDIO*%
X148950000Y-78500000D03*
X147500000Y-81850000D03*
%TO.N,/MCU/SWCLK*%
X147750000Y-76750000D03*
X141050000Y-75600000D03*
%TO.N,/MCU/SWO*%
X141050000Y-76850000D03*
X146750000Y-77500000D03*
%TO.N,DAC_NLDAC*%
X159450000Y-92550000D03*
X168250000Y-96900000D03*
%TD*%
D54*
%TO.N,+3.3VA*%
X140003315Y-95003315D02*
X140553315Y-95003315D01*
X140000000Y-95000000D02*
X140003315Y-95003315D01*
X139996685Y-95003315D02*
X140000000Y-95000000D01*
%TO.N,SPI2_MOSI*%
X151820000Y-84220000D02*
X149162500Y-84220000D01*
X155736685Y-88136685D02*
X151820000Y-84220000D01*
X169000000Y-91200000D02*
X165936685Y-88136685D01*
X168700000Y-94150000D02*
X169000000Y-93850000D01*
X166350000Y-93888370D02*
X166611630Y-94150000D01*
X169000000Y-93850000D02*
X169000000Y-91200000D01*
X165936685Y-88136685D02*
X155736685Y-88136685D01*
X166350000Y-92820000D02*
X166350000Y-93888370D01*
X166611630Y-94150000D02*
X168700000Y-94150000D01*
D55*
%TO.N,GND*%
X138770000Y-101020000D02*
X140265000Y-101020000D01*
X138767278Y-101017278D02*
X138770000Y-101020000D01*
D56*
%TO.N,+5V*%
X146350000Y-92750000D02*
X145000000Y-94100000D01*
X145000000Y-94100000D02*
X145000000Y-94107500D01*
%TO.N,+3.3VA*%
X147400000Y-105750000D02*
X147450000Y-105750000D01*
X145600000Y-103450000D02*
X145600000Y-103950000D01*
X142540000Y-100390000D02*
X145600000Y-103450000D01*
X142540000Y-100070000D02*
X142540000Y-100390000D01*
X145600000Y-103950000D02*
X147400000Y-105750000D01*
D55*
%TO.N,VCOM*%
X148400000Y-108050000D02*
X148400000Y-108137500D01*
X144800000Y-104450000D02*
X148400000Y-108050000D01*
X144750000Y-104450000D02*
X144800000Y-104450000D01*
D56*
%TO.N,+3.3VA*%
X157510000Y-96880000D02*
X157450000Y-96820000D01*
X157510000Y-98345000D02*
X157510000Y-96880000D01*
X155835000Y-100020000D02*
X157510000Y-98345000D01*
X150540000Y-100020000D02*
X155835000Y-100020000D01*
X150540000Y-101010000D02*
X150540000Y-100020000D01*
X149450000Y-102100000D02*
X150540000Y-101010000D01*
D55*
X148590000Y-104242500D02*
X148590000Y-104199535D01*
X149580000Y-102230000D02*
X149450000Y-102100000D01*
D56*
%TO.N,/Power/+5V_FILT*%
X149040000Y-99520000D02*
X149040000Y-99932500D01*
%TO.N,+5V*%
X143342500Y-94107500D02*
X142400000Y-95050000D01*
X145000000Y-94107500D02*
X143342500Y-94107500D01*
D54*
%TO.N,+3.3VA*%
X136464945Y-95003315D02*
X139996685Y-95003315D01*
X135350000Y-93888370D02*
X136464945Y-95003315D01*
X142520000Y-96970000D02*
X142520000Y-98720000D01*
X135350000Y-92820000D02*
X135350000Y-93888370D01*
X140553315Y-95003315D02*
X142520000Y-96970000D01*
X142540000Y-98740000D02*
X142520000Y-98720000D01*
X142540000Y-100070000D02*
X142540000Y-98740000D01*
%TO.N,/DAC/DAC_OUT_A*%
X165350000Y-98190000D02*
X164320000Y-99220000D01*
X165350000Y-97220000D02*
X165350000Y-98190000D01*
%TO.N,/DAC/DAC_OUT_B*%
X165850000Y-98780000D02*
X165850000Y-97220000D01*
X165410000Y-99220000D02*
X165850000Y-98780000D01*
%TO.N,Net-(C403-Pad1)*%
X163300000Y-100390000D02*
X163330000Y-100420000D01*
X163300000Y-98110000D02*
X163300000Y-100390000D01*
X163210000Y-98020000D02*
X163300000Y-98110000D01*
%TO.N,GND*%
X158460000Y-101760000D02*
X158850000Y-102150000D01*
X158460000Y-100620000D02*
X158460000Y-101760000D01*
%TO.N,/DAC/OUT_AA_BUF_IN*%
X159630000Y-100400000D02*
X159410000Y-100620000D01*
X161020000Y-100400000D02*
X159630000Y-100400000D01*
X160990000Y-100370000D02*
X161020000Y-100400000D01*
X160990000Y-99220000D02*
X160990000Y-100370000D01*
%TO.N,Net-(C405-Pad1)*%
X162190000Y-98020000D02*
X162190000Y-99040000D01*
X162190000Y-99040000D02*
X162010000Y-99220000D01*
X161290000Y-97120000D02*
X162190000Y-98020000D01*
X161000000Y-97120000D02*
X161290000Y-97120000D01*
%TO.N,/DAC/OUT_AA_BUF_OUT*%
X160735000Y-98345000D02*
X161000000Y-98080000D01*
X159410000Y-98345000D02*
X160735000Y-98345000D01*
X157510000Y-99890000D02*
X157510000Y-100620000D01*
X159055000Y-98345000D02*
X157510000Y-99890000D01*
X159410000Y-98345000D02*
X159055000Y-98345000D01*
X157510000Y-102232500D02*
X157500000Y-102242500D01*
X157510000Y-100620000D02*
X157510000Y-102232500D01*
X157540000Y-102282500D02*
X157500000Y-102242500D01*
%TO.N,/DAC/OUT*%
X160900000Y-102280000D02*
X160900000Y-104862500D01*
X160890000Y-102270000D02*
X160900000Y-102280000D01*
X160900000Y-104862500D02*
X160000000Y-105762500D01*
X160000000Y-105762500D02*
X157500000Y-103262500D01*
X160000000Y-110020000D02*
X160000000Y-105762500D01*
%TO.N,/ADC/IN_AA_BUF_OUT*%
X136400000Y-102400000D02*
X136400000Y-101420000D01*
X138770000Y-100070000D02*
X138750000Y-100050000D01*
X140265000Y-100070000D02*
X138770000Y-100070000D01*
D55*
%TO.N,+3.3VA*%
X144490000Y-106960000D02*
X144490000Y-108570000D01*
X144700000Y-106750000D02*
X144490000Y-106960000D01*
%TO.N,Net-(C303-Pad1)*%
X145650000Y-106695000D02*
X144700000Y-105745000D01*
X144700000Y-105745000D02*
X144000000Y-105745000D01*
D54*
%TO.N,/ADC/IN*%
X139522500Y-107600000D02*
X132420000Y-107600000D01*
X132420000Y-107600000D02*
X132272500Y-107747500D01*
X139670000Y-107747500D02*
X139522500Y-107600000D01*
X139827500Y-107590000D02*
X139670000Y-107747500D01*
X141210000Y-107590000D02*
X139827500Y-107590000D01*
D55*
X130000000Y-110020000D02*
X132272500Y-107747500D01*
D54*
%TO.N,/ADC/ADC_VREF*%
X135020000Y-97550000D02*
X135350000Y-97220000D01*
X130822500Y-97550000D02*
X135020000Y-97550000D01*
X130752500Y-97620000D02*
X130822500Y-97550000D01*
D55*
%TO.N,+3.3VA*%
X149572500Y-104242500D02*
X149580000Y-104250000D01*
%TO.N,/Power/VREF*%
X151550000Y-104250000D02*
X150600000Y-104250000D01*
X151550000Y-106887500D02*
X151550000Y-104250000D01*
X150300000Y-108137500D02*
X151550000Y-106887500D01*
%TO.N,+3.3VA*%
X148550000Y-104282500D02*
X148590000Y-104242500D01*
X148400000Y-105862500D02*
X148550000Y-105712500D01*
X149590000Y-104260000D02*
X149580000Y-104250000D01*
D56*
%TO.N,/Power/+5V_FILT*%
X145000000Y-98230000D02*
X145040000Y-98270000D01*
D55*
%TO.N,+3.3VA*%
X147450000Y-105750000D02*
X148287500Y-105750000D01*
X148287500Y-105750000D02*
X148400000Y-105862500D01*
%TO.N,VCOM*%
X137600000Y-102300000D02*
X137600000Y-101420000D01*
%TO.N,/ADC/IN_AA_BUF_OUT*%
X141820000Y-101970000D02*
X142540000Y-101970000D01*
X141450000Y-101600000D02*
X141820000Y-101970000D01*
X141450000Y-100600000D02*
X141450000Y-101600000D01*
X140265000Y-100070000D02*
X140920000Y-100070000D01*
X140920000Y-100070000D02*
X141450000Y-100600000D01*
%TO.N,/ADC/IN_AA_BUF_IN*%
X140200000Y-102035000D02*
X140200000Y-104725000D01*
X140265000Y-101970000D02*
X140200000Y-102035000D01*
X140200000Y-104725000D02*
X140180000Y-104745000D01*
%TO.N,/ADC/IN_AA_BUF_OUT*%
X143000000Y-102430000D02*
X142540000Y-101970000D01*
X143000000Y-103585000D02*
X143000000Y-102430000D01*
%TO.N,Net-(C305-Pad1)*%
X141400000Y-104545000D02*
X141200000Y-104745000D01*
X143000000Y-104545000D02*
X141400000Y-104545000D01*
X142980000Y-104565000D02*
X143000000Y-104545000D01*
X142980000Y-105745000D02*
X142980000Y-104565000D01*
%TO.N,Net-(C303-Pad1)*%
X145650000Y-107590000D02*
X145650000Y-106695000D01*
X145680000Y-107620000D02*
X145650000Y-107590000D01*
X146850000Y-107620000D02*
X145680000Y-107620000D01*
%TO.N,VCOM*%
X150255393Y-105862500D02*
X150300000Y-105862500D01*
X148400000Y-107717893D02*
X150255393Y-105862500D01*
X148400000Y-108137500D02*
X148400000Y-107717893D01*
%TO.N,/Power/VREF*%
X150300000Y-110095000D02*
X150300000Y-108137500D01*
%TO.N,VCOM*%
X148400000Y-110290000D02*
X148400000Y-108137500D01*
%TO.N,GND*%
X149350000Y-109150000D02*
X149350000Y-108100000D01*
X149100000Y-109400000D02*
X149350000Y-109150000D01*
%TO.N,/ADC/IN_BUF*%
X148400000Y-111900000D02*
X148400000Y-111310000D01*
X147832500Y-112467500D02*
X148400000Y-111900000D01*
X146650000Y-112467500D02*
X147832500Y-112467500D01*
%TO.N,/ADC/IN_BUF_OUT*%
X146650000Y-110850000D02*
X146650000Y-110192500D01*
X146300000Y-111200000D02*
X146650000Y-110850000D01*
X144750000Y-111750000D02*
X145300000Y-111200000D01*
X145300000Y-111200000D02*
X146300000Y-111200000D01*
X144750000Y-112467500D02*
X144750000Y-111750000D01*
%TO.N,/ADC/IN_BUF*%
X142955000Y-114605000D02*
X145999950Y-114605000D01*
X145999950Y-114605000D02*
X146650000Y-113954950D01*
X142410000Y-114060000D02*
X142955000Y-114605000D01*
X142410000Y-110670000D02*
X142410000Y-114060000D01*
X146650000Y-113954950D02*
X146650000Y-112467500D01*
%TO.N,/ADC/IN_BUF_OUT*%
X145650000Y-109200000D02*
X145650000Y-108610000D01*
X146642500Y-110192500D02*
X145650000Y-109200000D01*
X146650000Y-110192500D02*
X146642500Y-110192500D01*
%TO.N,+3.3VA*%
X144750000Y-110192500D02*
X144750000Y-108830000D01*
X144750000Y-108830000D02*
X144490000Y-108570000D01*
%TO.N,/ADC/ADC_VREF_VIN*%
X131502500Y-99520000D02*
X131502500Y-101035000D01*
X132977500Y-99520000D02*
X131502500Y-99520000D01*
X130752500Y-99520000D02*
X132977500Y-99520000D01*
%TO.N,VBUS*%
X162090050Y-85420000D02*
X161810050Y-85700000D01*
X158105000Y-80800000D02*
X158075000Y-80770000D01*
D56*
X162847500Y-80520000D02*
X162567500Y-80800000D01*
D55*
X159800000Y-81300000D02*
X159800000Y-85200000D01*
X158652500Y-83370000D02*
X159730000Y-83370000D01*
D56*
X163845000Y-80520000D02*
X162847500Y-80520000D01*
D55*
X159270000Y-80770000D02*
X159800000Y-81300000D01*
X163845000Y-85420000D02*
X162090050Y-85420000D01*
X159730000Y-83370000D02*
X159800000Y-83300000D01*
X161810050Y-85700000D02*
X159300000Y-85700000D01*
X159800000Y-85200000D02*
X159300000Y-85700000D01*
D56*
X157785000Y-79270000D02*
X157785000Y-80480000D01*
X162567500Y-80800000D02*
X158105000Y-80800000D01*
D55*
X159300000Y-85700000D02*
X158950000Y-85700000D01*
D56*
X157785000Y-80480000D02*
X158105000Y-80800000D01*
D55*
X158075000Y-80770000D02*
X159270000Y-80770000D01*
%TO.N,GND*%
X127330000Y-98570000D02*
X127300000Y-98600000D01*
X169300000Y-90000000D02*
X169310000Y-89990000D01*
X140837500Y-83720000D02*
X142380000Y-83720000D01*
X152570000Y-104250000D02*
X153555000Y-104250000D01*
X169300000Y-75950000D02*
X169300000Y-76890000D01*
X142750000Y-79646041D02*
X142750000Y-78807500D01*
X165350000Y-95800000D02*
X166005000Y-95800000D01*
X134320000Y-80220000D02*
X132620000Y-78520000D01*
X149162500Y-80720000D02*
X150120000Y-80720000D01*
X143000000Y-77600000D02*
X143000000Y-76960000D01*
X134527500Y-101245000D02*
X134552500Y-101270000D01*
X136020000Y-68620000D02*
X136020000Y-66520000D01*
X142380000Y-83720000D02*
X142400000Y-83700000D01*
X141560000Y-98720000D02*
X140620000Y-98720000D01*
D56*
X162250000Y-93150000D02*
X161100000Y-92000000D01*
D55*
X163845000Y-79720000D02*
X162320000Y-79720000D01*
X161963924Y-83100056D02*
X161693980Y-83370000D01*
X147490000Y-70990000D02*
X147500000Y-71000000D01*
X147250000Y-87132500D02*
X147250000Y-88980000D01*
X143203959Y-80100000D02*
X142750000Y-79646041D01*
X145710000Y-113905000D02*
X145700000Y-113895000D01*
X130700000Y-81750000D02*
X131650000Y-81750000D01*
X147250000Y-86293959D02*
X147250000Y-87132500D01*
X158075000Y-77770000D02*
X158075000Y-78075000D01*
X150840000Y-76070000D02*
X150830000Y-76070000D01*
X139800000Y-69400000D02*
X139870000Y-69330000D01*
X131940000Y-75060000D02*
X132000000Y-75000000D01*
X142750000Y-78807500D02*
X142750000Y-77850000D01*
X145700000Y-113895000D02*
X145700000Y-112467500D01*
X147490000Y-70120000D02*
X147490000Y-70990000D01*
X134750000Y-66550000D02*
X134700000Y-66500000D01*
X139640000Y-109795000D02*
X139640000Y-108827500D01*
X137600000Y-95700000D02*
X137350000Y-95950000D01*
X166005000Y-95800000D02*
X166350000Y-96145000D01*
X130920000Y-78520000D02*
X130900000Y-78500000D01*
X136020000Y-66520000D02*
X136000000Y-66500000D01*
X150657787Y-81057787D02*
X150320000Y-80720000D01*
X157840000Y-77535000D02*
X158075000Y-77770000D01*
X163845000Y-86220000D02*
X162320000Y-86220000D01*
X141170000Y-103545000D02*
X142055000Y-103545000D01*
X139800000Y-70350000D02*
X139800000Y-69400000D01*
X139830000Y-71320000D02*
X139830000Y-70380000D01*
X154340000Y-74634127D02*
X154825873Y-75120000D01*
X131650000Y-81750000D02*
X131700000Y-81700000D01*
X140620000Y-98720000D02*
X140600000Y-98700000D01*
X129680000Y-66520000D02*
X129700000Y-66500000D01*
X161693980Y-83370000D02*
X160927500Y-83370000D01*
D56*
X162300000Y-93150000D02*
X162250000Y-93150000D01*
D55*
X135490000Y-75010000D02*
X135500000Y-75000000D01*
X147250000Y-88980000D02*
X147270000Y-89000000D01*
X162320000Y-86220000D02*
X162300000Y-86200000D01*
X166350000Y-96145000D02*
X166350000Y-97220000D01*
X158410000Y-96820000D02*
X159180000Y-96820000D01*
X159180000Y-96820000D02*
X159200000Y-96800000D01*
X143250000Y-80100000D02*
X143203959Y-80100000D01*
X137350000Y-95950000D02*
X137350000Y-97220000D01*
X132400000Y-78520000D02*
X130920000Y-78520000D01*
X136850000Y-95950000D02*
X136850000Y-97220000D01*
X139310000Y-83720000D02*
X139040000Y-83990000D01*
X146985000Y-108580000D02*
X146850000Y-108580000D01*
X142750000Y-77850000D02*
X143000000Y-77600000D01*
X131940000Y-76220000D02*
X131940000Y-75060000D01*
X144600000Y-74540000D02*
X144600000Y-75380000D01*
X154825873Y-75120000D02*
X155477500Y-75120000D01*
X158020000Y-85700000D02*
X157100000Y-85700000D01*
X134527500Y-99520000D02*
X134527500Y-101245000D01*
X134600000Y-80220000D02*
X134320000Y-80220000D01*
X147610000Y-109205000D02*
X146985000Y-108580000D01*
X150300000Y-111995000D02*
X150300000Y-113205000D01*
X162320000Y-79720000D02*
X162300000Y-79700000D01*
X139830000Y-70380000D02*
X139800000Y-70350000D01*
X169310000Y-89990000D02*
X169310000Y-89000000D01*
X129680000Y-67470000D02*
X129680000Y-66520000D01*
X141210000Y-111565000D02*
X141170000Y-111605000D01*
X142055000Y-103545000D02*
X142100000Y-103500000D01*
X132210000Y-66510000D02*
X132200000Y-66500000D01*
X151100000Y-81057787D02*
X150657787Y-81057787D01*
X159820000Y-78300000D02*
X159840000Y-78280000D01*
X156525000Y-81775000D02*
X156500000Y-81800000D01*
X141210000Y-110720000D02*
X141210000Y-111565000D01*
X150320000Y-80720000D02*
X149162500Y-80720000D01*
X146756041Y-85800000D02*
X147250000Y-86293959D01*
X129560000Y-76850000D02*
X128550000Y-76850000D01*
X128877500Y-98570000D02*
X127330000Y-98570000D01*
X153555000Y-104250000D02*
X153560000Y-104255000D01*
X128550000Y-76850000D02*
X128500000Y-76800000D01*
X132210000Y-68620000D02*
X132210000Y-66510000D01*
X140837500Y-83720000D02*
X139310000Y-83720000D01*
X132752500Y-96010000D02*
X133090000Y-96010000D01*
X135490000Y-76220000D02*
X135490000Y-75010000D01*
X132620000Y-78520000D02*
X132400000Y-78520000D01*
X162300000Y-86200000D02*
X162200000Y-86100000D01*
X136600000Y-95700000D02*
X136850000Y-95950000D01*
X134750000Y-68620000D02*
X134750000Y-66550000D01*
X146750000Y-85800000D02*
X146756041Y-85800000D01*
X156525000Y-80770000D02*
X156525000Y-81775000D01*
D56*
%TO.N,+5V*%
X156595406Y-79270000D02*
X155200000Y-80665406D01*
X156120000Y-76070000D02*
X156525000Y-76475000D01*
X156500000Y-78955000D02*
X156500000Y-77795000D01*
X156815000Y-79270000D02*
X156595406Y-79270000D01*
D55*
X154785923Y-76070000D02*
X153202500Y-74486577D01*
D56*
X156525000Y-76475000D02*
X156525000Y-77770000D01*
D55*
X153202500Y-74486577D02*
X153202500Y-74170000D01*
D56*
X155200000Y-80665406D02*
X155200000Y-86050000D01*
X156500000Y-77795000D02*
X156525000Y-77770000D01*
X153202500Y-74170000D02*
X150840000Y-74170000D01*
X156815000Y-79270000D02*
X156500000Y-78955000D01*
D55*
X155477500Y-76070000D02*
X154785923Y-76070000D01*
D56*
X155477500Y-76070000D02*
X156120000Y-76070000D01*
D55*
%TO.N,+3.3VA*%
X134790000Y-92260000D02*
X134002500Y-92260000D01*
X132712500Y-92260000D02*
X132502500Y-92470000D01*
X135350000Y-92820000D02*
X134790000Y-92260000D01*
X134002500Y-92260000D02*
X132712500Y-92260000D01*
%TO.N,+3V3*%
X142250000Y-77850000D02*
X142040000Y-77640000D01*
D56*
X165130000Y-91300000D02*
X164025000Y-91300000D01*
X137290000Y-67510000D02*
X137500000Y-67300000D01*
D55*
X141580000Y-80220000D02*
X140837500Y-80220000D01*
D56*
X157100000Y-67300000D02*
X144550000Y-67300000D01*
X151650000Y-80100000D02*
X151767500Y-80100000D01*
D55*
X147750000Y-87132500D02*
X147750000Y-87900000D01*
D54*
X164025000Y-91300000D02*
X163850000Y-91475000D01*
D56*
X151120000Y-80100000D02*
X153674386Y-80100000D01*
D54*
X165850000Y-92820000D02*
X165850000Y-91780000D01*
D56*
X136686429Y-87890000D02*
X136070000Y-87273571D01*
D55*
X142250000Y-78807500D02*
X142250000Y-77850000D01*
D56*
X154820000Y-78954386D02*
X154820000Y-78812965D01*
X150000000Y-80100000D02*
X150980000Y-80100000D01*
D55*
X142250000Y-79550000D02*
X141925000Y-79875000D01*
D56*
X151100000Y-80080000D02*
X151120000Y-80100000D01*
X142040000Y-68110000D02*
X142850000Y-67300000D01*
X153674386Y-80100000D02*
X154820000Y-78954386D01*
X136070000Y-87220000D02*
X136070000Y-87715067D01*
X135030838Y-90925838D02*
X134064229Y-90925838D01*
X137290000Y-68620000D02*
X137290000Y-67510000D01*
X151767500Y-80100000D02*
X152377500Y-80710000D01*
D55*
X140837500Y-80220000D02*
X139040000Y-80220000D01*
X147750000Y-87132500D02*
X147750000Y-85650000D01*
D56*
X157590000Y-67790000D02*
X157100000Y-67300000D01*
X147300000Y-67300000D02*
X145880000Y-68720000D01*
X142850000Y-67300000D02*
X144550000Y-67300000D01*
X157590000Y-69605000D02*
X157590000Y-73920000D01*
D55*
X154820000Y-77550000D02*
X154850000Y-77520000D01*
D56*
X135540000Y-86690000D02*
X136070000Y-87220000D01*
D55*
X136070000Y-87273571D02*
X136070000Y-87220000D01*
D56*
X139040000Y-80220000D02*
X138370000Y-80220000D01*
X136070000Y-87715067D02*
X134359229Y-89425838D01*
D55*
X145000000Y-82950000D02*
X145050000Y-82950000D01*
D56*
X148470000Y-87070000D02*
X150850000Y-87070000D01*
D54*
X163850000Y-91475000D02*
X163675000Y-91300000D01*
D56*
X145880000Y-68720000D02*
X145750000Y-68720000D01*
X147050000Y-68720000D02*
X147490000Y-69160000D01*
X140110000Y-87890000D02*
X136686429Y-87890000D01*
X147850000Y-85750000D02*
X147850000Y-86450000D01*
D55*
X141925000Y-79875000D02*
X141580000Y-80220000D01*
D56*
X147750000Y-85650000D02*
X145050000Y-82950000D01*
X135850000Y-91745000D02*
X135030838Y-90925838D01*
X155150000Y-91300000D02*
X150920000Y-87070000D01*
X147750000Y-85650000D02*
X147850000Y-85750000D01*
X134359229Y-90630838D02*
X134064229Y-90925838D01*
X145750000Y-68720000D02*
X147050000Y-68720000D01*
X137500000Y-67300000D02*
X142850000Y-67300000D01*
D55*
X148230000Y-88380000D02*
X148230000Y-89000000D01*
D56*
X145050000Y-82950000D02*
X140110000Y-87890000D01*
X142040000Y-71780000D02*
X142040000Y-68110000D01*
X147850000Y-86450000D02*
X148470000Y-87070000D01*
X149162500Y-80100000D02*
X150280000Y-80100000D01*
D55*
X154820000Y-78812965D02*
X154820000Y-78770000D01*
D56*
X138145000Y-79995000D02*
X137400000Y-79995000D01*
X157590000Y-73920000D02*
X157840000Y-74170000D01*
D55*
X142040000Y-77640000D02*
X142040000Y-76960000D01*
D56*
X138370000Y-80220000D02*
X138145000Y-79995000D01*
X135540000Y-85720000D02*
X135540000Y-86690000D01*
X157840000Y-74170000D02*
X159697500Y-74170000D01*
X145000000Y-82950000D02*
X141925000Y-79875000D01*
D55*
X142250000Y-78807500D02*
X142250000Y-79550000D01*
D56*
X163675000Y-91300000D02*
X155150000Y-91300000D01*
X159697500Y-74170000D02*
X159840000Y-74312500D01*
X154820000Y-78770000D02*
X154820000Y-77550000D01*
X147900000Y-80100000D02*
X149162500Y-80100000D01*
D54*
X165850000Y-91780000D02*
X165250000Y-91180000D01*
D56*
X134359229Y-89425838D02*
X134359229Y-90630838D01*
D55*
X157590000Y-69605000D02*
X157590000Y-67790000D01*
X135850000Y-92820000D02*
X135850000Y-91745000D01*
D54*
X150920000Y-87070000D02*
X150850000Y-87070000D01*
D56*
X142040000Y-76960000D02*
X142040000Y-71780000D01*
X145050000Y-82950000D02*
X147780000Y-80220000D01*
X147780000Y-80220000D02*
X147900000Y-80100000D01*
D55*
X147750000Y-87900000D02*
X148230000Y-88380000D01*
%TO.N,/Power/BUCK_FB*%
X153830000Y-77520000D02*
X153830000Y-78740000D01*
X153202500Y-76917500D02*
X152600000Y-77520000D01*
X153202500Y-76070000D02*
X153202500Y-76917500D01*
X153830000Y-78740000D02*
X153860000Y-78770000D01*
X153202500Y-76917500D02*
X153227500Y-76917500D01*
X153227500Y-76917500D02*
X153830000Y-77520000D01*
%TO.N,VDDA*%
X137100000Y-86160000D02*
X137100000Y-87160000D01*
X140837500Y-84220000D02*
X139980000Y-84220000D01*
X137540000Y-85720000D02*
X137100000Y-86160000D01*
X139040000Y-84950000D02*
X139040000Y-85060000D01*
X139040000Y-85060000D02*
X138380000Y-85720000D01*
X138380000Y-85720000D02*
X137540000Y-85720000D01*
X137100000Y-87160000D02*
X137040000Y-87220000D01*
X139980000Y-84220000D02*
X139250000Y-84950000D01*
X139250000Y-84950000D02*
X139040000Y-84950000D01*
%TO.N,/MCU/HSE_IN*%
X135960000Y-81720000D02*
X135980000Y-81700000D01*
X135960000Y-79060000D02*
X135960000Y-81720000D01*
X139998959Y-82220000D02*
X140837500Y-82220000D01*
X135980000Y-81700000D02*
X139478959Y-81700000D01*
X135420000Y-78520000D02*
X135960000Y-79060000D01*
X134600000Y-78520000D02*
X135420000Y-78520000D01*
X139478959Y-81700000D02*
X139998959Y-82220000D01*
%TO.N,/MCU/XTAL_IN*%
X130700000Y-80790000D02*
X131830000Y-80790000D01*
X130650000Y-80740000D02*
X130700000Y-80790000D01*
X129450000Y-80740000D02*
X130650000Y-80740000D01*
X131830000Y-80790000D02*
X132400000Y-80220000D01*
%TO.N,/MCU/NRST*%
X128400000Y-82100000D02*
X128400000Y-79300000D01*
X140837500Y-83220000D02*
X129520000Y-83220000D01*
X130550000Y-75600000D02*
X130550000Y-76820000D01*
X128400000Y-79300000D02*
X130520000Y-77180000D01*
X130520000Y-77180000D02*
X130520000Y-76850000D01*
X129520000Y-83220000D02*
X128400000Y-82100000D01*
X130550000Y-76820000D02*
X130520000Y-76850000D01*
%TO.N,/ADC/ADC_IN+*%
X136400000Y-99320000D02*
X136400000Y-100400000D01*
X136520000Y-99200000D02*
X136400000Y-99320000D01*
X135850000Y-97220000D02*
X135850000Y-98530000D01*
X135850000Y-98530000D02*
X136520000Y-99200000D01*
%TO.N,/ADC/ADC_IN-*%
X136790000Y-98540000D02*
X137300000Y-98540000D01*
X137300000Y-98540000D02*
X137600000Y-98840000D01*
X136350000Y-97220000D02*
X136350000Y-98100000D01*
X137600000Y-98840000D02*
X137600000Y-100400000D01*
X136350000Y-98100000D02*
X136790000Y-98540000D01*
D54*
%TO.N,/DAC/DAC_VREF*%
X165350000Y-92820000D02*
X165350000Y-93600000D01*
X164450000Y-93750000D02*
X163850000Y-93150000D01*
X165200000Y-93750000D02*
X164450000Y-93750000D01*
X165350000Y-93600000D02*
X165200000Y-93750000D01*
D55*
%TO.N,/MCU/LED_G_K*%
X143750000Y-71450000D02*
X143000000Y-70700000D01*
X143000000Y-69170000D02*
X143450000Y-68720000D01*
X143450000Y-68720000D02*
X144250000Y-68720000D01*
X143000000Y-70700000D02*
X143000000Y-69170000D01*
%TO.N,/MCU/LED_R_K*%
X145750000Y-69820000D02*
X146250000Y-70320000D01*
X146250000Y-70320000D02*
X146250000Y-71450000D01*
%TO.N,/MCU/LED_B_K*%
X144250000Y-69820000D02*
X144250000Y-70300000D01*
X144990000Y-71040000D02*
X144990000Y-71450000D01*
X144250000Y-70300000D02*
X144990000Y-71040000D01*
%TO.N,/MCU/CONN_SWDIO*%
X138900000Y-74350000D02*
X139830000Y-73420000D01*
X137290000Y-72520000D02*
X137290000Y-73690000D01*
X137290000Y-73690000D02*
X137950000Y-74350000D01*
X140900000Y-73420000D02*
X139830000Y-73420000D01*
X137950000Y-74350000D02*
X138900000Y-74350000D01*
X148950000Y-75600000D02*
X148950000Y-76690000D01*
%TO.N,/MCU/CONN_SWCLK*%
X136020000Y-72520000D02*
X136020000Y-73670000D01*
X137950000Y-75600000D02*
X139040000Y-75600000D01*
X137600000Y-75250000D02*
X137950000Y-75600000D01*
X136020000Y-73670000D02*
X137600000Y-75250000D01*
X137600000Y-76210000D02*
X137590000Y-76220000D01*
X137600000Y-75250000D02*
X137600000Y-76210000D01*
%TO.N,/MCU/CONN_SWO*%
X139040000Y-76850000D02*
X134350000Y-76850000D01*
X134750000Y-72520000D02*
X134750000Y-73650000D01*
X134350000Y-76850000D02*
X134040000Y-76540000D01*
X134750000Y-73650000D02*
X134040000Y-74360000D01*
X138990000Y-76900000D02*
X139040000Y-76850000D01*
X134040000Y-76540000D02*
X134040000Y-76220000D01*
X134040000Y-74360000D02*
X134040000Y-76220000D01*
%TO.N,/MCU/CONN_NRST*%
X132210000Y-72520000D02*
X132210000Y-71210000D01*
X129530000Y-74870000D02*
X130100000Y-74300000D01*
X132210000Y-73990000D02*
X132210000Y-72520000D01*
X131900000Y-74300000D02*
X132210000Y-73990000D01*
X129680000Y-70080000D02*
X129680000Y-69570000D01*
X129530000Y-75600000D02*
X129530000Y-74870000D01*
X131700000Y-70700000D02*
X130300000Y-70700000D01*
X130300000Y-70700000D02*
X129680000Y-70080000D01*
X132210000Y-71210000D02*
X131700000Y-70700000D01*
X130100000Y-74300000D02*
X131900000Y-74300000D01*
%TO.N,/MCU/USB_CONN_CC1*%
X163845000Y-84220000D02*
X164920000Y-84220000D01*
X167550000Y-88600000D02*
X167950000Y-89000000D01*
X167550000Y-86850000D02*
X167550000Y-88600000D01*
X164920000Y-84220000D02*
X167550000Y-86850000D01*
X167950000Y-89000000D02*
X168290000Y-89000000D01*
D57*
%TO.N,/MCU/USB_CONN_D+*%
X162370863Y-82220000D02*
X162170863Y-82420000D01*
X164900556Y-83200556D02*
X164881112Y-83220000D01*
X163845000Y-82220000D02*
X162370863Y-82220000D01*
X164881112Y-82220000D02*
X164900556Y-82239444D01*
X162170863Y-82420000D02*
X160927500Y-82420000D01*
X163845000Y-82220000D02*
X164881112Y-82220000D01*
X164881112Y-83220000D02*
X163845000Y-83220000D01*
X164900556Y-82239444D02*
X164900556Y-83200556D01*
%TO.N,/MCU/USB_CONN_D-*%
X162789444Y-83700556D02*
X162808888Y-83720000D01*
X162644480Y-82934408D02*
X162644480Y-83381952D01*
X162808888Y-82720000D02*
X162789444Y-82739444D01*
X162858888Y-82720000D02*
X162644480Y-82934408D01*
X162644480Y-83381952D02*
X161706432Y-84320000D01*
X162789444Y-82739444D02*
X162789444Y-83700556D01*
X162808888Y-83720000D02*
X163845000Y-83720000D01*
X163845000Y-82720000D02*
X162808888Y-82720000D01*
X161706432Y-84320000D02*
X160927500Y-84320000D01*
X163845000Y-82720000D02*
X162858888Y-82720000D01*
D55*
%TO.N,/MCU/USB_CONN_CC2*%
X167600000Y-78866016D02*
X167600000Y-77350000D01*
X167600000Y-77350000D02*
X167950000Y-77000000D01*
X163845000Y-81220000D02*
X165246016Y-81220000D01*
X165246016Y-81220000D02*
X167600000Y-78866016D01*
X167950000Y-77000000D02*
X168290000Y-77000000D01*
D56*
%TO.N,/Power/BUCK_SW*%
X152150000Y-72600000D02*
X153907500Y-72600000D01*
X151540000Y-69605000D02*
X151540000Y-71990000D01*
X153907500Y-72600000D02*
X155477500Y-74170000D01*
X151540000Y-71990000D02*
X152150000Y-72600000D01*
D57*
%TO.N,/MCU/USB_CMC_D-*%
X156540000Y-83920000D02*
X156857843Y-83602157D01*
X158260391Y-84320000D02*
X158652500Y-84320000D01*
X156857843Y-83602157D02*
X157542548Y-83602157D01*
X157542548Y-83602157D02*
X158260391Y-84320000D01*
%TO.N,/MCU/USB_CMC_D+*%
X156820000Y-83100000D02*
X157580391Y-83100000D01*
X157580391Y-83100000D02*
X158260391Y-82420000D01*
X156540000Y-82820000D02*
X156820000Y-83100000D01*
X158260391Y-82420000D02*
X158652500Y-82420000D01*
%TO.N,/MCU/USB_D+*%
X149162500Y-81720000D02*
X149180343Y-81737843D01*
X149180343Y-81737843D02*
X152364480Y-81737843D01*
X153446637Y-82820000D02*
X153890000Y-82820000D01*
X152364480Y-81737843D02*
X153446637Y-82820000D01*
%TO.N,/MCU/USB_D-*%
X153378888Y-83920000D02*
X153890000Y-83920000D01*
X149180343Y-82202157D02*
X151871261Y-82202157D01*
X149162500Y-82220000D02*
X149180343Y-82202157D01*
X152800000Y-83341112D02*
X153378888Y-83920000D01*
X151871261Y-82202157D02*
X152800000Y-83130896D01*
X152800000Y-83130896D02*
X152800000Y-83341112D01*
D55*
%TO.N,/MCU/BOOT0*%
X144500000Y-77000000D02*
X144600000Y-76900000D01*
X144600000Y-76900000D02*
X144600000Y-76400000D01*
X144250000Y-78807500D02*
X144250000Y-77250000D01*
X144250000Y-77250000D02*
X144500000Y-77000000D01*
%TO.N,/MCU/HSE_OUT*%
X140837500Y-82720000D02*
X139791853Y-82720000D01*
X130290000Y-82600000D02*
X129450000Y-81760000D01*
X139671853Y-82600000D02*
X130290000Y-82600000D01*
X139791853Y-82720000D02*
X139671853Y-82600000D01*
D54*
%TO.N,SPI2_NSS*%
X150501205Y-85720000D02*
X150120000Y-85720000D01*
X167350000Y-92820000D02*
X167350000Y-91450000D01*
X154881205Y-90100000D02*
X150501205Y-85720000D01*
X160850000Y-90100000D02*
X154881205Y-90100000D01*
X167350000Y-91450000D02*
X167700000Y-91100000D01*
D55*
X150120000Y-85720000D02*
X149162500Y-85720000D01*
%TO.N,SPI1_NSS*%
X142750000Y-87971041D02*
X142211041Y-88510000D01*
D54*
X137350000Y-91900000D02*
X137350000Y-92820000D01*
X139400000Y-90850000D02*
X138400000Y-90850000D01*
D55*
X142750000Y-87132500D02*
X142750000Y-87971041D01*
X142211041Y-88510000D02*
X141000000Y-88510000D01*
D54*
X140340000Y-88510000D02*
X139800000Y-89050000D01*
X138400000Y-90850000D02*
X137350000Y-91900000D01*
X141000000Y-88510000D02*
X140340000Y-88510000D01*
D55*
%TO.N,/MCU/TIM4_CH3*%
X143750000Y-72510000D02*
X143790000Y-72470000D01*
X143750000Y-72470000D02*
X143750000Y-78807500D01*
%TO.N,/MCU/TIM4_CH1*%
X146250000Y-72470000D02*
X146250000Y-76968959D01*
X145250000Y-77968959D02*
X145250000Y-78807500D01*
X146250000Y-76968959D02*
X145250000Y-77968959D01*
%TO.N,/MCU/TIM4_CH2*%
X145600000Y-76800000D02*
X144750000Y-77650000D01*
X145600000Y-73700000D02*
X145600000Y-76800000D01*
X144750000Y-77650000D02*
X144750000Y-78807500D01*
X144990000Y-72470000D02*
X144990000Y-73090000D01*
X144990000Y-73090000D02*
X145600000Y-73700000D01*
%TO.N,/MCU/SWDIO*%
X147500000Y-81850000D02*
X148130000Y-81220000D01*
X148130000Y-81220000D02*
X149162500Y-81220000D01*
X148950000Y-77710000D02*
X148950000Y-78500000D01*
%TO.N,/MCU/SWCLK*%
X147750000Y-76750000D02*
X147750000Y-78807500D01*
X140060000Y-75600000D02*
X141050000Y-75600000D01*
%TO.N,/MCU/SWO*%
X146750000Y-78807500D02*
X146750000Y-77500000D01*
X141050000Y-76850000D02*
X140060000Y-76850000D01*
D54*
%TO.N,SPI1_SCK*%
X143250000Y-89100000D02*
X142350000Y-90000000D01*
X142350000Y-90000000D02*
X136300000Y-90000000D01*
X143250000Y-87132500D02*
X143250000Y-89100000D01*
%TO.N,/ADC/ADC_SCLK*%
X136350000Y-91020000D02*
X136350000Y-92820000D01*
%TO.N,SPI2_SCK*%
X166400000Y-89926515D02*
X165423485Y-88950000D01*
X165423485Y-88950000D02*
X155140870Y-88950000D01*
X166400000Y-90190000D02*
X166400000Y-89926515D01*
X151410870Y-85220000D02*
X149162500Y-85220000D01*
X155140870Y-88950000D02*
X151410870Y-85220000D01*
%TO.N,/DAC/DAC_SCLK*%
X166400000Y-91210000D02*
X166850000Y-91660000D01*
X166850000Y-91660000D02*
X166850000Y-92820000D01*
%TO.N,SPI1_MISO*%
X143750000Y-87132500D02*
X143750000Y-87966353D01*
X144300000Y-88516353D02*
X144300000Y-89900000D01*
X139950000Y-94250000D02*
X137211630Y-94250000D01*
X143750000Y-87966353D02*
X144300000Y-88516353D01*
X136850000Y-93888370D02*
X136850000Y-92820000D01*
X137211630Y-94250000D02*
X136850000Y-93888370D01*
X144300000Y-89900000D02*
X139950000Y-94250000D01*
D55*
%TO.N,DAC_NCLR*%
X149100000Y-93800000D02*
X159500000Y-93800000D01*
X145200000Y-89900000D02*
X149100000Y-93800000D01*
X145200000Y-88521041D02*
X145200000Y-89900000D01*
X159500000Y-93800000D02*
X160100000Y-94400000D01*
X160100000Y-94400000D02*
X165555000Y-94400000D01*
X145750000Y-87971041D02*
X145200000Y-88521041D01*
X167350000Y-96195000D02*
X167350000Y-97220000D01*
X165555000Y-94400000D02*
X167350000Y-96195000D01*
X145750000Y-87132500D02*
X145750000Y-87971041D01*
%TO.N,DAC_NLDAC*%
X166850000Y-97220000D02*
X166850000Y-98245000D01*
X167205000Y-98600000D02*
X167900000Y-98600000D01*
X149817035Y-92550000D02*
X159450000Y-92550000D01*
X146250000Y-87132500D02*
X146250000Y-88982965D01*
X167900000Y-98600000D02*
X168250000Y-98250000D01*
X146250000Y-88982965D02*
X149817035Y-92550000D01*
X168250000Y-98250000D02*
X168250000Y-96900000D01*
X166850000Y-98245000D02*
X167205000Y-98600000D01*
%TD*%
%TA.AperFunction,Conductor*%
%TO.N,GND*%
G36*
X166437500Y-96516613D02*
G01*
X166482887Y-96562000D01*
X166499500Y-96624000D01*
X166499500Y-98195788D01*
X166497133Y-98218605D01*
X166497064Y-98220264D01*
X166494957Y-98230315D01*
X166496227Y-98240505D01*
X166496227Y-98240513D01*
X166498651Y-98259959D01*
X166499178Y-98265037D01*
X166499500Y-98268916D01*
X166499500Y-98274040D01*
X166499832Y-98276032D01*
X166500000Y-98280077D01*
X166500000Y-98700000D01*
X166757956Y-98700000D01*
X166805409Y-98709439D01*
X166845637Y-98736319D01*
X166863681Y-98754363D01*
X166890561Y-98794591D01*
X166900000Y-98842044D01*
X166900000Y-100896940D01*
X166890002Y-100945721D01*
X166861619Y-100986636D01*
X165802402Y-101997706D01*
X165797481Y-102002158D01*
X164434827Y-103170148D01*
X164397150Y-103192298D01*
X164354129Y-103200000D01*
X161724000Y-103200000D01*
X161662000Y-103183387D01*
X161616613Y-103138000D01*
X161600000Y-103076000D01*
X161600000Y-100024000D01*
X161616613Y-99962000D01*
X161662000Y-99916613D01*
X161724000Y-99900000D01*
X162476000Y-99900000D01*
X162538000Y-99916613D01*
X162583387Y-99962000D01*
X162600000Y-100024000D01*
X162600000Y-101100000D01*
X162616326Y-101100000D01*
X163883674Y-101100000D01*
X163900000Y-101100000D01*
X163900000Y-100124000D01*
X163916613Y-100062000D01*
X163962000Y-100016613D01*
X164024000Y-100000000D01*
X165883674Y-100000000D01*
X165900000Y-100000000D01*
X165900000Y-99272355D01*
X165909439Y-99224903D01*
X165936316Y-99184676D01*
X166080965Y-99040026D01*
X166088904Y-99032751D01*
X166120062Y-99006609D01*
X166140391Y-98971396D01*
X166146199Y-98962280D01*
X166152966Y-98952617D01*
X166169510Y-98928990D01*
X166172318Y-98918503D01*
X166174271Y-98914317D01*
X166175850Y-98909978D01*
X166181280Y-98900576D01*
X166188342Y-98860519D01*
X166190676Y-98849997D01*
X166201199Y-98810726D01*
X166197657Y-98770237D01*
X166197185Y-98759431D01*
X166197185Y-98710506D01*
X166198568Y-98700000D01*
X166200000Y-98700000D01*
X166200000Y-97969825D01*
X166200167Y-97966421D01*
X166200500Y-97964748D01*
X166200500Y-96624000D01*
X166217113Y-96562000D01*
X166262500Y-96516613D01*
X166324500Y-96500000D01*
X166375500Y-96500000D01*
X166437500Y-96516613D01*
G37*
%TD.AperFunction*%
%TD*%
%TA.AperFunction,Conductor*%
%TO.N,GND*%
G36*
X143706091Y-107314439D02*
G01*
X143746319Y-107341319D01*
X143873681Y-107468681D01*
X143900561Y-107508909D01*
X143910000Y-107556362D01*
X143910000Y-109881000D01*
X143893387Y-109943000D01*
X143848000Y-109988387D01*
X143786000Y-110005000D01*
X143279500Y-110005000D01*
X143217500Y-109988387D01*
X143172113Y-109943000D01*
X143155500Y-109881000D01*
X143155500Y-108228055D01*
X143155500Y-108224000D01*
X143148498Y-108170812D01*
X143131885Y-108108812D01*
X143111355Y-108059250D01*
X143078697Y-108016690D01*
X143033310Y-107971303D01*
X142990750Y-107938645D01*
X142983243Y-107935535D01*
X142983239Y-107935533D01*
X142944941Y-107919669D01*
X142944932Y-107919666D01*
X142941188Y-107918115D01*
X142937272Y-107917065D01*
X142937270Y-107917065D01*
X142883101Y-107902550D01*
X142883093Y-107902548D01*
X142879188Y-107901502D01*
X142875173Y-107900973D01*
X142875166Y-107900972D01*
X142830022Y-107895029D01*
X142830014Y-107895028D01*
X142826000Y-107894500D01*
X142627518Y-107894500D01*
X142627109Y-107894506D01*
X142627063Y-107894507D01*
X142621282Y-107894601D01*
X142621224Y-107894602D01*
X142620822Y-107894609D01*
X142620345Y-107894624D01*
X142620327Y-107894625D01*
X142617248Y-107894725D01*
X142617227Y-107894726D01*
X142615730Y-107894775D01*
X142615182Y-107894819D01*
X142608930Y-107894999D01*
X142211080Y-107894999D01*
X142204823Y-107894819D01*
X142204298Y-107894777D01*
X142202834Y-107894729D01*
X142202799Y-107894727D01*
X142199685Y-107894625D01*
X142199587Y-107894622D01*
X142199199Y-107894610D01*
X142198679Y-107894601D01*
X142198658Y-107894601D01*
X142193064Y-107894509D01*
X142192984Y-107894508D01*
X142192472Y-107894500D01*
X142191909Y-107894500D01*
X142134000Y-107894500D01*
X142072000Y-107877887D01*
X142026613Y-107832500D01*
X142010000Y-107770500D01*
X142010000Y-107429000D01*
X142026613Y-107367000D01*
X142072000Y-107321613D01*
X142134000Y-107305000D01*
X143658638Y-107305000D01*
X143706091Y-107314439D01*
G37*
%TD.AperFunction*%
%TD*%
%TA.AperFunction,Conductor*%
%TO.N,GND*%
G36*
X139638000Y-77616613D02*
G01*
X139683387Y-77662000D01*
X139700000Y-77724000D01*
X139700000Y-79476000D01*
X139683387Y-79538000D01*
X139638000Y-79583387D01*
X139576000Y-79600000D01*
X138559598Y-79600000D01*
X138505883Y-79587762D01*
X138462770Y-79553462D01*
X138108712Y-79110890D01*
X138100000Y-79100000D01*
X138086053Y-79100000D01*
X136724000Y-79100000D01*
X136662000Y-79083387D01*
X136616613Y-79038000D01*
X136600000Y-78976000D01*
X136600000Y-77724000D01*
X136616613Y-77662000D01*
X136662000Y-77616613D01*
X136724000Y-77600000D01*
X139576000Y-77600000D01*
X139638000Y-77616613D01*
G37*
%TD.AperFunction*%
%TD*%
%TA.AperFunction,Conductor*%
%TO.N,GND*%
G36*
X139438000Y-83587113D02*
G01*
X139483387Y-83632500D01*
X139500000Y-83694500D01*
X139500000Y-84048638D01*
X139490561Y-84096091D01*
X139463681Y-84136319D01*
X139236319Y-84363681D01*
X139196091Y-84390561D01*
X139148638Y-84400000D01*
X138400000Y-84400000D01*
X138391289Y-84410887D01*
X138391287Y-84410890D01*
X138037230Y-84853462D01*
X137994117Y-84887762D01*
X137940402Y-84900000D01*
X134124000Y-84900000D01*
X134062000Y-84883387D01*
X134016613Y-84838000D01*
X134000000Y-84776000D01*
X134000000Y-84055225D01*
X134010726Y-84004777D01*
X134041048Y-83963057D01*
X134441853Y-83602332D01*
X134480380Y-83578731D01*
X134524805Y-83570500D01*
X139376000Y-83570500D01*
X139438000Y-83587113D01*
G37*
%TD.AperFunction*%
%TD*%
%TA.AperFunction,Conductor*%
%TO.N,GND*%
G36*
X158638000Y-75516613D02*
G01*
X158683387Y-75562000D01*
X158700000Y-75624000D01*
X158700000Y-77000000D01*
X159400000Y-77700000D01*
X159487723Y-77700000D01*
X159540128Y-77711618D01*
X159566827Y-77724068D01*
X159615684Y-77730500D01*
X160060263Y-77730500D01*
X160064316Y-77730500D01*
X160113173Y-77724068D01*
X160139871Y-77711618D01*
X160192277Y-77700000D01*
X162476000Y-77700000D01*
X162538000Y-77716613D01*
X162583387Y-77762000D01*
X162600000Y-77824000D01*
X162600000Y-79976000D01*
X162583387Y-80038000D01*
X162538000Y-80083387D01*
X162476000Y-80100000D01*
X159051362Y-80100000D01*
X159003909Y-80090561D01*
X158963681Y-80063681D01*
X158536319Y-79636319D01*
X158509439Y-79596091D01*
X158500000Y-79548638D01*
X158500000Y-78316326D01*
X158500000Y-78300000D01*
X158483674Y-78300000D01*
X157424000Y-78300000D01*
X157362000Y-78283387D01*
X157316613Y-78238000D01*
X157300000Y-78176000D01*
X157300000Y-77012211D01*
X157300000Y-77000000D01*
X157036319Y-76736319D01*
X157009439Y-76696091D01*
X157000000Y-76648638D01*
X157000000Y-75624000D01*
X157016613Y-75562000D01*
X157062000Y-75516613D01*
X157124000Y-75500000D01*
X158576000Y-75500000D01*
X158638000Y-75516613D01*
G37*
%TD.AperFunction*%
%TD*%
%TA.AperFunction,Conductor*%
%TO.N,GND*%
G36*
X135547500Y-79616613D02*
G01*
X135592887Y-79662000D01*
X135609500Y-79724000D01*
X135609500Y-80831728D01*
X135596409Y-80887182D01*
X135346457Y-81387085D01*
X135346456Y-81387086D01*
X135340000Y-81400000D01*
X135340000Y-81414439D01*
X135340000Y-81976000D01*
X135323387Y-82038000D01*
X135278000Y-82083387D01*
X135216000Y-82100000D01*
X133964000Y-82100000D01*
X133902000Y-82083387D01*
X133856613Y-82038000D01*
X133840000Y-81976000D01*
X133840000Y-79724000D01*
X133856613Y-79662000D01*
X133902000Y-79616613D01*
X133964000Y-79600000D01*
X135485500Y-79600000D01*
X135547500Y-79616613D01*
G37*
%TD.AperFunction*%
%TD*%
%TA.AperFunction,Conductor*%
%TO.N,GND*%
G36*
X165196842Y-89308231D02*
G01*
X165235369Y-89331832D01*
X165658952Y-89713057D01*
X165689274Y-89754777D01*
X165700000Y-89805225D01*
X165700000Y-90576000D01*
X165683387Y-90638000D01*
X165638000Y-90683387D01*
X165576000Y-90700000D01*
X161924000Y-90700000D01*
X161862000Y-90683387D01*
X161816613Y-90638000D01*
X161800000Y-90576000D01*
X161800000Y-89424000D01*
X161816613Y-89362000D01*
X161862000Y-89316613D01*
X161924000Y-89300000D01*
X165152417Y-89300000D01*
X165196842Y-89308231D01*
G37*
%TD.AperFunction*%
%TD*%
%TA.AperFunction,Conductor*%
%TO.N,GND*%
G36*
X134738000Y-92816613D02*
G01*
X134783387Y-92862000D01*
X134800000Y-92924000D01*
X134800000Y-96776000D01*
X134783387Y-96838000D01*
X134738000Y-96883387D01*
X134676000Y-96900000D01*
X133551362Y-96900000D01*
X133503909Y-96890561D01*
X133463681Y-96863681D01*
X133308638Y-96708638D01*
X133300000Y-96700000D01*
X133287789Y-96700000D01*
X131824000Y-96700000D01*
X131762000Y-96683387D01*
X131716613Y-96638000D01*
X131700000Y-96576000D01*
X131700000Y-93324000D01*
X131716613Y-93262000D01*
X131762000Y-93216613D01*
X131824000Y-93200000D01*
X132790872Y-93200000D01*
X132800000Y-93200000D01*
X133368760Y-92820826D01*
X133401611Y-92805321D01*
X133437544Y-92800000D01*
X134676000Y-92800000D01*
X134738000Y-92816613D01*
G37*
%TD.AperFunction*%
%TD*%
%TA.AperFunction,Conductor*%
%TO.N,GND*%
G36*
X132995800Y-108859880D02*
G01*
X133036575Y-108887947D01*
X136965280Y-112963978D01*
X136990993Y-113003634D01*
X137000000Y-113050031D01*
X137000000Y-117876000D01*
X136983387Y-117938000D01*
X136938000Y-117983387D01*
X136876000Y-118000000D01*
X123124000Y-118000000D01*
X123062000Y-117983387D01*
X123016613Y-117938000D01*
X123000000Y-117876000D01*
X123000000Y-113124000D01*
X123016613Y-113062000D01*
X123062000Y-113016613D01*
X123124000Y-113000000D01*
X131383674Y-113000000D01*
X131400000Y-113000000D01*
X131400000Y-109167043D01*
X131409439Y-109119590D01*
X131436319Y-109079362D01*
X131629362Y-108886319D01*
X131669590Y-108859439D01*
X131717043Y-108850000D01*
X132947295Y-108850000D01*
X132995800Y-108859880D01*
G37*
%TD.AperFunction*%
%TD*%
%TA.AperFunction,Conductor*%
%TO.N,GND*%
G36*
X133553481Y-88622742D02*
G01*
X133598941Y-88668844D01*
X133614968Y-88731575D01*
X133587680Y-90679440D01*
X133586632Y-90693884D01*
X133584257Y-90711921D01*
X133584256Y-90711931D01*
X133583729Y-90715937D01*
X133583729Y-90719989D01*
X133583729Y-90719990D01*
X133583729Y-90920712D01*
X133582521Y-90937979D01*
X133531738Y-91299105D01*
X133510101Y-91353557D01*
X133465880Y-91391995D01*
X133408946Y-91405838D01*
X131940729Y-91405838D01*
X131878729Y-91389225D01*
X131833342Y-91343838D01*
X131816729Y-91281838D01*
X131816729Y-88729838D01*
X131833342Y-88667838D01*
X131878729Y-88622451D01*
X131940729Y-88605838D01*
X133490980Y-88605838D01*
X133553481Y-88622742D01*
G37*
%TD.AperFunction*%
%TD*%
%TA.AperFunction,Conductor*%
%TO.N,GND*%
G36*
X151938000Y-75516613D02*
G01*
X151983387Y-75562000D01*
X152000000Y-75624000D01*
X152000000Y-79326000D01*
X151983387Y-79388000D01*
X151938000Y-79433387D01*
X151876000Y-79450000D01*
X149774000Y-79450000D01*
X149712000Y-79433387D01*
X149666613Y-79388000D01*
X149650000Y-79326000D01*
X149650000Y-75624000D01*
X149666613Y-75562000D01*
X149712000Y-75516613D01*
X149774000Y-75500000D01*
X151876000Y-75500000D01*
X151938000Y-75516613D01*
G37*
%TD.AperFunction*%
%TD*%
%TA.AperFunction,Conductor*%
%TO.N,GND*%
G36*
X147988000Y-99416613D02*
G01*
X148033387Y-99462000D01*
X148050000Y-99524000D01*
X148050000Y-101142269D01*
X148048305Y-101162694D01*
X148040143Y-101211574D01*
X148039994Y-101215515D01*
X148039993Y-101215528D01*
X148030413Y-101469403D01*
X148030304Y-101472299D01*
X148030464Y-101475175D01*
X148030465Y-101475189D01*
X148032287Y-101507762D01*
X148032449Y-101510651D01*
X148039321Y-101556282D01*
X148040015Y-101559082D01*
X148040017Y-101559091D01*
X148041356Y-101564490D01*
X148045000Y-101594330D01*
X148045000Y-102595558D01*
X148038042Y-102636511D01*
X148008825Y-102720010D01*
X148007139Y-102719420D01*
X148003490Y-102732983D01*
X148002155Y-102735753D01*
X148002151Y-102735762D01*
X147999638Y-102740980D01*
X147985605Y-102793311D01*
X147985088Y-102796734D01*
X147985085Y-102796749D01*
X147979257Y-102835344D01*
X147979255Y-102835362D01*
X147978738Y-102838788D01*
X147978607Y-102842250D01*
X147978606Y-102842265D01*
X147944744Y-103739637D01*
X147944739Y-103739761D01*
X147944734Y-103739919D01*
X147944728Y-103740111D01*
X147944724Y-103740251D01*
X147944633Y-103743471D01*
X147944624Y-103743801D01*
X147944619Y-103744056D01*
X147944618Y-103744107D01*
X147944540Y-103748217D01*
X147944533Y-103748700D01*
X147944502Y-103752077D01*
X147944500Y-103752344D01*
X147944500Y-103752650D01*
X147944500Y-104526000D01*
X147927887Y-104588000D01*
X147882500Y-104633387D01*
X147820500Y-104650000D01*
X146988465Y-104650000D01*
X146941012Y-104640561D01*
X146900784Y-104613681D01*
X146633111Y-104346008D01*
X146620162Y-104330781D01*
X146073870Y-103572041D01*
X146056487Y-103537652D01*
X146050500Y-103499587D01*
X146050500Y-103482261D01*
X146051280Y-103468378D01*
X146051564Y-103465855D01*
X146055270Y-103432965D01*
X146044635Y-103376761D01*
X146043864Y-103372218D01*
X146036733Y-103324902D01*
X146036732Y-103324901D01*
X146035348Y-103315713D01*
X146031622Y-103307976D01*
X146030024Y-103299529D01*
X146003305Y-103248976D01*
X146001236Y-103244878D01*
X145976425Y-103193358D01*
X145970581Y-103187059D01*
X145966566Y-103179463D01*
X145926163Y-103139060D01*
X145922946Y-103135721D01*
X145890374Y-103100616D01*
X145890372Y-103100615D01*
X145884055Y-103093806D01*
X145878046Y-103090336D01*
X145872340Y-103085237D01*
X145347397Y-102560294D01*
X145334448Y-102545067D01*
X144172044Y-100930616D01*
X144155311Y-100898188D01*
X144148743Y-100862293D01*
X144104454Y-99533631D01*
X144119647Y-99469901D01*
X144165196Y-99422808D01*
X144228385Y-99405500D01*
X146944730Y-99405500D01*
X146947781Y-99405500D01*
X146987869Y-99401552D01*
X146989316Y-99401264D01*
X147006462Y-99400000D01*
X147926000Y-99400000D01*
X147988000Y-99416613D01*
G37*
%TD.AperFunction*%
%TD*%
%TA.AperFunction,Conductor*%
%TO.N,GND*%
G36*
X162994117Y-108012238D02*
G01*
X163037230Y-108046538D01*
X166972828Y-112966035D01*
X166993010Y-113002452D01*
X167000000Y-113043497D01*
X167000000Y-117876000D01*
X166983387Y-117938000D01*
X166938000Y-117983387D01*
X166876000Y-118000000D01*
X153124000Y-118000000D01*
X153062000Y-117983387D01*
X153016613Y-117938000D01*
X153000000Y-117876000D01*
X153000000Y-113124000D01*
X153016613Y-113062000D01*
X153062000Y-113016613D01*
X153124000Y-113000000D01*
X161383674Y-113000000D01*
X161400000Y-113000000D01*
X161400000Y-108124000D01*
X161416613Y-108062000D01*
X161462000Y-108016613D01*
X161524000Y-108000000D01*
X162940402Y-108000000D01*
X162994117Y-108012238D01*
G37*
%TD.AperFunction*%
%TD*%
%TA.AperFunction,Conductor*%
%TO.N,/ADC/IN_RF*%
G36*
X142197571Y-108100167D02*
G01*
X142200099Y-108100500D01*
X142619900Y-108100499D01*
X142622426Y-108100166D01*
X142627518Y-108100000D01*
X142826000Y-108100000D01*
X142888000Y-108116613D01*
X142933387Y-108162000D01*
X142950000Y-108224000D01*
X142950000Y-110026000D01*
X142933387Y-110088000D01*
X142888000Y-110133387D01*
X142826000Y-110150000D01*
X140774000Y-110150000D01*
X140712000Y-110133387D01*
X140666613Y-110088000D01*
X140650000Y-110026000D01*
X140650000Y-108224000D01*
X140666613Y-108162000D01*
X140712000Y-108116613D01*
X140774000Y-108100000D01*
X142192472Y-108100000D01*
X142197571Y-108100167D01*
G37*
%TD.AperFunction*%
%TD*%
%TA.AperFunction,Conductor*%
%TO.N,+5V*%
G36*
X133588000Y-100566613D02*
G01*
X133633387Y-100612000D01*
X133650000Y-100674000D01*
X133650000Y-102776000D01*
X133633387Y-102838000D01*
X133588000Y-102883387D01*
X133526000Y-102900000D01*
X131224000Y-102900000D01*
X131162000Y-102883387D01*
X131116613Y-102838000D01*
X131100000Y-102776000D01*
X131100000Y-101674000D01*
X131116613Y-101612000D01*
X131162000Y-101566613D01*
X131224000Y-101550000D01*
X131982728Y-101550000D01*
X132000000Y-101550000D01*
X132465726Y-100618546D01*
X132511445Y-100568519D01*
X132576636Y-100550000D01*
X133526000Y-100550000D01*
X133588000Y-100566613D01*
G37*
%TD.AperFunction*%
%TD*%
%TA.AperFunction,Conductor*%
%TO.N,/Power/+5V_FILT*%
G36*
X150038000Y-95416613D02*
G01*
X150083387Y-95462000D01*
X150100000Y-95524000D01*
X150100000Y-99064312D01*
X150090561Y-99111766D01*
X150063680Y-99151994D01*
X150023587Y-99178782D01*
X150011769Y-99181133D01*
X150001614Y-99187917D01*
X149995231Y-99190562D01*
X149947781Y-99200000D01*
X149650000Y-99200000D01*
X149650000Y-99216326D01*
X149650000Y-100526000D01*
X149633387Y-100588000D01*
X149588000Y-100633387D01*
X149526000Y-100650000D01*
X148524000Y-100650000D01*
X148462000Y-100633387D01*
X148416613Y-100588000D01*
X148400000Y-100526000D01*
X148400000Y-99216326D01*
X148400000Y-99200000D01*
X148383674Y-99200000D01*
X148132219Y-99200000D01*
X148084767Y-99190562D01*
X148078387Y-99187919D01*
X148068231Y-99181133D01*
X148056250Y-99178749D01*
X148056248Y-99178749D01*
X148015728Y-99170689D01*
X148015723Y-99170688D01*
X148009748Y-99169500D01*
X147070252Y-99169500D01*
X147064277Y-99170688D01*
X147064271Y-99170689D01*
X147023751Y-99178749D01*
X147023748Y-99178750D01*
X147011769Y-99181133D01*
X147001612Y-99187919D01*
X146995233Y-99190562D01*
X146947781Y-99200000D01*
X144224000Y-99200000D01*
X144162000Y-99183387D01*
X144116613Y-99138000D01*
X144100000Y-99076000D01*
X144100000Y-95524000D01*
X144116613Y-95462000D01*
X144162000Y-95416613D01*
X144224000Y-95400000D01*
X149976000Y-95400000D01*
X150038000Y-95416613D01*
G37*
%TD.AperFunction*%
%TD*%
%TA.AperFunction,Conductor*%
%TO.N,+3.3VA*%
G36*
X151138000Y-99466613D02*
G01*
X151183387Y-99512000D01*
X151200000Y-99574000D01*
X151200000Y-102926000D01*
X151183387Y-102988000D01*
X151138000Y-103033387D01*
X151076000Y-103050000D01*
X150200000Y-103050000D01*
X149950000Y-103400000D01*
X149950000Y-103409630D01*
X149950000Y-104665921D01*
X149932582Y-104729294D01*
X148886048Y-106489373D01*
X148840775Y-106533783D01*
X148779466Y-106550000D01*
X148274000Y-106550000D01*
X148212000Y-106533387D01*
X148166613Y-106488000D01*
X148150000Y-106426000D01*
X148150000Y-103752344D01*
X148150088Y-103747668D01*
X148163190Y-103400458D01*
X148184092Y-102846537D01*
X148198125Y-102794206D01*
X148202793Y-102787882D01*
X148247646Y-102659699D01*
X148250500Y-102629266D01*
X148250500Y-101570734D01*
X148247646Y-101540301D01*
X148242530Y-101525679D01*
X148235658Y-101480048D01*
X148245497Y-101219323D01*
X148263615Y-101159319D01*
X148308764Y-101115842D01*
X148369409Y-101100000D01*
X149983674Y-101100000D01*
X150000000Y-101100000D01*
X150000000Y-99574000D01*
X150016613Y-99512000D01*
X150062000Y-99466613D01*
X150124000Y-99450000D01*
X151076000Y-99450000D01*
X151138000Y-99466613D01*
G37*
%TD.AperFunction*%
%TD*%
%TA.AperFunction,Conductor*%
%TO.N,GND*%
G36*
X135638000Y-98866613D02*
G01*
X135683387Y-98912000D01*
X135700000Y-98974000D01*
X135700000Y-101826000D01*
X135683387Y-101888000D01*
X135638000Y-101933387D01*
X135576000Y-101950000D01*
X134024000Y-101950000D01*
X133962000Y-101933387D01*
X133916613Y-101888000D01*
X133900000Y-101826000D01*
X133900000Y-98974000D01*
X133916613Y-98912000D01*
X133962000Y-98866613D01*
X134024000Y-98850000D01*
X135576000Y-98850000D01*
X135638000Y-98866613D01*
G37*
%TD.AperFunction*%
%TD*%
M02*
