%TF.GenerationSoftware,KiCad,Pcbnew,(7.0.0)*%
%TF.CreationDate,2023-08-19T19:02:20+01:00*%
%TF.ProjectId,Nemesis-MixSigPCB,4e656d65-7369-4732-9d4d-697853696750,rev?*%
%TF.SameCoordinates,Original*%
%TF.FileFunction,Copper,L4,Bot*%
%TF.FilePolarity,Positive*%
%FSLAX46Y46*%
G04 Gerber Fmt 4.6, Leading zero omitted, Abs format (unit mm)*
G04 Created by KiCad (PCBNEW (7.0.0)) date 2023-08-19 19:02:20*
%MOMM*%
%LPD*%
G01*
G04 APERTURE LIST*
%TA.AperFunction,ComponentPad*%
%ADD10O,1.600000X1.000000*%
%TD*%
%TA.AperFunction,ComponentPad*%
%ADD11O,2.100000X1.000000*%
%TD*%
%TA.AperFunction,ComponentPad*%
%ADD12C,1.900000*%
%TD*%
%TA.AperFunction,ComponentPad*%
%ADD13C,3.000000*%
%TD*%
%TA.AperFunction,ViaPad*%
%ADD14C,0.800000*%
%TD*%
%TA.AperFunction,ViaPad*%
%ADD15C,0.700000*%
%TD*%
%TA.AperFunction,Conductor*%
%ADD16C,0.500000*%
%TD*%
%TA.AperFunction,Conductor*%
%ADD17C,0.300000*%
%TD*%
%TA.AperFunction,Conductor*%
%ADD18C,0.293370*%
%TD*%
G04 APERTURE END LIST*
D10*
%TO.P,J200,S1,SHIELD*%
%TO.N,unconnected-(J200-SHIELD-PadS1)*%
X168939999Y-87289999D03*
D11*
X164759999Y-87289999D03*
X164759999Y-78649999D03*
D10*
X168939999Y-78649999D03*
%TD*%
D12*
%TO.P,J400,1,In*%
%TO.N,/DAC/OUT*%
X160000000Y-110020000D03*
D13*
%TO.P,J400,2,Ext*%
%TO.N,GND*%
X165080000Y-115100000D03*
D12*
X162540000Y-110020000D03*
D13*
X154920000Y-115100000D03*
%TD*%
D12*
%TO.P,J300,1,In*%
%TO.N,/ADC/IN*%
X130000000Y-110020000D03*
D13*
%TO.P,J300,2,Ext*%
%TO.N,GND*%
X135080000Y-115100000D03*
D12*
X132540000Y-110020000D03*
D13*
X124920000Y-115100000D03*
%TD*%
D14*
%TO.N,GND*%
X147500000Y-115000000D03*
X147500000Y-120000000D03*
X142500000Y-120000000D03*
X142500000Y-122500000D03*
X145000000Y-122500000D03*
X147500000Y-122500000D03*
X147500000Y-117500000D03*
X145000000Y-117500000D03*
X142500000Y-117500000D03*
X127500000Y-70000000D03*
X127500000Y-67500000D03*
X125000000Y-67500000D03*
X122500000Y-67500000D03*
X122500000Y-70000000D03*
X122500000Y-72500000D03*
X125000000Y-72500000D03*
X160000000Y-70000000D03*
X160000000Y-67500000D03*
X167500000Y-67500000D03*
X165000000Y-67500000D03*
X162500000Y-67500000D03*
X162500000Y-70000000D03*
X165000000Y-72500000D03*
X167500000Y-72500000D03*
X167500000Y-75000000D03*
X165000000Y-75000000D03*
X162500000Y-75000000D03*
X155000000Y-97500000D03*
X152500000Y-97500000D03*
X152500000Y-102500000D03*
X155000000Y-102500000D03*
X167500000Y-102500000D03*
X165000000Y-112500000D03*
X162500000Y-112500000D03*
X162500000Y-115000000D03*
X157500000Y-115000000D03*
X160000000Y-115000000D03*
X160000000Y-112500000D03*
X157500000Y-110000000D03*
X157500000Y-112500000D03*
X155000000Y-112500000D03*
X152500000Y-112500000D03*
X135000000Y-110000000D03*
X135000000Y-112500000D03*
X132500000Y-112500000D03*
X132500000Y-115000000D03*
X127500000Y-115000000D03*
X130000000Y-115000000D03*
X135000000Y-117500000D03*
X132500000Y-117500000D03*
X130000000Y-117500000D03*
X127500000Y-117500000D03*
X125000000Y-117500000D03*
X122500000Y-117500000D03*
X157500000Y-117500000D03*
X160000000Y-117500000D03*
X167500000Y-115000000D03*
X167500000Y-112500000D03*
X167500000Y-110000000D03*
X167500000Y-105000000D03*
X167500000Y-107500000D03*
X165000000Y-107500000D03*
X165000000Y-105000000D03*
X162500000Y-105000000D03*
X162500000Y-107500000D03*
X157500000Y-107500000D03*
X157500000Y-105000000D03*
X152500000Y-105000000D03*
X155000000Y-105000000D03*
X155000000Y-107500000D03*
X152500000Y-107500000D03*
X152500000Y-110000000D03*
X155000000Y-110000000D03*
X152500000Y-120000000D03*
X155000000Y-120000000D03*
X157500000Y-120000000D03*
X160000000Y-120000000D03*
X160000000Y-122500000D03*
X157500000Y-122500000D03*
X155000000Y-122500000D03*
X152500000Y-122500000D03*
X122500000Y-122500000D03*
X125000000Y-122500000D03*
X127500000Y-122500000D03*
X130000000Y-122500000D03*
X132500000Y-122500000D03*
X137500000Y-122500000D03*
X135000000Y-122500000D03*
X140000000Y-122500000D03*
X150000000Y-122500000D03*
X150000000Y-120000000D03*
X150000000Y-115000000D03*
X150000000Y-117500000D03*
X137500000Y-110000000D03*
X140000000Y-112500000D03*
X140000000Y-115000000D03*
X140000000Y-117500000D03*
X140000000Y-120000000D03*
X137500000Y-120000000D03*
X135000000Y-120000000D03*
X132500000Y-120000000D03*
X122500000Y-120000000D03*
X125000000Y-120000000D03*
X127500000Y-120000000D03*
X130000000Y-120000000D03*
X130000000Y-112500000D03*
X127500000Y-112500000D03*
X125000000Y-112500000D03*
X122500000Y-112500000D03*
X122500000Y-110000000D03*
X125000000Y-110000000D03*
X127500000Y-110000000D03*
X127500000Y-107500000D03*
X125000000Y-107500000D03*
X137500000Y-105000000D03*
X135000000Y-105000000D03*
X132500000Y-105000000D03*
X125000000Y-102500000D03*
X125000000Y-105000000D03*
X127500000Y-105000000D03*
X130000000Y-105000000D03*
X130000000Y-102500000D03*
X127500000Y-102500000D03*
X127500000Y-100000000D03*
X125000000Y-100000000D03*
X125000000Y-97500000D03*
X127500000Y-97500000D03*
X125000000Y-92500000D03*
X127500000Y-92500000D03*
X130000000Y-92500000D03*
X125000000Y-87500000D03*
X130000000Y-87500000D03*
X132500000Y-87500000D03*
X132500000Y-85000000D03*
X130000000Y-85000000D03*
X127500000Y-85000000D03*
X125000000Y-85000000D03*
X122500000Y-82500000D03*
X125000000Y-82500000D03*
X127500000Y-82500000D03*
X127500000Y-80000000D03*
X125000000Y-80000000D03*
X122500000Y-80000000D03*
X122500000Y-77500000D03*
X125000000Y-77500000D03*
X127500000Y-77500000D03*
X127500000Y-75000000D03*
X125000000Y-75000000D03*
X122500000Y-75000000D03*
D15*
X137600000Y-103350000D03*
X136400000Y-103350000D03*
X135600000Y-100400000D03*
X135600000Y-99500000D03*
X146850000Y-103600000D03*
X132750000Y-103500000D03*
X143000000Y-95750000D03*
X143800000Y-106750000D03*
X145400000Y-101400000D03*
X146400000Y-102400000D03*
X146400000Y-101400000D03*
%TO.N,+5V*%
X132750000Y-102450000D03*
X142400000Y-95050000D03*
%TO.N,GND*%
X158850000Y-102150000D03*
%TO.N,/ADC/IN_AA_BUF_OUT*%
X138750000Y-100050000D03*
X136400000Y-102400000D03*
%TO.N,+3.3VA*%
X147450000Y-105750000D03*
X144700000Y-106750000D03*
%TO.N,VCOM*%
X144750000Y-104450000D03*
X137600000Y-102300000D03*
%TO.N,GND*%
X168050000Y-91850000D03*
X165200000Y-100400000D03*
X139800000Y-70350000D03*
X132200000Y-66500000D03*
X142400000Y-83700000D03*
X146750000Y-85800000D03*
X128500000Y-76800000D03*
X164200000Y-102300000D03*
X159000000Y-79300000D03*
X159200000Y-96800000D03*
X147610000Y-109205000D03*
X161963924Y-83100056D03*
X127300000Y-98600000D03*
X169300000Y-75950000D03*
X140600000Y-98700000D03*
X138767278Y-101017278D03*
X134240000Y-81700000D03*
X153560000Y-104255000D03*
X137600000Y-95700000D03*
X162300000Y-79700000D03*
X134200000Y-95800000D03*
X169300000Y-90000000D03*
X156500000Y-81800000D03*
X134000000Y-94100000D03*
X147500000Y-71000000D03*
X135500000Y-75000000D03*
X143250000Y-80100000D03*
X145710000Y-113905000D03*
X151100000Y-81057787D03*
X144600000Y-74540000D03*
X160150000Y-92000000D03*
X139670000Y-108797500D03*
X150300000Y-113205000D03*
X139000000Y-78100000D03*
X166400000Y-100400000D03*
X149100000Y-109400000D03*
X134500000Y-84200000D03*
X162500000Y-89900000D03*
X132216729Y-90805838D03*
X129700000Y-66500000D03*
X143510000Y-107705000D03*
X134700000Y-66500000D03*
X141000000Y-77650000D03*
X140500000Y-90850000D03*
X161100000Y-92000000D03*
X146900000Y-76650000D03*
X157100000Y-85700000D03*
X142100000Y-103500000D03*
X154340000Y-74634127D03*
X162300000Y-86200000D03*
X150100000Y-79000000D03*
X146400000Y-100100000D03*
X169200000Y-96900000D03*
X141170000Y-111605000D03*
X141000000Y-74550000D03*
X143510000Y-109605000D03*
X148050000Y-75600000D03*
X136600000Y-95700000D03*
X130900000Y-78500000D03*
X131700000Y-81700000D03*
X161700000Y-78300000D03*
X138800000Y-89050000D03*
X150500000Y-77500000D03*
X165350000Y-95800000D03*
X136000000Y-66500000D03*
X132000000Y-75000000D03*
%TO.N,+5V*%
X155200000Y-86050000D03*
X146350000Y-92750000D03*
%TO.N,/MCU/CONN_SWDIO*%
X140900000Y-73420000D03*
X148950000Y-75600000D03*
%TO.N,SPI2_NSS*%
X160850000Y-90100000D03*
X167700000Y-91100000D03*
%TO.N,SPI1_NSS*%
X139800000Y-89050000D03*
X139400000Y-90850000D03*
%TO.N,/MCU/SWDIO*%
X148950000Y-78500000D03*
X147500000Y-81850000D03*
%TO.N,/MCU/SWCLK*%
X147750000Y-76750000D03*
X141050000Y-75600000D03*
%TO.N,/MCU/SWO*%
X141050000Y-76850000D03*
X146750000Y-77500000D03*
%TO.N,DAC_NLDAC*%
X159450000Y-92550000D03*
X168250000Y-96900000D03*
%TD*%
D16*
%TO.N,+5V*%
X132750000Y-102450000D02*
X135000000Y-102450000D01*
X135000000Y-102450000D02*
X142400000Y-95050000D01*
X148900000Y-90200000D02*
X153300000Y-90200000D01*
X153300000Y-90200000D02*
X155200000Y-88300000D01*
X155200000Y-88300000D02*
X155200000Y-86050000D01*
X146350000Y-92750000D02*
X148900000Y-90200000D01*
D17*
%TO.N,VCOM*%
X144750000Y-104450000D02*
X143100000Y-102800000D01*
X143100000Y-102800000D02*
X138100000Y-102800000D01*
X138100000Y-102800000D02*
X137600000Y-102300000D01*
D18*
%TO.N,/ADC/IN_AA_BUF_OUT*%
X138750000Y-100050000D02*
X136400000Y-102400000D01*
D17*
%TO.N,+3.3VA*%
X144700000Y-106750000D02*
X145700000Y-105750000D01*
X145700000Y-105750000D02*
X147450000Y-105750000D01*
%TO.N,/MCU/CONN_SWDIO*%
X148950000Y-74500000D02*
X148950000Y-75600000D01*
X147850000Y-73400000D02*
X148950000Y-74500000D01*
X140900000Y-73420000D02*
X140920000Y-73400000D01*
X140920000Y-73400000D02*
X147850000Y-73400000D01*
D18*
%TO.N,SPI2_NSS*%
X161450000Y-90700000D02*
X167300000Y-90700000D01*
X160850000Y-90100000D02*
X161450000Y-90700000D01*
X167300000Y-90700000D02*
X167700000Y-91100000D01*
%TO.N,SPI1_NSS*%
X139400000Y-90850000D02*
X139800000Y-90450000D01*
X139800000Y-90450000D02*
X139800000Y-89050000D01*
D17*
%TO.N,/MCU/SWDIO*%
X147500000Y-80600000D02*
X148950000Y-79150000D01*
X147500000Y-81850000D02*
X147500000Y-80600000D01*
X148950000Y-79150000D02*
X148950000Y-78500000D01*
%TO.N,/MCU/SWCLK*%
X147000000Y-75600000D02*
X147750000Y-76350000D01*
X141050000Y-75600000D02*
X147000000Y-75600000D01*
X147750000Y-76350000D02*
X147750000Y-76750000D01*
%TO.N,/MCU/SWO*%
X146750000Y-77500000D02*
X146100000Y-76850000D01*
X146100000Y-76850000D02*
X141050000Y-76850000D01*
%TO.N,DAC_NLDAC*%
X168250000Y-96150000D02*
X167150000Y-95050000D01*
X168250000Y-96900000D02*
X168250000Y-96150000D01*
X161950000Y-95050000D02*
X159450000Y-92550000D01*
X167150000Y-95050000D02*
X161950000Y-95050000D01*
%TD*%
M02*
